SplineFontDB: 3.2
FontName: EvangelionCPA
FullName: Evangelion CPA
FamilyName: EvangelionCPA
Weight: Regular
Copyright: Copyright 2025 The Evangelion CPA Project Authors (https://github.com/typiconman/Evangelion-CPA)
Version: 1.2
ItalicAngle: 0
UnderlinePosition: -210
UnderlineWidth: 50
Ascent: 800
Descent: 200
InvalidEm: 0
LayerCount: 2
Layer: 0 0 "Back" 1
Layer: 1 0 "Fore" 0
XUID: [1021 156 -1182680201 1545178]
StyleMap: 0x0040
FSType: 0
OS2Version: 0
OS2_WeightWidthSlopeOnly: 0
OS2_UseTypoMetrics: 1
CreationTime: -1237338159
ModificationTime: 1753771622
PfmFamily: 81
TTFWeight: 400
TTFWidth: 5
LineGap: 0
VLineGap: 0
Panose: 0 0 0 0 0 0 0 0 0 0
OS2TypoAscent: -56
OS2TypoAOffset: 1
OS2TypoDescent: 594
OS2TypoDOffset: 1
OS2TypoLinegap: 0
OS2WinAscent: 56
OS2WinAOffset: 1
OS2WinDescent: 8
OS2WinDOffset: 1
HheadAscent: -56
HheadAOffset: 1
HheadDescent: -8
HheadDOffset: 1
OS2SubXSize: 700
OS2SubYSize: 650
OS2SubXOff: 0
OS2SubYOff: 143
OS2SupXSize: 700
OS2SupYSize: 650
OS2SupXOff: 0
OS2SupYOff: 453
OS2StrikeYSize: 50
OS2StrikeYPos: 259
OS2Vendor: '    '
OS2UnicodeRanges: 00000000.00000000.00000000.00000000
Lookup: 1 1 0 "'init' Initial Forms lookup 0" { "'init' Initial Forms lookup 0-1" ("init") } []
Lookup: 1 1 0 "'medi' Medial Forms lookup 1" { "'medi' Medial Forms lookup 1-1" ("med") } []
Lookup: 1 1 0 "'fina' Terminal Forms lookup 2" { "'fina' Terminal Forms lookup 2-1" ("fin") } []
Lookup: 259 9 0 "'curs' Cursive Attachment lookup 0" { "'curs' Cursive Attachment lookup 0-1"  } ['curs' ('DFLT' <'dflt' > 'latn' <'dflt' > 'syrc' <'dflt' > ) ]
Lookup: 260 1 0 "'mark' Diacritical Positioning lookup 1" { "'mark' Diacritical Positioning lookup 1-1"  } ['mark' ('DFLT' <'dflt' > 'syrc' <'dflt' > ) ]
Lookup: 262 1 0 "'mkmk' Mark to Mark lookup 2" { "'mkmk' Mark to Mark lookup 2-1"  } ['mkmk' ('DFLT' <'dflt' > 'latn' <'dflt' > 'syrc' <'dflt' > ) ]
MarkAttachClasses: 1
DEI: 91125
TtTable: prep
NPUSHB
 14
 49
 49
 48
 48
 23
 23
 9
 9
 1
 1
 25
 25
 69
 1
SCANTYPE
PUSHW_1
 511

StartChar: .notdef
Encoding: 1114112 -1 0
Width: 746
GlyphClass: 1
Flags: W
HStem: 75 36<148 598> 635 36<148 598>
VStem: 111 37<111 635> 598 37<111 635>
LayerCount: 2
Fore
SplineSet
111 75 m 1
 111 671 l 1
 635 671 l 1
 635 75 l 1
 111 75 l 1
598 111 m 1
 598 635 l 1
 148 635 l 1
 148 111 l 1
 598 111 l 1
EndSplineSet
EndChar

StartChar: exclam
Encoding: 33 33 2
Width: 280
GlyphClass: 1
Flags: W
HStem: 0 21G<117.553 155.426>
VStem: 127 54<172.328 378.527> 127 32<171 213.5>
LayerCount: 2
Fore
SplineSet
174 422 m 1xc0
 175 420 181 401 181 389 c 2
 181 372 l 2xc0
 181 306 180 291 173 256 c 1
 159 171 l 1
 127 148 l 1xa0
 127 219 l 1
 127 235 124 307 124 308 c 0
 124 353 119 369 116 379 c 1
 174 422 l 1xc0
135 0 m 1
 94 47 l 1
 140 102 l 1
 183 47 l 1
 135 0 l 1
EndSplineSet
EndChar

StartChar: quotedbl
Encoding: 34 34 3
Width: 326
GlyphClass: 1
Flags: W
HStem: 313 261
VStem: 88 68<436.942 513.44> 222 69<437.169 532.855>
LayerCount: 2
Fore
SplineSet
264 574 m 5
 276 567 291 551 291 515 c 4
 291 463 250 394 192 313 c 5
 177 327 l 5
 207 390 208 392 213 414 c 6
 217 436 l 6
 221 456 222 466 222 475 c 4
 222 492 218 505 211 514 c 5
 264 574 l 5
129 576 m 5
 147 563 156 536 156 511 c 4
 156 505 155 498 154 491 c 6
 148 469 l 5
 128 416 107 387 54 313 c 4
 54 312 50 317 41 326 c 5
 75 391 79 407 81 418 c 6
 86 442 l 6
 87 449 88 455 88 460 c 6
 88 474 l 6
 88 494 86 502 77 514 c 5
 129 576 l 5
EndSplineSet
EndChar

StartChar: numbersign
Encoding: 35 35 4
Width: 403
GlyphClass: 1
Flags: W
HStem: 124 32<57 118 159 232 270 328> 232 33<78 140 180 252 291 347> 360 20G<164.348 202 275 312>
VStem: 57 290
LayerCount: 2
Fore
SplineSet
241 0 m 1
 207 0 l 1
 208 0 216 41 232 124 c 1
 152 124 l 1
 129 0 l 1
 95 0 l 1
 118 124 l 1
 57 124 l 1
 57 156 l 1
 124 156 l 1
 140 232 l 1
 78 232 l 1
 78 265 l 1
 147 265 l 1
 168 380 l 1
 202 380 l 1
 180 265 l 1
 256 265 l 1
 279 380 l 1
 312 380 l 1
 291 265 l 1
 347 265 l 1
 347 232 l 1
 285 232 l 1
 270 156 l 1
 328 156 l 1
 328 124 l 1
 264 124 l 1
 241 0 l 1
159 156 m 1
 237 156 l 2
 238 156 243 181 252 232 c 1
 173 232 l 1
 159 156 l 1
EndSplineSet
EndChar

StartChar: dollar
Encoding: 36 36 5
Width: 415
GlyphClass: 1
Flags: W
HStem: 345 53<235 311.872>
VStem: 91 46<279.572 325.112> 189 30<-37 0 60 146.125> 196 31<60 159 255 300> 203 32<255 345 398 449> 293.7 51.3002<67.6317 131.449>
LayerCount: 2
Fore
SplineSet
196 175 m 1xd4
 154 194 91 233 91 285 c 0
 91 288 92 292 93 299 c 1
 92 304 l 1
 95 318 113 378 203 395 c 1
 205 449 l 1
 237 459 l 1
 235 398 l 1xcc
 276 398 314 392 347 379 c 1
 313 325 l 1
 289 336 261 345 232 345 c 1
 229 237 l 1
 234 235 240 232 249 227 c 2
 285 207 l 1
 309 191 l 2
 314 187 345 161 345 130 c 2
 345 123 l 1
 341 101 326 26 221 0 c 1
 219 -37 l 1
 188 -50 l 2
 187 -50 188 -32 189 0 c 1xe4
 137 6 101 8 68 30 c 0
 67 30 81 47 109 82 c 1
 117 77 146 61 181 59 c 1
 192 60 l 2
 192 61 193 99 196 175 c 1xd4
222 56 m 1
 232 56 286 60 293 87 c 0
 293.452095924 90.1646714677 293.699801123 93.1377266312 293.699801123 95.9668114131 c 0
 293.699801123 118.168563071 278.444609103 131.503743411 227 159 c 1xd4
 222 56 l 1
189 345 m 1xe4
 155 340 137 337 137 311 c 0
 137 289 165 273 198 255 c 1
 202 345 l 1
 189 345 l 1xe4
EndSplineSet
EndChar

StartChar: percent
Encoding: 37 37 6
Width: 602
GlyphClass: 1
Flags: W
HStem: 0 19<370.412 423.815> 175 21<163 202.212> 196 17<425.561 477.354> 344 12<289.094 322> 373 16<213.048 243.944>
VStem: 95 44<197.018 302.454> 273 13<285.73 347.789> 315 44.3219<21.7715 129.439> 491 16<133 181.993>
LayerCount: 2
Fore
SplineSet
322 356 m 0xdf80
 322 356 378 356 406 397 c 1
 406 396 415 396 435 396 c 1
 198 0 l 1
 170 0 l 1
 385 360.125 l 1
 361 349.125 338 344 314 344 c 0
 304 344 294 345 283 348 c 1
 284 341 285 334 286 325 c 0
 286 316 284 304 282 291 c 2
 279 277 l 2
 278 276 240 175 163 175 c 1
 163 170 95 182 95 236 c 0
 95 239 95 243 96 248 c 2
 101 275 l 1
 112 328 167 389 227 389 c 0
 267 389 269 369 283 364 c 0
 296 359 309 356 322 356 c 0xdf80
185 196 m 1
 220 203 273 257 273 327 c 0
 273 334 271 343 269 352 c 1
 260 355 240 368 231 373 c 0
 229 373 166 362 140 242 c 0
 139 240 139 237 139 232 c 0
 139 214 149 196 168 196 c 2
 185 196 l 1
455 213 m 0xbf80
 486 213 507 186 507 158 c 0
 507 153 507 150 507 148 c 2
 504 133 l 1
 500 109 l 1
 485 55 438 0 387 0 c 0
 348 0 315 27 315 66 c 0
 315 69 315 74 316 79 c 2
 320 100 l 1
 335 166 393 213 455 213 c 0xbf80
394 19 m 0
 472 19 492 148 491 156 c 0
 491 174 481 196 453 196 c 0
 427 196 384 176 360 59 c 0
 359.544003745 56.8340177903 359.321931648 54.6420440075 359.321931648 52.458153324 c 0
 359.321931648 35.4849508427 372.735977528 19 394 19 c 0
EndSplineSet
EndChar

StartChar: ampersand
Encoding: 38 38 7
Width: 701
GlyphClass: 1
Flags: W
HStem: -6 43.9658<467.247 564.735> 0 30<223.322 316.259> 246 29<504.516 561.9> 249 26<369.343 429.391 479.752 561.952> 473 29<264.027 350.5>
VStem: 100 59.9506<82.6875 187.098> 192 49<326.945 448.363> 320 52<373.849 472.333>
LayerCount: 2
Fore
SplineSet
363 67 m 1x4f
 296 147 249 203 218 270 c 1
 174.474241333 233.244914904 159.95057733 156.261117855 159.95057733 141.302525388 c 0
 159.95057733 140.795869652 159.967239081 140.360370104 160 140 c 0
 160 110 196 36 264 30 c 2
 276 30 l 1
 299 30 334 36 363 67 c 1x4f
296 473 m 256
 275 473 241 455 241 402 c 0
 241 380 247 356 255 326 c 1
 282 348 l 1
 320 383 320 398 320 440 c 0
 319 450 316 473 296 473 c 256
509 -6 m 0x9f
 463 -6 428 17 389 52 c 1
 366 36 309 0 238 0 c 0
 130 0 100 84 100 112 c 0
 100 126 112 222 210 289 c 1
 198 318 192 346 192 373 c 0
 192 400 201 502 330 502 c 0
 371 502 372 432 372 431 c 0
 372 377 325 345 262 302 c 1
 276 260 313 177 404 108 c 1
 417 124 435 149 439 198 c 0
 439 203 439 246 405 253 c 1
 377 254 l 2
 372 254 368 265 368 265 c 2
 368 271 l 2
 369 273 371 278 375 280 c 1
 417 278 l 2
 427 277 461 275 489 275 c 2x5f
 556 275 l 2
 562 275 562 274 562 261 c 1
 561 255 558 246 555 246 c 2
 534 246 l 2x2f
 526 246 515 249 504 249 c 0
 490 249 475 246 472 202 c 0
 467 162 464 143 440 108 c 0
 438 102 438 102 428 88 c 1
 465.130485211 58.6864590441 495.577652884 37.965754922 524.93898023 37.965754922 c 0
 525.626558327 37.965754922 526.313540956 37.9771180319 527 38 c 0
 561 38 568 54 573 66 c 1
 584 82 l 1
 587 84 l 1
 596 83 602 82 600 74 c 1
 590 49 l 2
 577 18 542 -6 509 -6 c 0x9f
EndSplineSet
EndChar

StartChar: quotesingle
Encoding: 39 39 8
Width: 161
GlyphClass: 1
Flags: W
HStem: 313 263
VStem: 70 68<438.605 534.098>
LayerCount: 2
Fore
SplineSet
70 479 m 0
 70 497 67 504 58 514 c 1
 110 576 l 1
 128 561 138 541 138 514 c 0
 138 495 131 452 80 378 c 0
 65 357 50 335 36 313 c 0
 36 312 31 317 22 326 c 1
 46 373 l 2
 54 390 60 405 62 418 c 1
 66 443 l 1
 68 456 70 468 70 479 c 0
EndSplineSet
EndChar

StartChar: parenleft
Encoding: 40 40 9
Width: 300
GlyphClass: 1
Flags: W
VStem: 67 75<104.234 384.317>
LayerCount: 2
Fore
SplineSet
142 241 m 0
 142 155 157 -40 283 -109 c 1
 283 -123 l 1
 150 -65 67 81 67 241 c 0
 67 359 104 517 283 603 c 1
 283 587 l 1
 177 515 142 444 142 241 c 0
EndSplineSet
EndChar

StartChar: parenright
Encoding: 41 41 10
Width: 300
GlyphClass: 1
Flags: W
VStem: 190 75<104.434 386.253>
LayerCount: 2
Fore
SplineSet
190 241 m 0
 190 434 157 515 49 587 c 1
 49 603 l 1
 151 553 265 451 265 241 c 0
 265 73 177 -64 49 -123 c 1
 49 -109 l 1
 89 -87 190 -7 190 241 c 0
EndSplineSet
EndChar

StartChar: asterisk
Encoding: 42 42 11
Width: 360
GlyphClass: 1
Flags: W
HStem: 272 80<74.3752 125.904> 272 67<228.056 288.621> 368 67<70.9085 131.836 233.514 294.453>
VStem: 148.958 67.8242<396.931 447.984>
LayerCount: 2
Fore
SplineSet
259 272 m 0x70
 232 272 223 311 185 345 c 1
 185 286 216 282 209 257 c 0
 206 242 192 227 176 227 c 0
 162.732158385 227 143.987653002 234.823805383 143.987653002 250.471416149 c 0
 143.987653002 252.51426087 144.307136646 254.690455487 145 257 c 1
 147 268 l 2
 148 269 168 319 176 345 c 1
 171 342 159 335 152 327 c 0
 122 287 111 272 95 272 c 0
 71.6044099825 272 61.8027012631 287.992801527 61.8027012631 303.798468246 c 0
 61.8027012631 312.989378581 65.1170118995 322.117011899 71 328 c 0
 88 342 121 336 171 352 c 1xb0
 159 360.125 l 1
 152 363.125 135 368 115 368 c 2
 96 368 l 1
 74.6070879451 372.843678201 66.574036434 384.693136931 66.574036434 397.103594892 c 0
 66.574036434 415.439501438 84.1091955028 435 102 435 c 0
 109 435 118 430 121 427 c 0
 139 405 156 383 174 362 c 1
 175 365 175 369 173 376 c 2
 169 401 l 1
 165.113904159 413.629811484 148.957643848 434.754352216 148.957643848 446.95097475 c 0
 148.957643848 447.308466198 148.97152396 447.658287523 149 448 c 1
 151 451 l 1
 154 467 169 480 185 480 c 0
 199.294566786 480 216.781862317 472.816360326 216.781862317 457.022872408 c 0
 216.781862317 455.13860832 216.532947879 453.131791517 216 451 c 2
 213 439 l 1
 189 385 186 374 184 366 c 1
 184 362 l 1
 196 370 l 1
 217 387 240 435 266 435 c 0
 286.342138668 435 297.011754781 418.979884517 297.011754781 402.89315045 c 0
 297.011754781 389.719973838 289.857011458 376.502124684 275 372 c 0
 254 365 216 368 189 354 c 1
 212 345 217 343 225 341 c 1
 251 339 l 1
 282.219071749 339 293.348822166 325.673420503 293.348822166 310.907216979 c 0
 293.348822166 292.564356436 276.174411083 272 259 272 c 0x70
EndSplineSet
EndChar

StartChar: plus
Encoding: 43 43 12
Width: 514
GlyphClass: 1
Flags: W
HStem: 211 48<75 233 281 439>
VStem: 233 48<53 211 259 417>
LayerCount: 2
Fore
SplineSet
233 259 m 1
 233 417 l 1
 281 417 l 1
 281 259 l 1
 439 259 l 1
 439 211 l 1
 281 211 l 1
 281 53 l 1
 233 53 l 1
 233 211 l 1
 75 211 l 1
 75 259 l 1
 233 259 l 1
EndSplineSet
EndChar

StartChar: comma
Encoding: 44 44 13
Width: 172
GlyphClass: 1
Flags: W
HStem: -123 258
VStem: 76 68<-2.65701 73.343>
LayerCount: 2
Fore
SplineSet
144 68 m 0
 144 58 140 48 140 41 c 0
 138 24 131 8 120 -7 c 2
 42 -123 l 1
 28 -110 l 1
 56 -60 l 2
 56 -59 76 -17 76 28 c 0
 76 45 73 60 66 74 c 1
 120 135 l 1
 124 130 144 105 144 68 c 0
EndSplineSet
EndChar

StartChar: hyphen
Encoding: 45 45 14
Width: 514
GlyphClass: 1
Flags: W
HStem: 211 48<75 439>
LayerCount: 2
Fore
SplineSet
439 259 m 1
 439 211 l 1
 75 211 l 1
 75 259 l 1
 439 259 l 1
EndSplineSet
EndChar

StartChar: period
Encoding: 46 46 15
Width: 300
GlyphClass: 1
Flags: W
HStem: 0 102<108.117 191.764>
VStem: 99 102<8.9379 92.7637>
LayerCount: 2
Fore
SplineSet
149 102 m 256
 179 102 201 80 201 50 c 256
 201 19 177 0 149 0 c 256
 118 0 99 23 99 50 c 256
 99 80 121 102 149 102 c 256
EndSplineSet
EndChar

StartChar: slash
Encoding: 47 47 16
Width: 182
GlyphClass: 1
Flags: W
HStem: 367 20G<127.437 168>
VStem: 7 161
LayerCount: 2
Fore
SplineSet
41 0 m 1
 7 0 l 1
 134 387 l 1
 168 387 l 1
 41 0 l 1
EndSplineSet
EndChar

StartChar: zero
Encoding: 48 48 17
Width: 457
GlyphClass: 1
Flags: W
HStem: 0 24<193.619 263.626> 484 25<194.074 264.181>
VStem: 59 78<123.597 384.781> 319 78<120.012 385.929>
LayerCount: 2
Fore
SplineSet
229 509 m 0
 358 509 397 360 397 254 c 0
 397 218 390 0 229 0 c 256
 97 0 59 152 59 254 c 256
 59 368 103 509 229 509 c 0
229 24 m 0
 287 24 319 96 319 254 c 0
 319 334 312 484 229 484 c 0
 160 484 137 386 137 254 c 0
 137 188 139 24 229 24 c 0
EndSplineSet
EndChar

StartChar: one
Encoding: 49 49 18
Width: 457
GlyphClass: 1
Flags: W
HStem: 0 19<129 183.263 279.799 338>
VStem: 198 71<24.5229 433.998>
LayerCount: 2
Fore
SplineSet
269 57 m 2
 269 27 282 19 338 19 c 1
 338 0 l 1
 129 0 l 1
 129 19 l 1
 179 19 198 24 198 72 c 1
 198 404 l 2
 198 431 191 434 177 434 c 0
 172 434 168 433 165 432 c 0
 153 427 139 421 124 416 c 1
 124 435 l 1
 124 434.977284454 124.02321982 434.965920821 124.06964774 434.965920821 c 0
 126.067102923 434.965920821 171.021683554 455.999484004 258 499 c 1
 269 499 l 1
 269 57 l 2
EndSplineSet
EndChar

StartChar: two
Encoding: 50 50 19
Width: 457
GlyphClass: 1
Flags: W
HStem: 0 62<146 354> 439 61<140.84 254.879>
VStem: 63 21<348 368.192> 286 71<285.017 407.205>
LayerCount: 2
Fore
SplineSet
312 62 m 2
 339 62 350 65 381 112 c 1
 395 106 l 1
 354 0 l 1
 63 0 l 1
 63 14 l 1
 193 152 l 1
 255 219 286 282 286 340 c 0
 286 366 278 439 187 439 c 0
 128 438 106 398 84 344 c 1
 63 350 l 1
 73 401 106 500 221 500 c 0
 288 500 356 453 357 366 c 0
 355 288 301 228 263 186 c 2
 146 62 l 1
 312 62 l 2
EndSplineSet
EndChar

StartChar: three
Encoding: 51 51 20
Width: 457
GlyphClass: 1
Flags: W
HStem: 0 32<158.96 249.609> 251 15<152 169.333> 380 21G<71 99.5> 460 49<143.307 251.479>
VStem: 272 66<346.612 439.506> 302 61<89.5869 205.656>
LayerCount: 2
Fore
SplineSet
273 307 m 1xf8
 319 286 363 251 363 171 c 0
 363 61 270 0 156 0 c 0
 135 0 71 2 71 44 c 0
 71 73 98 74 103 74 c 256
 126 74 171 30 207 32 c 0
 223 32 300 37 302 141 c 0xf4
 302 142 302 208 248 232 c 0
 224 247 202 251 152 251 c 1
 151 266 l 1
 254 299 272 349 272 387 c 0
 272 429 243 459 195 460 c 0
 138 460 109 417 90 380 c 1
 71 385 l 1
 80 411 114 509 219 509 c 0
 242 509 335 503 338 407 c 0
 338 362 310 332 273 307 c 1xf8
EndSplineSet
EndChar

StartChar: four
Encoding: 52 52 21
Width: 457
GlyphClass: 1
Flags: W
HStem: 122 54<89 255 318 394>
VStem: 255 63<0 122 176 409>
LayerCount: 2
Fore
SplineSet
394 122 m 1
 318 122 l 1
 318 0 l 1
 256 0 l 1
 256 122 l 1
 51 122 l 1
 51 174 l 1
 281 500 l 1
 318 500 l 1
 318 176 l 1
 394 176 l 1
 394 122 l 1
255 176 m 1
 255 409 l 1
 252 409 l 1
 89 176 l 1
 255 176 l 1
EndSplineSet
EndChar

StartChar: five
Encoding: 53 53 22
Width: 457
GlyphClass: 1
Flags: W
HStem: 0 36<155.364 248.61> 436 65<177 337.853>
VStem: 299 60<95.0092 231.883>
LayerCount: 2
Fore
SplineSet
299 160 m 0
 299 272 177 311 96 311 c 0
 89 311 86 314 86 320 c 0
 87 323 87 324 88 325 c 2
 169 501 l 1
 324 501 l 2
 335 501 346 508 355 523 c 1
 367 513 l 1
 338 446 l 1
 335 436 323 436 319 436 c 2
 177 436 l 1
 151 381 l 1
 223 367 278 353 316 305 c 0
 351 265 359 240 359 178 c 0
 359 84 283 0 158 0 c 0
 157 0 62 0 62 48 c 0
 62 57 63 80 96 80 c 0
 130 80 167 36 202 36 c 0
 247 36 299 72 299 160 c 0
EndSplineSet
EndChar

StartChar: six
Encoding: 54 54 23
Width: 457
GlyphClass: 1
Flags: W
HStem: 0 27<200.541 281.361> 289 40<178.596 278.211> 499 17<342.384 376>
VStem: 68 75<100.789 267.886> 318 74<80.2359 247.349>
LayerCount: 2
Fore
SplineSet
253 329 m 0
 273 329 392 323 392 172 c 0
 392 106 359 0 232 0 c 0
 199 0 68 13 68 226 c 0
 68 382 193 516 376 516 c 1
 378 499 l 1
 319 490 270 465 231 426 c 0
 196 391 173 349 163 300 c 1
 203 324 219 329 253 329 c 0
244 27 m 0
 268 27 318 40 318 144 c 0
 318 198 308 289 223 289 c 0
 184 289 166 276 156 267 c 0
 147 258 143 236 143 200 c 0
 143 166 149 27 244 27 c 0
EndSplineSet
EndChar

StartChar: seven
Encoding: 55 55 24
Width: 457
GlyphClass: 1
Flags: W
HStem: 375 21G<53 84.5> 436 61<99.6978 309>
VStem: 164 55<0 21.0483>
LayerCount: 2
Fore
SplineSet
155 436 m 2
 110 436 98 417 71 375 c 1
 53 385 l 1
 53 385 64 410 86 462 c 1
 99 497 l 1
 375 497 l 1
 375 483 l 1
 219 0 l 1
 164 0 l 1
 309 436 l 1
 155 436 l 2
EndSplineSet
EndChar

StartChar: eight
Encoding: 56 56 25
Width: 457
GlyphClass: 1
Flags: W
HStem: 0 26<188.926 279.125> 482 27<176.144 269.101>
VStem: 83 63<58.8732 188.141 360.278 450.748> 301 57<338.559 460.919> 312 62<53.7877 162.551>
LayerCount: 2
Fore
SplineSet
266 283 m 1xf0
 347 223 374 178 374 122 c 0xe8
 374 77 345 0 225 0 c 0
 134 0 83 57 83 119 c 0
 83 179 113 204 176 255 c 1
 110 312 86 339 86 392 c 0
 86 467 159 509 228 509 c 0
 326 509 358 450 358 403 c 0
 358 353 331 320 266 283 c 1xf0
236 300 m 1
 272 326 301 351 301 405 c 0xf0
 301 450 272 482 222 482 c 0
 159 482 149 432 149 412 c 0
 149 365 192 330 236 300 c 1
235 26 m 0
 273 26 312 49 312 105 c 0xe8
 312 157 275 183 202 236 c 1
 172 211 146 182 146 127 c 0
 146 122 147 26 235 26 c 0
EndSplineSet
EndChar

StartChar: nine
Encoding: 57 57 26
Width: 457
GlyphClass: 1
Flags: W
HStem: 0 23<85 122.379> 191 37<176.439 277.703> 490 27<174.719 253.931>
VStem: 63 74<266.788 434.666> 305 78<253.283 417.608>
LayerCount: 2
Fore
SplineSet
220 517 m 0
 310 517 383 439 383 310 c 0
 383 226 357 155 306 96 c 0
 250 31 176 0 85 0 c 1
 82 23 l 1
 221 48 289 158 301 224 c 1
 271 201 237 191 198 191 c 0
 97 191 63 275 63 338 c 0
 63 435 117 517 220 517 c 0
137 366 m 0
 137 320 147 228 228 228 c 0
 252 228 284 245 296 253 c 0
 302 259 305 268 305 280 c 2
 305 308 l 2
 305 402 285 490 212 490 c 0
 182 490 139 471 137 366 c 0
EndSplineSet
EndChar

StartChar: colon
Encoding: 58 58 27
Width: 228
GlyphClass: 1
Flags: W
VStem: 64 100
LayerCount: 2
Fore
SplineSet
116 315 m 1
 74 368 l 1
 119 419 l 2
 120 419 135 402 164 368 c 1
 116 315 l 1
105 39 m 1
 105 40 91 57 64 91 c 1
 109 143 l 2
 110 143 124 126 152 91 c 1
 105 39 l 1
EndSplineSet
EndChar

StartChar: semicolon
Encoding: 59 59 28
Width: 204
GlyphClass: 1
Flags: W
VStem: 86 66<69.9209 165.852>
LayerCount: 2
Fore
SplineSet
120 301 m 1
 78 352 l 1
 122 406 l 1
 166 354 l 1
 120 301 l 1
50 -50 m 1
 38 -37 l 1
 64 12 l 2
 72 28 86 55 86 98 c 0
 86 117 82 133 74 147 c 1
 128 208 l 1
 143 187 152 163 152 138 c 0
 152 106 132 72 128 66 c 2
 50 -50 l 1
EndSplineSet
EndChar

StartChar: less
Encoding: 60 60 29
Width: 416
GlyphClass: 1
Flags: W
VStem: 62 292
LayerCount: 2
Fore
SplineSet
354 14 m 1
 341 0 l 1
 62 256 l 1
 341 506 l 1
 353 490 l 1
 184 253 l 1
 354 14 l 1
EndSplineSet
EndChar

StartChar: equal
Encoding: 61 61 30
Width: 403
GlyphClass: 1
Flags: W
HStem: 137 41<72 332> 220 41<76 334>
VStem: 72 260
LayerCount: 2
Fore
SplineSet
332 137 m 1
 72 137 l 1
 72 178 l 1
 332 178 l 1
 332 137 l 1
334 220 m 1
 76 220 l 1
 76 261 l 1
 334 261 l 1
 334 220 l 1
EndSplineSet
EndChar

StartChar: greater
Encoding: 62 62 31
Width: 416
GlyphClass: 1
Flags: W
VStem: 62 292
LayerCount: 2
Fore
SplineSet
354 256 m 1
 75 0 l 1
 75 0 71 3 62 14 c 1
 232 253 l 1
 232 253 176 331 63 490 c 1
 75 506 l 1
 354 256 l 1
EndSplineSet
EndChar

StartChar: question
Encoding: 63 63 32
Width: 293
GlyphClass: 1
Flags: W
HStem: 343 71<74.0398 157.119>
VStem: 135 48<170.182 258.578>
LayerCount: 2
Fore
SplineSet
183 209 m 0
 183 194 183 190 189 171 c 1
 139 135 l 1
 137 148 135 163 135 180 c 0
 135 199 138 216 150 244 c 2
 163 272 l 1
 166 284 l 2
 167 287 167 290 167 294 c 0
 167 323 141 343 113 343 c 0
 102 343 80 339 57 314 c 1
 73 392 l 1
 98 407 125 414 154 414 c 0
 201 414 241 383 241 337 c 0
 241 337 241 304 219 277 c 2
 199 251 l 1
 184 233 183 217 183 209 c 0
139 0 m 1
 98 50 l 1
 143 103 l 1
 185 50 l 1
 139 0 l 1
EndSplineSet
EndChar

StartChar: bracketleft
Encoding: 91 91 33
Width: 384
GlyphClass: 1
Flags: W
HStem: -62 49<175 292> 550 48<175 292>
VStem: 96 79<-13 550>
LayerCount: 2
Fore
SplineSet
292 -62 m 1
 96 -62 l 1
 96 598 l 1
 292 598 l 1
 292 550 l 1
 175 550 l 1
 175 -13 l 1
 292 -13 l 1
 292 -62 l 1
EndSplineSet
EndChar

StartChar: backslash
Encoding: 92 92 34
Width: 239
GlyphClass: 1
Flags: W
VStem: 26 151
LayerCount: 2
Fore
SplineSet
143 44 m 1
 26 466 l 1
 61 466 l 1
 177 44 l 1
 143 44 l 1
EndSplineSet
EndChar

StartChar: bracketright
Encoding: 93 93 35
Width: 384
GlyphClass: 1
Flags: W
HStem: -62 49<88 205> 550 48<88 205>
VStem: 205 79<-13 550>
LayerCount: 2
Fore
SplineSet
88 -62 m 1
 88 -13 l 1
 205 -13 l 1
 205 550 l 1
 88 550 l 1
 88 598 l 1
 284 598 l 1
 284 -62 l 1
 88 -62 l 1
EndSplineSet
EndChar

StartChar: underscore
Encoding: 95 95 36
Width: 400
GlyphClass: 1
Flags: W
HStem: 5 42<25 375>
LayerCount: 2
Fore
SplineSet
375 5 m 1
 25 5 l 1
 25 47 l 1
 375 47 l 1
 375 5 l 1
EndSplineSet
EndChar

StartChar: braceleft
Encoding: 123 123 37
Width: 384
GlyphClass: 1
Flags: W
HStem: 263 15<82 115.703> 591 20G<284.5 302>
VStem: 170 72<-11.75 230.367 307.338 549.422>
LayerCount: 2
Fore
SplineSet
242 43 m 2
 242 24 248 -29 302 -55 c 1
 302 -73 l 1
 293 -70 267 -62 224 -42 c 0
 209 -34 170 -7 170 71 c 2
 170 187 l 2
 170 239 136 255 82 263 c 1
 82 278 l 1
 131 282 165 306 169 330 c 0
 170 336 170 343 170 350 c 2
 170 467 l 2
 170 484 174 556 224 580 c 0
 224 580 267 599 302 611 c 1
 302 592 l 1
 280 582 242 555 242 495 c 2
 242 372 l 2
 242 336 218 292 182 270 c 1
 214 251 242 204 242 166 c 2
 242 43 l 2
EndSplineSet
EndChar

StartChar: bar
Encoding: 124 124 38
Width: 92
GlyphClass: 1
Flags: W
HStem: 481 20G<32 60>
VStem: 32 28<1 501>
LayerCount: 2
Fore
SplineSet
60 1 m 1
 32 1 l 1
 32 501 l 1
 60 501 l 1
 60 1 l 1
EndSplineSet
EndChar

StartChar: braceright
Encoding: 125 125 39
Width: 384
GlyphClass: 1
Flags: W
HStem: -73 18<82 96.1602> 263 15<270.197 302> 591 20G<82 132>
VStem: 142 72<-10.8238 230.704 307.679 551.613>
LayerCount: 2
Fore
SplineSet
214 350 m 2
 214 318 224 290 302 278 c 1
 302 263 l 1
 229 255 214 222 214 187 c 2
 214 71 l 2
 214 52 210 -16 160 -42 c 0
 141 -50 83 -73 82 -73 c 1
 82 -55 l 1
 102 -45 142 -19 142 43 c 2
 142 166 l 2
 142 205 171 251 202 270 c 1
 169 289 142 335 142 372 c 2
 142 495 l 2
 142 529 126 571 82 592 c 1
 82 611 l 1
 182 578 191 560 201 535 c 0
 209 514 214 492 214 467 c 2
 214 350 l 2
EndSplineSet
EndChar

StartChar: uni205A
Encoding: 8282 8282 40
Width: 300
GlyphClass: 1
Flags: W
HStem: 88 100<64.8978 146.942> 361 100<65.5929 146.541>
VStem: 56 100<96.8382 179.162 370.456 452.5>
LayerCount: 2
Fore
SplineSet
107 88 m 0
 79 88 56 109 56 138 c 256
 56 165 77 188 107 188 c 0
 133 188 156 167 156 138 c 0
 156 111 134 88 107 88 c 0
107 361 m 0
 79 361 56 384 56 412 c 256
 56 440 77 461 107 461 c 0
 133 461 156 441 156 412 c 0
 156 386 135 361 107 361 c 0
EndSplineSet
EndChar

StartChar: uni2E22
Encoding: 11810 11810 41
Width: 384
GlyphClass: 1
Flags: W
HStem: 608 49<146 291>
VStem: 97 49<462 608>
LayerCount: 2
Fore
SplineSet
291 608 m 1
 146 608 l 1
 146 462 l 1
 97 462 l 1
 97 657 l 1
 291 657 l 1
 291 608 l 1
EndSplineSet
EndChar

StartChar: uni2E23
Encoding: 11811 11811 42
Width: 384
GlyphClass: 1
Flags: W
HStem: 608 49<87 232>
VStem: 232 49<462 608>
LayerCount: 2
Fore
SplineSet
281 657 m 1
 281 462 l 1
 232 462 l 1
 232 608 l 1
 87 608 l 1
 87 657 l 1
 281 657 l 1
EndSplineSet
EndChar

StartChar: uni2056
Encoding: 8278 8278 43
Width: 400
GlyphClass: 1
Flags: W
HStem: 91 100<191.898 273.942> 228 100<88.4557 170.5> 364 100<192.593 273.541>
VStem: 79 100<237.459 318.407> 183 100<99.8382 182.162 373.456 455.5>
LayerCount: 2
Fore
SplineSet
79 277 m 4
 79 305 102 328 130 328 c 260
 158 328 179 307 179 277 c 4
 179 251 159 228 130 228 c 4
 104 228 79 249 79 277 c 4
234 91 m 4
 206 91 183 112 183 141 c 260
 183 168 204 191 234 191 c 4
 260 191 283 170 283 141 c 4
 283 114 261 91 234 91 c 4
234 364 m 4
 206 364 183 387 183 415 c 260
 183 443 204 464 234 464 c 4
 260 464 283 444 283 415 c 4
 283 389 262 364 234 364 c 4
EndSplineSet
EndChar

StartChar: guillemotleft
Encoding: 171 171 44
Width: 512
GlyphClass: 1
Flags: W
HStem: 33 307<411 418>
LayerCount: 2
Fore
SplineSet
421 331 m 256
 421 320 336 209 319 187 c 1
 326 177 337 163 351 145 c 0
 370 122 422 60 422 42 c 0
 422 36 419 33 413 33 c 0
 408 33 342 102 310 129 c 0
 310 130 262 172 244 188 c 1
 269 210 l 2
 304 240 366 296 400 330 c 0
 407 337 411 340 413 340 c 0
 418 340 421 337 421 331 c 256
253 331 m 256
 253 320 168 209 151 187 c 1
 158 177 169 163 183 145 c 0
 202 122 254 60 254 42 c 0
 254 36 251 33 245 33 c 0
 240 33 174 102 142 129 c 0
 142 130 94 172 76 188 c 1
 101 210 l 2
 136 240 198 296 232 330 c 0
 239 337 243 340 245 340 c 0
 250 340 253 337 253 331 c 256
EndSplineSet
EndChar

StartChar: uni2058
Encoding: 8280 8280 45
Width: 500
GlyphClass: 1
Flags: W
HStem: 90 100<185.438 266.942> 227 100<81.8382 164.162 291.456 373.5> 363 100<186.117 266.541>
VStem: 73 100<236.058 318.102> 177 99<99.1171 181.162 372.281 454.5> 282 100<236.459 317.407>
LayerCount: 2
Fore
SplineSet
73 276 m 0
 73 304 94 327 123 327 c 256
 150 327 173 306 173 276 c 0
 173 250 152 227 123 227 c 0
 96 227 73 249 73 276 c 0
282 276 m 0
 282 304 305 327 333 327 c 256
 361 327 382 306 382 276 c 0
 382 250 362 227 333 227 c 0
 307 227 282 248 282 276 c 0
227 90 m 0
 199 90 177 112 177 140 c 256
 177 168 199 190 227 190 c 0
 253 190 276 169 276 140 c 0
 276 113 254 90 227 90 c 0
227 363 m 0
 198 363 177 386 177 414 c 256
 177 443 199 463 227 463 c 0
 253 463 276 443 276 414 c 0
 276 388 255 363 227 363 c 0
EndSplineSet
EndChar

StartChar: uni0324
Encoding: 804 804 46
Width: 256
GlyphClass: 4
Flags: W
HStem: -135 68<40.3303 103.67 144.33 207.67>
VStem: 38 68<-132.67 -69.3303> 142 68<-132.67 -69.3303>
AnchorPoint: "Below" 123 -67 mark 0
LayerCount: 2
Fore
SplineSet
176 -67 m 256
 195 -67 210 -82 210 -101 c 256
 210 -120 195 -135 176 -135 c 256
 157 -135 142 -120 142 -101 c 256
 142 -82 157 -67 176 -67 c 256
72 -67 m 256
 91 -67 106 -82 106 -101 c 256
 106 -120 91 -135 72 -135 c 256
 53 -135 38 -120 38 -101 c 256
 38 -82 53 -67 72 -67 c 256
EndSplineSet
EndChar

StartChar: guillemotright
Encoding: 187 187 47
Width: 512
GlyphClass: 1
Flags: W
HStem: 33 307<82 89 250 257>
LayerCount: 2
Fore
SplineSet
349 187 m 1
 303 248 247 322 247 331 c 0
 247 337 250 340 255 340 c 0
 260 340 337 261 399 210 c 1
 424 188 l 1
 314 89 314 89 289 64 c 0
 268 43 257 33 255 33 c 0
 249 33 246 36 246 42 c 0
 246 66 344 177 349 187 c 1
181 187 m 1
 135 248 79 322 79 331 c 0
 79 337 82 340 87 340 c 0
 92 340 169 261 231 210 c 1
 256 188 l 1
 146 89 146 89 121 64 c 0
 100 43 89 33 87 33 c 0
 81 33 78 36 78 42 c 0
 78 66 176 177 181 187 c 1
EndSplineSet
EndChar

StartChar: uni00B7
Encoding: 183 183 48
Width: 300
GlyphClass: 1
Flags: W
HStem: 226 102<80.1171 163.764>
VStem: 71 102<234.938 318.764>
LayerCount: 2
Fore
SplineSet
121 328 m 256
 151 328 173 306 173 276 c 256
 173 245 149 226 121 226 c 256
 90 226 71 249 71 276 c 256
 71 306 93 328 121 328 c 256
EndSplineSet
EndChar

StartChar: uni2014
Encoding: 8212 8212 49
Width: 908
GlyphClass: 1
Flags: W
HStem: 212 38<91 817>
LayerCount: 2
Fore
SplineSet
91 212 m 1
 91 250 l 1
 817 250 l 1
 817 212 l 1
 91 212 l 1
EndSplineSet
EndChar

StartChar: uni0640
Encoding: 1600 1600 50
Width: 150
GlyphClass: 1
Flags: W
HStem: 0 40<-90 240>
VStem: -90 330<0 40>
AnchorPoint: "Diacritic" 73 550 basechar 0
AnchorPoint: "Below" 72 -37 basechar 0
AnchorPoint: "curs" 237 0 entry 0
AnchorPoint: "curs" -86 0 exit 0
LayerCount: 2
Fore
SplineSet
240 0 m 1
 -90 0 l 1
 -90 40 l 1
 240 40 l 1
 240 0 l 1
EndSplineSet
EndChar

StartChar: ETX
Encoding: 3 3 51
Width: 746
GlyphClass: 1
Flags: W
HStem: 0 37<148 598> 561 36<148 598>
VStem: 111 37<37 561> 598 37<37 561>
LayerCount: 2
Fore
SplineSet
111 0 m 1
 111 597 l 1
 635 597 l 1
 635 0 l 1
 111 0 l 1
598 37 m 1
 598 561 l 1
 148 561 l 1
 148 37 l 1
 598 37 l 1
EndSplineSet
EndChar

StartChar: uni0712
Encoding: 1810 1810 52
Width: 757
Flags: W
HStem: 0 40<80 550> 308 153<80 238> 425 36<238 550>
VStem: 80 158<308 425> 550 107<40 425>
AnchorPoint: "Below" 362 -37 basechar 0
AnchorPoint: "Diacritic" 374 550 basechar 0
LayerCount: 2
Fore
SplineSet
657 0 m 1xb8
 80 0 l 1
 80 40 l 1
 550 40 l 1
 550 425 l 1
 238 425 l 1xb8
 238 308 l 1
 80 308 l 1
 80 461 l 1xd8
 657 461 l 1
 657 0 l 1xb8
EndSplineSet
Substitution2: "'medi' Medial Forms lookup 1-1" uni0712.med
Substitution2: "'fina' Terminal Forms lookup 2-1" uni0712.fin
Substitution2: "'init' Initial Forms lookup 0-1" uni0712.init
EndChar

StartChar: uni0713
Encoding: 1811 1811 53
Width: 760
Flags: W
HStem: -163 62<613.246 711.104> 0 40<188 246>
AnchorPoint: "Below" 256 -37 basechar 0
AnchorPoint: "Diacritic" 454 293 basechar 0
LayerCount: 2
Fore
SplineSet
680 -163 m 0
 585 -163 406 -89 326 0 c 1
 188 0 l 1
 188 40 l 1
 246 40 l 1
 246 40 206 170 124 429 c 1
 116 444 88 468 48 504 c 1
 214 504 l 1
 324 40 l 1
 418 0 l 1
 436 -15 629 -87 652 -92 c 0
 664 -95 678 -98 692 -101 c 1
 706 -106 712 -117 712 -132 c 0
 712 -152 702 -163 680 -163 c 0
EndSplineSet
Substitution2: "'medi' Medial Forms lookup 1-1" uni0713.med
Substitution2: "'fina' Terminal Forms lookup 2-1" uni0713.fin
Substitution2: "'init' Initial Forms lookup 0-1" uni0713.init
EndChar

StartChar: uni0712.init
Encoding: 1114113 -1 54
Width: 757
Flags: W
HStem: 0 40<-130 549> 308 153<80 237> 425 36<237 549>
VStem: 80 157<308 425> 549 107<40 425>
AnchorPoint: "Below" 362 -37 basechar 0
AnchorPoint: "Diacritic" 374 550 basechar 0
AnchorPoint: "curs" -129 0 exit 0
LayerCount: 2
Fore
SplineSet
656 0 m 1xb8
 -130 0 l 5
 -130 40 l 1
 549 40 l 1
 549 425 l 1
 237 425 l 1xb8
 237 424 237 424 237 308 c 1
 80 308 l 1
 80 461 l 1xd8
 656 461 l 1
 656 0 l 1xb8
EndSplineSet
EndChar

StartChar: uni0712.med
Encoding: 1114114 -1 55
Width: 757
Flags: W
HStem: 0 40<-130 549 656 887> 308 153<80 237> 425 36<237 549>
VStem: 80 157<308 425> 549 107<40 425>
AnchorPoint: "Below" 362 -37 basechar 0
AnchorPoint: "Diacritic" 374 550 basechar 0
AnchorPoint: "curs" -129 0 exit 0
AnchorPoint: "curs" 885 0 entry 0
LayerCount: 2
Fore
SplineSet
887 0 m 1xb8
 -130 0 l 1
 -130 40 l 1
 549 40 l 1
 549 425 l 1
 237 425 l 1xb8
 237 308 l 1
 80 308 l 1
 80 461 l 1xd8
 656 461 l 1
 656 40 l 1
 887 40 l 5
 887 0 l 1xb8
EndSplineSet
EndChar

StartChar: uni0712.fin
Encoding: 1114115 -1 56
Width: 757
Flags: W
HStem: 0 40<80 549 656 887> 308 153<80 237> 425 36<237 549>
VStem: 80 157<308 425> 549 107<40 425>
AnchorPoint: "Below" 362 -37 basechar 0
AnchorPoint: "Diacritic" 374 550 basechar 0
AnchorPoint: "curs" 885 0 entry 0
LayerCount: 2
Fore
SplineSet
887 0 m 1xb8
 80 0 l 1
 80 40 l 1
 549 40 l 1
 549 425 l 1
 237 425 l 1xb8
 237 308 l 1
 80 308 l 1
 80 461 l 1xd8
 656 461 l 1
 656 40 l 1
 887 40 l 5
 887 0 l 1xb8
EndSplineSet
EndChar

StartChar: uni0713.init
Encoding: 1114116 -1 57
Width: 760
Flags: W
HStem: -163 62<612.912 709.995> 0 40<-100 245>
AnchorPoint: "Below" 256 -37 basechar 0
AnchorPoint: "Diacritic" 454 293 basechar 0
AnchorPoint: "curs" -98 0 exit 0
LayerCount: 2
Fore
SplineSet
245 40 m 1
 245 40 203 170 122 429 c 2
 120 436 106 450 81 473 c 0
 74 480 62 490 46 504 c 1
 213 504 l 1
 323 40 l 1
 417 0 l 1
 425 -7 464 -23 534 -50 c 0
 600 -75 639 -89 651 -92 c 0
 662 -95 675 -98 690 -101 c 1
 704 -106 711 -117 711 -132 c 0
 711 -152 700 -163 679 -163 c 0
 630 -163 568 -146 494 -113 c 0
 419 -80 361 -42 322 0 c 1
 -100 0 l 1
 -100 40 l 1
 245 40 l 1
EndSplineSet
EndChar

StartChar: uni0713.med
Encoding: 1114117 -1 58
Width: 760
Flags: W
HStem: -163 62<610.284 711.995> 0 40<-100 247 325 345.603 415 810>
AnchorPoint: "Below" 256 -37 basechar 0
AnchorPoint: "Diacritic" 454 293 basechar 0
AnchorPoint: "curs" -98 0 exit 0
AnchorPoint: "curs" 808 0 entry 0
LayerCount: 2
Fore
SplineSet
810 0 m 1
 415 0 l 1
 510 -40 l 2
 572 -66 615 -82 637 -88 c 0
 659 -93 677 -98 692 -101 c 0
 706 -106 713 -117 713 -132 c 0
 713 -152 702 -163 681 -163 c 0
 635 -163 574 -148 498 -114 c 0
 422 -80 365 -42 326 0 c 1
 -100 0 l 1
 -100 40 l 1
 247 40 l 1
 244 43 203 173 124 429 c 0
 121 438 96 463 48 504 c 1
 48 504 48 504 215 504 c 1
 325 40 l 1
 810 40 l 1
 810 0 l 1
EndSplineSet
EndChar

StartChar: uni0713.fin
Encoding: 1114118 -1 59
Width: 760
Flags: W
HStem: -163 62<610.284 711.995> 0 40<228 247 325 345.603 415 890>
AnchorPoint: "Below" 256 -37 basechar 0
AnchorPoint: "Diacritic" 454 293 basechar 0
AnchorPoint: "curs" 888 0 entry 0
LayerCount: 2
Fore
SplineSet
890 0 m 1
 415 0 l 1
 510 -40 l 2
 572 -66 615 -82 637 -88 c 0
 659 -93 677 -98 692 -101 c 1
 706 -106 713 -117 713 -132 c 0
 713 -152 702 -163 681 -163 c 0
 635 -163 574 -148 498 -114 c 0
 422 -80 365 -42 326 0 c 1
 326 0 326 0 228 0 c 1
 228 40 l 1
 247 40 l 1
 244 43 203 173 124 429 c 0
 121 438 96 463 48 504 c 1
 48 504 48 504 215 504 c 1
 325 40 l 1
 890 40 l 1
 890 0 l 1
EndSplineSet
EndChar

StartChar: uni0710
Encoding: 1808 1808 60
Width: 800
Flags: W
HStem: 390 72<188 328>
VStem: 80 108<0 390>
AnchorPoint: "Below" 326 -37 basechar 0
AnchorPoint: "Diacritic" 261 550 basechar 0
LayerCount: 2
Fore
SplineSet
652 0 m 5
 528 0 l 5
 336 390 l 5
 188 390 l 5
 188 0 l 5
 80 0 l 5
 80 462 l 5
 328 462 l 5
 660 671 l 5
 720 605 l 5
 450 417 l 5
 652 0 l 5
EndSplineSet
Substitution2: "'medi' Medial Forms lookup 1-1" uni0710.med
Substitution2: "'init' Initial Forms lookup 0-1" uni0710.init
Substitution2: "'fina' Terminal Forms lookup 2-1" uni0710.fin
EndChar

StartChar: uni0715
Encoding: 1813 1813 61
Width: 648
Flags: W
HStem: 5 103<264.236 349.046> 309 153<80 238> 426 36<238 462>
VStem: 80 158<309 426> 255 104<14.1767 98.0461> 462 108<0 426>
AnchorPoint: "Below" 309 -37 basechar 0
AnchorPoint: "Diacritic" 360 550 basechar 0
LayerCount: 2
Fore
SplineSet
255 56 m 256x9c
 255 86 277 108 307 108 c 256
 338 108 359 83 359 56 c 256
 359 27 337 5 307 5 c 256
 278 5 255 26 255 56 c 256x9c
462 0 m 1
 462 426 l 1
 238 426 l 1xbc
 238 309 l 1
 80 309 l 1
 80 462 l 1xdc
 570 462 l 1xbc
 570 0 l 1
 462 0 l 1
EndSplineSet
Substitution2: "'fina' Terminal Forms lookup 2-1" uni0715.fin
EndChar

StartChar: uni0717
Encoding: 1815 1815 62
Width: 804
Flags: W
HStem: 0 21G<80 194 349 461 613 724> 419 42<194 349 461 613>
VStem: 80 114<0 419> 349 112<0 419> 613 111<0 419>
AnchorPoint: "Below" 409 -37 basechar 0
AnchorPoint: "Diacritic" 411 550 basechar 0
LayerCount: 2
Fore
SplineSet
80 0 m 1
 80 461 l 1
 724 461 l 1
 724 0 l 1
 613 0 l 1
 613 419 l 1
 461 419 l 1
 461 0 l 1
 349 0 l 1
 349 419 l 1
 194 419 l 1
 194 0 l 1
 80 0 l 1
EndSplineSet
Substitution2: "'medi' Medial Forms lookup 1-1" uni0717.med
Substitution2: "'fina' Terminal Forms lookup 2-1" uni0717.fin
Substitution2: "'init' Initial Forms lookup 0-1" uni0717.init
EndChar

StartChar: uni0718
Encoding: 1816 1816 63
Width: 612
Flags: W
HStem: 0 21G<249 378> 430 37<268.011 347.573>
VStem: 80 143<130.72 328.544> 402 130<130.834 337.305>
AnchorPoint: "Below" 311 -37 basechar 0
AnchorPoint: "Diacritic" 302 550 basechar 0
LayerCount: 2
Fore
SplineSet
303 467 m 0
 405 467 532 391 532 235 c 0
 532 102 442 0 314 0 c 0
 184 0 80 93 80 232 c 0
 80 301 107 358 160 405 c 0
 206 446 254 467 303 467 c 0
315 47 m 0
 397 47 402 175 402 236 c 0
 402 285 395 328 380 364 c 0
 361 408 336 430 304 430 c 0
 247 430 223 323 223 236 c 256
 223 187 230 146 244 111 c 0
 261 68 285 47 315 47 c 0
EndSplineSet
Substitution2: "'medi' Medial Forms lookup 1-1" uni0718.med
Substitution2: "'fina' Terminal Forms lookup 2-1" uni0718.fin
Substitution2: "'init' Initial Forms lookup 0-1" uni0718.init
EndChar

StartChar: uni0719
Encoding: 1817 1817 64
Width: 300
Flags: W
HStem: 0 21G<92 212>
VStem: 92 120<0 461>
AnchorPoint: "Below" 153 -37 basechar 0
AnchorPoint: "Diacritic" 152 549 basechar 0
LayerCount: 2
Fore
SplineSet
212 0 m 1
 92 0 l 1
 92 461 l 1
 212 461 l 1
 212 0 l 1
EndSplineSet
Substitution2: "'fina' Terminal Forms lookup 2-1" uni0719.fin
EndChar

StartChar: uni071A
Encoding: 1818 1818 65
Width: 524
Flags: W
HStem: 0 21G<80 161 330.575 454>
VStem: 80 81<0 365> 378 76<105 461>
AnchorPoint: "Below" 266 -37 basechar 0
AnchorPoint: "Diacritic" 267 549 basechar 0
LayerCount: 2
Fore
SplineSet
80 0 m 1
 80 461 l 1
 210 461 l 1
 373 105 l 1
 378 105 l 1
 378 461 l 1
 454 461 l 1
 454 0 l 1
 340 0 l 1
 168 365 l 1
 161 365 l 1
 161 0 l 1
 80 0 l 1
EndSplineSet
Substitution2: "'medi' Medial Forms lookup 1-1" uni071A.med
Substitution2: "'fina' Terminal Forms lookup 2-1" uni071A.fin
Substitution2: "'init' Initial Forms lookup 0-1" uni071A.init
EndChar

StartChar: uni071B
Encoding: 1819 1819 66
Width: 870
Flags: W
HStem: 0 40<205 253 389 640>
AnchorPoint: "Below" 116 -38 basechar 0
AnchorPoint: "Diacritic" 530 310 basechar 0
LayerCount: 2
Fore
SplineSet
791 40 m 1
 529 -209 l 1
 343 -209 l 1
 267 0 l 1
 205 0 l 1
 205 40 l 1
 253 40 l 1
 168 300 l 1
 128 438 103 523 23 575 c 1
 23 588 l 1
 223 588 l 1
 376 40 l 1
 791 40 l 1
640 0 m 1
 389 0 l 1
 389 -1 407 -58 443 -173 c 1
 456 -166 521 -108 640 0 c 1
EndSplineSet
Substitution2: "'medi' Medial Forms lookup 1-1" uni071B.med
Substitution2: "'fina' Terminal Forms lookup 2-1" uni071B.fin
Substitution2: "'init' Initial Forms lookup 0-1" uni071B.init
EndChar

StartChar: uni071D
Encoding: 1821 1821 67
Width: 520
Flags: W
HStem: 0 40<69 110 394 458>
AnchorPoint: "Below" 206 -37 basechar 0
AnchorPoint: "Diacritic" 197 549 basechar 0
LayerCount: 2
Fore
SplineSet
110 40 m 1
 160 402 l 1
 234 402 l 1
 394 40 l 1
 458 40 l 1
 458 0 l 1
 69 0 l 1
 69 40 l 1
 110 40 l 1
EndSplineSet
Substitution2: "'medi' Medial Forms lookup 1-1" uni071D.med
Substitution2: "'fina' Terminal Forms lookup 2-1" uni071D.fin
Substitution2: "'init' Initial Forms lookup 0-1" uni071D.init
EndChar

StartChar: uni071F
Encoding: 1823 1823 68
Width: 868
Flags: W
HStem: -14 83<216.511 355.312>
VStem: 80 84<134.175 374>
AnchorPoint: "Below" 279 -37 basechar 0
AnchorPoint: "Diacritic" 273 550 basechar 0
LayerCount: 2
Fore
SplineSet
280 69 m 0
 397 69 412 164 412 276 c 2
 412 374 l 1
 504 374 l 1
 844 -280 l 1
 844 -290 l 1
 796 -290 l 1
 486 192 l 1
 473 89 433 -14 279 -14 c 0
 219 -14 171 7 134 50 c 0
 98 94 80 141 80 192 c 2
 80 374 l 1
 164 374 l 1
 164 264 l 2
 164 134 203 69 280 69 c 0
EndSplineSet
Substitution2: "'medi' Medial Forms lookup 1-1" uni071F.med
Substitution2: "'fina' Terminal Forms lookup 2-1" uni071F.fin
Substitution2: "'init' Initial Forms lookup 0-1" uni071F.init
EndChar

StartChar: uni0720
Encoding: 1824 1824 69
Width: 598
Flags: W
HStem: 0 40<80 391>
AnchorPoint: "Below" 261 -37 basechar 0
AnchorPoint: "Diacritic" 445 501 basechar 0
LayerCount: 2
Fore
SplineSet
512 0 m 1
 80 0 l 1
 80 40 l 1
 391 40 l 1
 393 44 l 1
 158 517 l 1
 145 540 119 564 80 588 c 1
 274 588 l 1
 512 8 l 1
 512 0 l 1
EndSplineSet
Substitution2: "'medi' Medial Forms lookup 1-1" uni0720.med
Substitution2: "'fina' Terminal Forms lookup 2-1" uni0720.fin
Substitution2: "'init' Initial Forms lookup 0-1" uni0720.init
EndChar

StartChar: uni0721
Encoding: 1825 1825 70
Width: 805
Flags: W
HStem: 0 40<80 337 451 622> 311 150<80 233> 418 43<233 337 451 622>
VStem: 80 153<311 418> 337 114<40 416> 622 113<40 416>
AnchorPoint: "Below" 396 -37 basechar 0
AnchorPoint: "Diacritic" 399 550 basechar 0
LayerCount: 2
Fore
SplineSet
735 0 m 1xbc
 80 0 l 1
 80 40 l 1
 337 40 l 1
 337 418 l 1
 233 418 l 1xbc
 233 311 l 1
 80 311 l 1
 80 461 l 1xdc
 735 461 l 1
 735 0 l 1xbc
622 40 m 1
 622 416 l 1
 451 416 l 1
 451 40 l 1
 622 40 l 1
EndSplineSet
Substitution2: "'medi' Medial Forms lookup 1-1" uni0721.med
Substitution2: "'fina' Terminal Forms lookup 2-1" uni0721.fin
Substitution2: "'init' Initial Forms lookup 0-1" uni0721.init
EndChar

StartChar: uni0722
Encoding: 1826 1826 71
Width: 807
Flags: W
AnchorPoint: "Below" 66 -37 basechar 0
AnchorPoint: "Diacritic" 393 204 basechar 0
LayerCount: 2
Fore
SplineSet
80 65 m 0
 80 106 119 138 164 138 c 0
 191 138 222 124 255 96 c 0
 301 57 455 -69 457 -71 c 0
 610 -193 751 -275 925 -370 c 1
 924 -370 923 -375 920 -386 c 1
 575 -259 80 -76 80 65 c 0
EndSplineSet
Substitution2: "'medi' Medial Forms lookup 1-1" uni0722.med
Substitution2: "'fina' Terminal Forms lookup 2-1" uni0722.fin
Substitution2: "'init' Initial Forms lookup 0-1" uni0722.init
EndChar

StartChar: uni0723
Encoding: 1827 1827 72
Width: 881
Flags: W
HStem: 0 53<251.081 389.283 493.103 633.12> 386 78<215.118 319.222 565.12 668.421>
VStem: 80 90<141.562 332.641> 402 80<66.1516 251.683> 714 88<142.753 332.044>
AnchorPoint: "Below" 442 -37 basechar 0
AnchorPoint: "Diacritic" 444 549 basechar 0
LayerCount: 2
Fore
SplineSet
549 53 m 0
 669 53 714 153 714 241 c 0
 714 293 689 386 614 386 c 0
 523 386 482 202 482 122 c 0
 482 82 494 53 549 53 c 0
170 241 m 0
 170 218 176 53 335 53 c 0
 380 53 402 76 402 121 c 0
 402 192 363 386 270 386 c 0
 194 386 170 291 170 241 c 0
802 214 m 0
 802 145 715 0 649 0 c 2
 220 0 l 2
 187 0 156 22 130 68 c 0
 96 122 80 175 80 225 c 0
 80 275 91 320 113 360 c 0
 135 400 162 429 195 448 c 0
 215 459 258 464 276 464 c 0
 339 464 391 391 420 338 c 0
 427 323 434 309 442 294 c 1
 470 356 530 464 607 464 c 0
 642 464 670 459 689 448 c 0
 785 390 802 293 802 214 c 0
EndSplineSet
Substitution2: "'medi' Medial Forms lookup 1-1" uni0723.med
Substitution2: "'fina' Terminal Forms lookup 2-1" uni0723.fin
Substitution2: "'init' Initial Forms lookup 0-1" uni0723.init
EndChar

StartChar: uni0725
Encoding: 1829 1829 73
Width: 676
Flags: W
HStem: 0 40<80 433> 372 89<221.004 313>
AnchorPoint: "Below" 326 -37 basechar 0
AnchorPoint: "Diacritic" 327 549 basechar 0
LayerCount: 2
Fore
SplineSet
232 372 m 2
 226 372 221 366 221 362 c 0
 221 354 514 74 552 39 c 1
 596 0 l 1
 80 0 l 1
 80 40 l 1
 433 40 l 1
 160 312 l 2
 124 348 80 392 80 411 c 0
 80 444 108 461 163 461 c 2
 313 461 l 1
 313 372 l 1
 232 372 l 2
EndSplineSet
Substitution2: "'medi' Medial Forms lookup 1-1" uni0725.med
Substitution2: "'fina' Terminal Forms lookup 2-1" uni0725.fin
Substitution2: "'init' Initial Forms lookup 0-1" uni0725.init
EndChar

StartChar: uni0727
Encoding: 1831 1831 74
Width: 680
Flags: W
HStem: 0 40<80 171> 388 73<203.484 496.774>
VStem: 111 84<200.15 385.902> 509 92<257.161 381.054>
AnchorPoint: "Below" 351 -37 basechar 0
AnchorPoint: "Diacritic" 357 549 basechar 0
LayerCount: 2
Fore
SplineSet
531 461 m 2
 567 461 601 352 601 313 c 0
 601 270 581 227 540 182 c 0
 522 163 504 145 487 127 c 1
 479 127 l 1
 443 185 l 1
 487 251 509 293 509 312 c 0
 509 354 488 388 479 388 c 2
 224 388 l 2
 203 388 195 343 195 307 c 0
 195 281 246 64 263 34 c 1
 275 0 l 1
 80 0 l 1
 80 40 l 1
 171 40 l 1
 131 192 111 283 111 313 c 0
 111 379 118 461 184 461 c 1
 531 461 l 2
EndSplineSet
Substitution2: "'medi' Medial Forms lookup 1-1" uni0727.med
Substitution2: "'fina' Terminal Forms lookup 2-1" uni0727.fin
Substitution2: "'init' Initial Forms lookup 0-1" uni0727.init
EndChar

StartChar: uni0726
Encoding: 1830 1830 75
Width: 631
Flags: W
HStem: 0 41<92 426.803> 389 73<184.832 478.077>
VStem: 80 92<261.546 381.166> 487 84<204.954 312>
AnchorPoint: "Below" 326 -37 basechar 0
AnchorPoint: "Diacritic" 330 549 basechar 0
LayerCount: 2
Fore
SplineSet
497 462 m 2
 553 462 571 406 571 314 c 0
 571 284 571 284 500 0 c 1
 92 0 l 1
 92 41 l 1
 419 41 l 1
 436 72 487 280 487 312 c 0
 487 312 486 389 457 389 c 2
 202 389 l 2
 193 389 172 348 172 318 c 0
 172 298 181 280 238 186 c 1
 238 177 216 150 203 128 c 1
 195 128 l 1
 172 153 148 179 124 205 c 1
 95 242 80 278 80 314 c 0
 80 351 114 462 150 462 c 2
 497 462 l 2
EndSplineSet
Substitution2: "'medi' Medial Forms lookup 1-1" uni0726.med
Substitution2: "'fina' Terminal Forms lookup 2-1" uni0726.fin
Substitution2: "'init' Initial Forms lookup 0-1" uni0726.init
EndChar

StartChar: uni0728
Encoding: 1832 1832 76
Width: 710
Flags: W
HStem: -311 50<41 322.767> 0 40<80 248.218>
VStem: 405 124<-203.128 -95.0146>
AnchorPoint: "Below" 91 -38 basechar 0
AnchorPoint: "Diacritic" 388 549 basechar 0
LayerCount: 2
Fore
SplineSet
405 -155 m 0
 405 -63 274 0 80 0 c 1
 80 40 l 1
 271 40 l 1
 337 461 l 1
 436 461 l 1
 652 0 l 1
 305 0 l 1
 445 -42 l 1
 501 -69 529 -112 529 -171 c 0
 529 -227 433 -311 239 -311 c 1
 41 -311 l 1
 41 -261 l 1
 220 -261 l 2
 270 -261 405 -233 405 -155 c 0
EndSplineSet
Substitution2: "'medi' Medial Forms lookup 1-1" uni0728.med
Substitution2: "'init' Initial Forms lookup 0-1" uni0728.init
Substitution2: "'fina' Terminal Forms lookup 2-1" uni0728.fin
EndChar

StartChar: uni0729
Encoding: 1833 1833 77
Width: 610
Flags: W
HStem: 0 40<200 413> 420 41<200 413>
VStem: 80 120<40 420> 413 122<40 420>
AnchorPoint: "Below" 314 -37 basechar 0
AnchorPoint: "Diacritic" 315 549 basechar 0
LayerCount: 2
Fore
SplineSet
413 40 m 1
 413 420 l 1
 200 420 l 1
 200 40 l 1
 413 40 l 1
80 0 m 1
 80 461 l 1
 535 461 l 1
 535 0 l 1
 80 0 l 1
EndSplineSet
Substitution2: "'medi' Medial Forms lookup 1-1" uni0729.med
Substitution2: "'fina' Terminal Forms lookup 2-1" uni0729.fin
Substitution2: "'init' Initial Forms lookup 0-1" uni0729.init
EndChar

StartChar: uni072A
Encoding: 1834 1834 78
Width: 640
Flags: W
HStem: 0 21G<463 570> 310 152<81 239> 426 36<239 463> 550 99<292.018 374.352>
VStem: 81 158<310 426> 283 100<558.5 639.883> 463 107<0 426>
AnchorPoint: "Below" 329 -37 basechar 0
AnchorPoint: "Diacritic" 335 732 basechar 0
LayerCount: 2
Fore
SplineSet
463 0 m 1xbe
 463 426 l 1
 239 426 l 1xbe
 239 310 l 1
 81 310 l 1
 81 462 l 1xde
 570 462 l 1
 570 0 l 1
 463 0 l 1xbe
283 598 m 0
 283 625 304 649 333 649 c 256
 361 649 383 627 383 599 c 0
 383 570 360 550 334 550 c 0
 307 550 283 570 283 598 c 0
EndSplineSet
Substitution2: "'medi' Medial Forms lookup 1-1" uni072A.med
Substitution2: "'fina' Terminal Forms lookup 2-1" uni072A.fin
EndChar

StartChar: uni072B
Encoding: 1835 1835 79
Width: 708
Flags: W
VStem: 221 249<57.5701 235.21>
AnchorPoint: "Below" 346 -37 basechar 0
AnchorPoint: "Diacritic" 348 549 basechar 0
LayerCount: 2
Fore
SplineSet
420 274 m 1
 423 271 470 225 470 152 c 0
 470 134 469 -3 346 -3 c 0
 313 -3 221 9 221 154 c 0
 221 200 236 239 266 270 c 1
 74 470 l 1
 192 470 l 1
 346 315 l 1
 505 468 l 1
 628 468 l 1
 420 274 l 1
EndSplineSet
Substitution2: "'medi' Medial Forms lookup 1-1" uni072B.med
Substitution2: "'fina' Terminal Forms lookup 2-1" uni072B.fin
Substitution2: "'init' Initial Forms lookup 0-1" uni072B.init
EndChar

StartChar: uni072C
Encoding: 1836 1836 80
Width: 886
Flags: W
HStem: 0 63<145 484 533.147 635.444> 364.719 77.2807<406.232 630.912>
VStem: 706 100<140.196 299.571>
AnchorPoint: "Below" 426 -37 basechar 0
AnchorPoint: "Diacritic" 517 550 basechar 0
LayerCount: 2
Fore
SplineSet
806 222 m 0
 806 62 718 0 537 0 c 2
 80 0 l 1
 80 60 l 1
 121 201 196 306 304 377 c 0
 304 377 259 448 168 588 c 1
 275 588 l 1
 370 403 l 1
 399 419 440 442 544 442 c 0
 621 442 684 423 733 384 c 0
 782 345 806 291 806 222 c 0
568 64 m 0
 669 64 706 167 706 223 c 0
 706 271 688 307 653 331 c 0
 613.810526316 358.378947368 557.905484765 364.71933518 514.062348447 364.71933518 c 0
 476.236897507 364.71933518 447.389473684 360 446 360 c 0
 436 356 419 350 396 340 c 1
 533 63 l 1
 536 64 548 64 568 64 c 0
484 63 m 1
 442 134 l 2
 373 252 337 314 335 320 c 1
 305 320 145 150 145 63 c 1
 484 63 l 1
EndSplineSet
Substitution2: "'medi' Medial Forms lookup 1-1" uni072C.med
Substitution2: "'init' Initial Forms lookup 0-1" uni072C.init
Substitution2: "'fina' Terminal Forms lookup 2-1" uni072C.fin
EndChar

StartChar: uni0308
Encoding: 776 776 81
Width: 0
GlyphClass: 4
Flags: W
HStem: 598 100<53.8382 136.162 199.456 281.5>
VStem: 45 100<607.058 689.102> 190 100<607.459 688.407>
AnchorPoint: "Stacking" 167 598 mark 0
AnchorPoint: "Stacking" 167 800 basemark 0
AnchorPoint: "Diacritic" 167 598 mark 0
LayerCount: 2
Fore
SplineSet
45 647 m 0
 45 675 66 698 95 698 c 256
 122 698 145 677 145 647 c 0
 145 621 124 598 95 598 c 0
 68 598 45 620 45 647 c 0
190 647 m 0
 190 675 213 698 241 698 c 256
 269 698 290 677 290 647 c 0
 290 621 270 598 241 598 c 0
 215 598 190 619 190 647 c 0
EndSplineSet
EndChar

StartChar: uni0307
Encoding: 775 775 82
Width: 0
GlyphClass: 4
Flags: W
HStem: 598 100<35.4557 117.5>
VStem: 26 100<607.459 688.407>
AnchorPoint: "Stacking" 79 800 basemark 0
AnchorPoint: "Stacking" 77 598 mark 0
AnchorPoint: "Diacritic" 77 598 mark 0
LayerCount: 2
Fore
SplineSet
26 647 m 0
 26 675 49 698 77 698 c 256
 105 698 126 677 126 647 c 0
 126 621 106 598 77 598 c 0
 51 598 26 619 26 647 c 0
EndSplineSet
EndChar

StartChar: uni0323
Encoding: 803 803 83
Width: 0
GlyphClass: 4
Flags: W
HStem: -182 100<35.4557 117.5>
VStem: 26 100<-172.541 -91.5929>
AnchorPoint: "Below" 77 -82 mark 0
LayerCount: 2
Fore
SplineSet
26 -133 m 0
 26 -105 49 -82 77 -82 c 256
 105 -82 126 -103 126 -133 c 0
 126 -159 106 -182 77 -182 c 0
 51 -182 26 -161 26 -133 c 0
EndSplineSet
EndChar

StartChar: uni071F.med
Encoding: 1114119 -1 84
Width: 520
Flags: W
HStem: 0 40<-130 334 436 650> 359 105<253.814 325.538>
VStem: 334 103<40 345.531>
AnchorPoint: "Below" 279 -37 basechar 0
AnchorPoint: "Diacritic" 292 549 basechar 0
AnchorPoint: "curs" -129 0 exit 0
AnchorPoint: "curs" 649 0 entry 0
LayerCount: 2
Fore
SplineSet
650 0 m 1
 -130 0 l 1
 -130 40 l 1
 334 40 l 1
 334 312 l 2
 334 325 331 336 324 346 c 0
 317 354 308 359 297 359 c 0
 286 359 273 353 258 341 c 0
 244 329 225 306 202 271 c 1
 202 271 202 271 86 271 c 1
 82 276 l 1
 105 309 132 341 161 373 c 0
 190 404 216 427 237 442 c 0
 258 457 279 464 298 464 c 0
 339 464 373 450 398 424 c 0
 424 396 437 361 437 319 c 0
 437 226 436 133 436 40 c 1
 650 40 l 1
 650 0 l 1
EndSplineSet
EndChar

StartChar: uni0722.init
Encoding: 1114120 -1 85
Width: 466
Flags: W
HStem: 0 40<-130 186> 422 39<115 186 295 363>
VStem: 186 109<40 421>
AnchorPoint: "Below" 234 -37 basechar 0
AnchorPoint: "Diacritic" 239 549 basechar 0
AnchorPoint: "curs" -128 0 exit 0
LayerCount: 2
Fore
SplineSet
363 421 m 1
 295 421 l 1
 295 0 l 1
 -130 0 l 1
 -130 40 l 5
 186 40 l 1
 186 422 l 1
 115 422 l 1
 115 461 l 1
 363 461 l 1
 363 421 l 1
EndSplineSet
EndChar

StartChar: uni0710.med
Encoding: 1114121 -1 86
Width: 800
Flags: W
HStem: 0 40<-130 79 632 930> 390 72<188 328>
VStem: 79 109<40 390>
AnchorPoint: "Diacritic" 261 550 basechar 0
AnchorPoint: "Below" 326 -38 basechar 0
AnchorPoint: "curs" -125 0 exit 0
AnchorPoint: "curs" 924 0 entry 0
LayerCount: 2
Fore
SplineSet
632 40 m 1
 930 40 l 1
 930 0 l 1
 527 0 l 1
 335 390 l 1
 188 390 l 1
 188 0 l 1
 -130 0 l 1
 -130 40 l 1
 79 40 l 1
 79 462 l 1
 328 462 l 1
 660 671 l 1
 720 605 l 1
 450 417 l 1
 632 40 l 1
EndSplineSet
EndChar

StartChar: uni0717.init
Encoding: 1114122 -1 87
Width: 804
Flags: W
HStem: 0 40<-130 80> 418 42<194 349 461 613>
VStem: 80 114<40 418> 349 112<0 418> 613 111<0 418>
AnchorPoint: "Below" 409 -37 basechar 0
AnchorPoint: "Diacritic" 411 550 basechar 0
AnchorPoint: "curs" -125 0 exit 0
LayerCount: 2
Fore
SplineSet
-130 0 m 1
 -130 40 l 5
 80 40 l 1
 80 40 80 40 80 460 c 1
 724 460 l 1
 724 0 l 1
 613 0 l 1
 613 418 l 1
 461 418 l 1
 461 0 l 1
 349 0 l 1
 349 418 l 1
 194 418 l 1
 194 0 l 1
 -130 0 l 1
EndSplineSet
EndChar

StartChar: uni0717.med
Encoding: 1114123 -1 88
Width: 804
Flags: W
HStem: 0 40<-131 80 724 934> 418 42<194 349 461 613>
VStem: 80 114<40 418> 349 112<0 418> 613 111<40 418>
AnchorPoint: "Below" 409 -37 basechar 0
AnchorPoint: "Diacritic" 411 550 basechar 0
AnchorPoint: "curs" 931 0 entry 0
AnchorPoint: "curs" -125 0 exit 0
LayerCount: 2
Fore
SplineSet
724 40 m 1
 934 40 l 5
 934 0 l 1
 613 0 l 1
 613 418 l 1
 461 418 l 1
 461 0 l 1
 349 0 l 1
 349 418 l 1
 194 418 l 1
 194 0 l 1
 -131 0 l 1
 -131 40 l 1
 80 40 l 1
 80 40 80 40 80 460 c 1
 724 460 l 1
 724 40 l 1
EndSplineSet
EndChar

StartChar: uni0717.fin
Encoding: 1114124 -1 89
Width: 804
Flags: W
HStem: 0 40<724 934> 419 42<194 349 461 613>
VStem: 80 114<0 419> 349 112<0 419> 613 111<40 419>
AnchorPoint: "Below" 409 -38 basechar 0
AnchorPoint: "Diacritic" 411 550 basechar 0
AnchorPoint: "curs" 932 0 entry 0
LayerCount: 2
Fore
SplineSet
724 40 m 1
 934 40 l 5
 934 0 l 1
 613 0 l 1
 613 419 l 1
 461 419 l 1
 461 0 l 1
 349 0 l 1
 349 419 l 1
 194 419 l 1
 194 0 l 1
 80 0 l 1
 80 461 l 1
 724 461 l 1
 724 40 l 1
EndSplineSet
EndChar

StartChar: uni0718.med
Encoding: 1114125 -1 90
Width: 612
Flags: W
HStem: 0 40<-130 177 439 732> 430 37<264.858 347.375>
VStem: 79 143<130.431 329.945> 401 130<131.443 339.276>
AnchorPoint: "Below" 311 -37 basechar 0
AnchorPoint: "Diacritic" 302 550 basechar 0
AnchorPoint: "curs" 728 0 entry 0
AnchorPoint: "curs" -125 0 exit 0
LayerCount: 2
Fore
SplineSet
306 467 m 0
 401 467 531 391 531 240 c 0
 531 170 510 112 469 68 c 0
 460 57 450 48 439 40 c 1
 732 40 l 1
 732 0 l 1
 -130 0 l 1
 -130 40 l 5
 177 40 l 1
 141 65 79 124 79 233 c 0
 79 300 104 355 154 400 c 0
 203 445 254 467 306 467 c 0
222 236 m 0
 222 140 252 47 314 47 c 0
 372 47 401 109 401 236 c 0
 401 285 394 328 379 364 c 0
 360 408 335 430 303 430 c 0
 227 430 222 262 222 236 c 0
EndSplineSet
EndChar

StartChar: uni0718.fin
Encoding: 1114126 -1 91
Width: 612
Flags: W
HStem: 0 40<279.573 355.08 440 732> 430 37<267.57 346.823>
VStem: 80 143<129.431 325.886> 402 130<127.321 335.168>
AnchorPoint: "Below" 311 -37 basechar 0
AnchorPoint: "Diacritic" 302 550 basechar 0
AnchorPoint: "curs" 727 0 entry 0
LayerCount: 2
Fore
SplineSet
304 430 m 0
 231 430 223 271 223 236 c 0
 223 187 230 146 244 111 c 0
 261 68 285 46 315 46 c 0
 373 46 402 109 402 236 c 0
 402 285 395 328 380 364 c 0
 361 408 336 430 304 430 c 0
308 467 m 0
 390 467 532 405 532 229 c 0
 532 152 501 89 440 40 c 1
 732 40 l 5
 732 0 l 1
 314 0 l 2
 190 0 80 87 80 232 c 0
 80 369 203 467 308 467 c 0
EndSplineSet
EndChar

StartChar: uni0718.init
Encoding: 1114127 -1 92
Width: 612
Flags: W
HStem: 0 40<-130 178 278.008 353.527> 430 37<266.077 346.764>
VStem: 80 143<131.001 330.272> 402 130<131.29 337.727>
AnchorPoint: "Below" 311 -37 basechar 0
AnchorPoint: "Diacritic" 302 550 basechar 0
AnchorPoint: "curs" -125 0 exit 0
LayerCount: 2
Fore
SplineSet
315 46 m 0
 373 46 402 109 402 236 c 0
 402 285 395 328 380 364 c 0
 361 408 336 430 304 430 c 0
 277 430 257 410 244 370 c 0
 230 329 223 285 223 236 c 0
 223 187 230 146 244 111 c 0
 261 68 285 46 315 46 c 0
314 0 m 2
 -130 0 l 1
 -130 40 l 5
 178 40 l 1
 157 54 80 114 80 233 c 0
 80 300 105 355 154 400 c 0
 204 445 255 467 308 467 c 0
 405 467 532 388 532 240 c 0
 532 96 438 0 314 0 c 2
EndSplineSet
EndChar

StartChar: uni071A.init
Encoding: 1114128 -1 93
Width: 524
Flags: W
HStem: 0 40<-130 80>
VStem: 80 81<40 365> 378 76<105 461>
AnchorPoint: "Below" 266 -38 basechar 0
AnchorPoint: "Diacritic" 267 549 basechar 0
AnchorPoint: "curs" -125 0 exit 0
LayerCount: 2
Fore
SplineSet
-130 0 m 1
 -130 40 l 5
 80 40 l 1
 80 461 l 1
 210 461 l 1
 373 105 l 1
 378 105 l 1
 378 461 l 1
 454 461 l 1
 454 0 l 1
 341 0 l 1
 168 365 l 1
 161 365 l 1
 161 0 l 1
 -130 0 l 1
EndSplineSet
EndChar

StartChar: uni071A.med
Encoding: 1114129 -1 94
Width: 524
Flags: W
HStem: 0 40<-130 80 454 654>
VStem: 80 81<40 365> 378 76<105 461>
AnchorPoint: "Below" 266 -38 basechar 0
AnchorPoint: "Diacritic" 267 549 basechar 0
AnchorPoint: "curs" -128 0 exit 0
AnchorPoint: "curs" 652 0 entry 0
LayerCount: 2
Fore
SplineSet
340 0 m 2
 340 0 283 122 168 365 c 1
 161 365 l 1
 161 0 l 1
 -130 0 l 1
 -130 40 l 5
 80 40 l 1
 80 461 l 1
 210 461 l 1
 373 105 l 1
 378 105 l 1
 378 461 l 1
 454 461 l 1
 454 40 l 1
 654 40 l 1
 654 0 l 1
 340 0 l 2
EndSplineSet
EndChar

StartChar: uni071A.fin
Encoding: 1114130 -1 95
Width: 524
Flags: W
HStem: 0 40<454 654>
VStem: 80 81<0 365> 378 76<105 461>
AnchorPoint: "Below" 266 -38 basechar 0
AnchorPoint: "Diacritic" 267 549 basechar 0
AnchorPoint: "curs" 651 0 entry 0
LayerCount: 2
Fore
SplineSet
340 0 m 1
 168 365 l 1
 161 365 l 1
 161 0 l 1
 80 0 l 1
 80 461 l 1
 210 461 l 1
 373 105 l 1
 378 105 l 1
 378 461 l 1
 454 461 l 1
 454 40 l 1
 654 40 l 5
 654 0 l 1
 340 0 l 1
EndSplineSet
EndChar

StartChar: uni071B.init
Encoding: 1114131 -1 96
Width: 870
Flags: W
HStem: 0 40<-130 253 388 639>
AnchorPoint: "Below" 116 -38 basechar 0
AnchorPoint: "Diacritic" 530 310 basechar 0
AnchorPoint: "curs" -122 0 exit 0
LayerCount: 2
Fore
SplineSet
639 0 m 1
 388 0 l 1
 388 -1 407 -57 443 -172 c 1
 456 -165 520 -108 639 0 c 1
-130 0 m 1
 -130 40 l 5
 253 40 l 1
 168 300 l 1
 128 437 103 523 23 575 c 1
 23 588 l 1
 223 588 l 1
 376 40 l 1
 791 40 l 1
 529 -209 l 1
 343 -209 l 1
 267 0 l 1
 -130 0 l 1
EndSplineSet
EndChar

StartChar: uni071B.med
Encoding: 1114132 -1 97
Width: 870
Flags: W
HStem: 0 40<-130 253 389 640 754 1000>
AnchorPoint: "Below" 116 -38 basechar 0
AnchorPoint: "Diacritic" 530 310 basechar 0
AnchorPoint: "curs" 998 0 entry 0
AnchorPoint: "curs" -127 0 exit 0
LayerCount: 2
Fore
SplineSet
1000 0 m 1
 754 0 l 1
 529 -209 l 1
 343 -209 l 1
 267 0 l 1
 -130 0 l 1
 -130 40 l 1
 253 40 l 1
 176 275 131 421 130 425 c 0
 105 495 70 545 23 575 c 1
 23 588 l 1
 223 588 l 1
 376 40 l 1
 1000 40 l 5
 1000 0 l 1
640 0 m 1
 389 0 l 1
 389 -1 407 -57 443 -172 c 1
 456 -165 521 -108 640 0 c 1
EndSplineSet
EndChar

StartChar: uni071B.fin
Encoding: 1114133 -1 98
Width: 870
Flags: W
HStem: 0 40<204 253 389 640 749 1000>
AnchorPoint: "Below" 116 -38 basechar 0
AnchorPoint: "Diacritic" 530 310 basechar 0
AnchorPoint: "curs" 998 0 entry 0
LayerCount: 2
Fore
SplineSet
1000 0 m 1
 749 0 l 1
 529 -209 l 1
 343 -209 l 1
 267 0 l 1
 204 0 l 1
 204 40 l 5
 253 40 l 1
 176 275 131 421 130 425 c 0
 105 495 70 545 23 575 c 1
 23 588 l 1
 223 588 l 1
 376 40 l 1
 1000 40 l 1
 1000 0 l 1
640 0 m 1
 389 0 l 1
 389 -1 407 -57 443 -172 c 1
 456 -165 521 -108 640 0 c 1
EndSplineSet
EndChar

StartChar: uni071D.init
Encoding: 1114134 -1 99
Width: 520
Flags: W
HStem: 0 40<-130 110 394 458>
AnchorPoint: "Below" 206 -37 basechar 0
AnchorPoint: "Diacritic" 197 549 basechar 0
AnchorPoint: "curs" -127 0 exit 0
LayerCount: 2
Fore
SplineSet
110 40 m 1
 160 402 l 1
 234 402 l 1
 394 40 l 1
 458 40 l 5
 458 0 l 1
 -130 0 l 1
 -130 40 l 1
 110 40 l 1
EndSplineSet
EndChar

StartChar: uni071D.med
Encoding: 1114135 -1 100
Width: 520
Flags: W
HStem: 0 40<-130 110 394 650>
AnchorPoint: "Below" 206 -37 basechar 0
AnchorPoint: "Diacritic" 197 549 basechar 0
AnchorPoint: "curs" -128 0 exit 0
AnchorPoint: "curs" 647 0 entry 0
LayerCount: 2
Fore
SplineSet
110 40 m 1
 160 402 l 1
 234 402 l 1
 394 40 l 1
 650 40 l 5
 650 0 l 1
 -130 0 l 1
 -130 40 l 1
 110 40 l 1
EndSplineSet
EndChar

StartChar: uni071D.fin
Encoding: 1114136 -1 101
Width: 520
Flags: W
HStem: 0 40<69 110 394 650>
AnchorPoint: "Below" 206 -37 basechar 0
AnchorPoint: "Diacritic" 197 549 basechar 0
AnchorPoint: "curs" 648 0 entry 0
LayerCount: 2
Fore
SplineSet
110 40 m 1
 160 402 l 1
 234 402 l 1
 394 40 l 1
 650 40 l 1
 650 0 l 1
 69 0 l 1
 69 40 l 5
 110 40 l 1
EndSplineSet
EndChar

StartChar: uni071F.init
Encoding: 1114137 -1 102
Width: 520
Flags: W
HStem: 0 40<-130 334> 359 105<255.804 328.509>
VStem: 334 103<40 353.279>
AnchorPoint: "Below" 279 -37 basechar 0
AnchorPoint: "Diacritic" 292 549 basechar 0
AnchorPoint: "curs" -127 0 exit 0
LayerCount: 2
Fore
SplineSet
298 464 m 0
 382 464 437 404 437 319 c 2
 437 0 l 1
 -130 0 l 1
 -130 40 l 5
 334 40 l 1
 334 312 l 2
 334 314 334 359 297 359 c 0
 265 359 231 313 202 271 c 1
 86 271 l 1
 82 276 l 1
 123 333 189 409 237 442 c 0
 258 457 279 464 298 464 c 0
EndSplineSet
EndChar

StartChar: uni071F.fin
Encoding: 1114138 -1 103
Width: 868
Flags: W
HStem: -14 83<216.511 355.312> 0 40<698 998>
VStem: 80 84<134.175 374>
AnchorPoint: "Below" 279 -37 basechar 0
AnchorPoint: "Diacritic" 273 550 basechar 0
AnchorPoint: "curs" 992 0 entry 0
LayerCount: 2
Fore
SplineSet
280 69 m 0xa0
 397 69 412 164 412 276 c 2
 412 374 l 1
 504 374 l 1
 677 40 l 1
 998 40 l 5
 998 0 l 1
 698 0 l 1x60
 844 -280 l 1
 844 -290 l 1
 796 -290 l 1
 486 192 l 1
 473 89 433 -14 279 -14 c 0
 219 -14 171 7 134 50 c 0
 98 94 80 141 80 192 c 2
 80 374 l 1
 164 374 l 1
 164 264 l 2
 164 134 203 69 280 69 c 0xa0
EndSplineSet
EndChar

StartChar: uni0710.fin
Encoding: 1114139 -1 104
Width: 800
Flags: W
HStem: 0 40<632 930> 391 72<189 329>
VStem: 80 109<0 391>
AnchorPoint: "Below" 326 -37 basechar 0
AnchorPoint: "Diacritic" 261 550 basechar 0
AnchorPoint: "curs" 927 0 entry 0
LayerCount: 2
Fore
SplineSet
930 0 m 1
 529 0 l 1
 336 391 l 1
 189 391 l 1
 189 0 l 1
 80 0 l 1
 80 463 l 1
 329 463 l 1
 661 672 l 1
 721 606 l 1
 451 418 l 1
 632 40 l 1
 930 40 l 5
 930 0 l 1
EndSplineSet
EndChar

StartChar: uni200D
Encoding: 8205 8205 105
Width: 23
VWidth: 2048
Flags: W
HStem: -0 21G<0 23> 548 21G<-58 -23 46 81>
VStem: -0 23<0 591>
LayerCount: 2
Fore
SplineSet
81 564 m 1
 66 548 l 1
 23 591 l 1
 23 -0 l 1
 -0 -0 l 1
 -0 591 l 1
 -43 548 l 1
 -58 564 l 1
 -3 618 l 1
 -58 672 l 1
 -43 687 l 1
 12 633 l 1
 66 687 l 1
 81 672 l 1
 27 618 l 1
 81 564 l 1
EndSplineSet
EndChar

StartChar: uni200C
Encoding: 8204 8204 106
Width: 23
VWidth: 2048
Flags: W
HStem: 0 21G<0 23>
VStem: -0 23<0 686>
LayerCount: 2
Fore
SplineSet
23 0 m 1
 -0 0 l 1
 -0 686 l 1
 23 686 l 1
 23 0 l 1
EndSplineSet
EndChar

StartChar: uni0710.init
Encoding: 1114140 -1 107
Width: 800
Flags: W
HStem: 0 40<-130 80> 391 72<189 329>
VStem: 80 109<40 391>
AnchorPoint: "Below" 326 -38 basechar 0
AnchorPoint: "Diacritic" 261 549 basechar 0
AnchorPoint: "curs" -124 0 exit 0
LayerCount: 2
Fore
SplineSet
80 40 m 1
 80 463 l 1
 329 463 l 1
 661 672 l 1
 721 606 l 1
 451 418 l 1
 653 0 l 1
 528 0 l 1
 336 391 l 1
 189 391 l 1
 189 0 l 1
 -130 0 l 1
 -130 40 l 5
 80 40 l 1
EndSplineSet
EndChar

StartChar: uni0715.med
Encoding: 1114141 -1 108
Width: 648
Flags: W
HStem: 0 40<571 778> 5 103<264.236 349.046> 308 153<80 240> 425 36<240 464>
VStem: 80 160<308 425> 255 104<14.1767 98.0461> 464 107<40 425>
AnchorPoint: "Below" 309 -37 basechar 0
AnchorPoint: "Diacritic" 360 550 basechar 0
AnchorPoint: "curs" -1 0 exit 0
AnchorPoint: "curs" 776 0 entry 0
LayerCount: 2
Fore
SplineSet
255 56 m 256x4e
 255 86 277 108 307 108 c 256
 338 108 359 83 359 56 c 256
 359 27 337 5 307 5 c 256
 278 5 255 26 255 56 c 256x4e
80 461 m 1x2e
 571 461 l 1
 571 40 l 1
 778 40 l 5
 778 0 l 1
 464 0 l 1
 464 425 l 1
 240 425 l 1x9e
 240 308 l 1
 80 308 l 1
 80 461 l 1x2e
EndSplineSet
EndChar

StartChar: uni0715.fin
Encoding: 1114142 -1 109
Width: 648
Flags: W
HStem: 0 40<571 778> 5 103<264.236 349.046> 308 153<80 240> 425 36<240 464>
VStem: 80 160<308 425> 255 104<14.1767 98.0461> 464 107<40 425>
AnchorPoint: "Below" 309 -37 basechar 0
AnchorPoint: "Diacritic" 360 550 basechar 0
AnchorPoint: "curs" 776 0 entry 0
LayerCount: 2
Fore
SplineSet
255 56 m 256x4e
 255 86 277 108 307 108 c 256
 338 108 359 83 359 56 c 256
 359 27 337 5 307 5 c 256
 278 5 255 26 255 56 c 256x4e
80 461 m 1x2e
 571 461 l 1
 571 40 l 1
 778 40 l 5
 778 0 l 1
 464 0 l 1
 464 425 l 1
 240 425 l 1x9e
 240 308 l 1
 80 308 l 1
 80 461 l 1x2e
EndSplineSet
EndChar

StartChar: uni0719.med
Encoding: 1114143 -1 110
Width: 400
Flags: W
HStem: 0 40<260 427>
VStem: 140 120<40 461>
AnchorPoint: "Below" 199 -37 basechar 0
AnchorPoint: "Diacritic" 198 549 basechar 0
AnchorPoint: "curs" 0 0 exit 0
AnchorPoint: "curs" 425 0 entry 0
LayerCount: 2
Fore
SplineSet
427 0 m 1
 140 0 l 1
 140 461 l 1
 260 461 l 1
 260 40 l 1
 427 40 l 5
 427 0 l 1
EndSplineSet
EndChar

StartChar: uni0719.fin
Encoding: 1114144 -1 111
Width: 400
Flags: W
HStem: 0 40<260 427>
VStem: 140 120<40 461>
AnchorPoint: "Below" 199 -37 basechar 0
AnchorPoint: "Diacritic" 200 549 basechar 0
AnchorPoint: "curs" 421 0 entry 0
LayerCount: 2
Fore
SplineSet
427 0 m 1
 140 0 l 1
 140 461 l 1
 260 461 l 1
 260 40 l 1
 427 40 l 5
 427 0 l 1
EndSplineSet
EndChar

StartChar: uni0720.init
Encoding: 1114145 -1 112
Width: 598
Flags: W
HStem: 0 40<-30 391>
AnchorPoint: "Below" 261 -37 basechar 0
AnchorPoint: "Diacritic" 445 501 basechar 0
AnchorPoint: "curs" -26 0 exit 0
LayerCount: 2
Fore
SplineSet
512 0 m 1
 -30 0 l 5
 -30 40 l 5
 391 40 l 1
 393 47 l 1
 158 518 l 1
 145 541 119 565 80 589 c 1
 274 589 l 1
 512 9 l 1
 512 0 l 1
EndSplineSet
EndChar

StartChar: uni0720.med
Encoding: 1114146 -1 113
Width: 598
Flags: W
HStem: 0 40<-30 391 499 728>
AnchorPoint: "Below" 261 -37 basechar 0
AnchorPoint: "Diacritic" 445 501 basechar 0
AnchorPoint: "curs" -27 0 exit 0
AnchorPoint: "curs" 726 0 entry 0
LayerCount: 2
Fore
SplineSet
728 0 m 1
 277 0 117 0 -30 0 c 5
 -30 40 l 5
 391 40 l 1
 393 47 l 1
 158 518 l 1
 145 541 119 565 80 589 c 1
 274 589 l 1
 349 406 424 223 499 40 c 0
 502 40 530 40 728 40 c 1
 728 0 l 1
EndSplineSet
EndChar

StartChar: uni0720.fin
Encoding: 1114147 -1 114
Width: 598
Flags: W
HStem: 0 40<80 392 500 728>
AnchorPoint: "Below" 261 -37 basechar 0
AnchorPoint: "Diacritic" 445 501 basechar 0
AnchorPoint: "curs" 727 0 entry 0
LayerCount: 2
Fore
SplineSet
728 0 m 1
 430 0 227 0 80 0 c 1
 80 40 l 1
 392 40 l 1
 394 47 l 1
 159 518 l 1
 146 541 120 565 81 589 c 1
 275 589 l 1
 350 406 425 223 500 40 c 1
 728 40 l 1
 728 0 l 1
EndSplineSet
EndChar

StartChar: uni0721.init
Encoding: 1114148 -1 115
Width: 805
Flags: W
HStem: 0 40<-130 337 451 622> 312 150<80 233> 419 43<233 337 451 622>
VStem: 80 153<312 419> 337 114<40 419> 622 113<40 419>
AnchorPoint: "Below" 396 -37 basechar 0
AnchorPoint: "Diacritic" 412 549 basechar 0
AnchorPoint: "curs" -128 0 exit 0
LayerCount: 2
Fore
SplineSet
735 0 m 1xbc
 -130 0 l 1
 -130 40 l 1
 337 40 l 1
 337 419 l 1
 233 419 l 1xbc
 233 312 l 1
 80 312 l 1
 80 462 l 1xdc
 735 462 l 1
 735 0 l 1xbc
622 40 m 1
 622 419 l 1
 451 419 l 1
 451 40 l 1
 622 40 l 1
EndSplineSet
EndChar

StartChar: uni0721.med
Encoding: 1114149 -1 116
Width: 805
Flags: W
HStem: 0 40<-130 337 451 622 735 925> 312 150<80 233> 419 43<233 337 451 622>
VStem: 80 153<312 419> 337 114<40 419> 622 113<40 419>
AnchorPoint: "Below" 396 -37 basechar 0
AnchorPoint: "Diacritic" 412 549 basechar 0
AnchorPoint: "curs" -128 0 exit 0
AnchorPoint: "curs" 923 0 entry 0
LayerCount: 2
Fore
SplineSet
622 40 m 1xbc
 622 419 l 1
 451 419 l 1
 451 40 l 1
 622 40 l 1xbc
-130 0 m 5
 -130 40 l 5
 337 40 l 1
 337 419 l 1
 233 419 l 1xbc
 233 312 l 1
 80 312 l 1
 80 462 l 1xdc
 735 462 l 1
 735 40 l 1
 925 40 l 1
 925 0 l 1
 -130 0 l 5
EndSplineSet
EndChar

StartChar: uni0721.fin
Encoding: 1114150 -1 117
Width: 805
Flags: W
HStem: 0 40<80 337 451 622 735 925> 312 150<80 233> 419 43<233 337 451 622>
VStem: 80 153<312 419> 337 114<40 419> 622 113<40 419>
AnchorPoint: "Below" 396 -37 basechar 0
AnchorPoint: "Diacritic" 412 549 basechar 0
AnchorPoint: "curs" 923 0 entry 0
LayerCount: 2
Fore
SplineSet
80 0 m 1xbc
 80 40 l 1
 337 40 l 1
 337 419 l 1
 233 419 l 1xbc
 233 312 l 1
 80 312 l 1
 80 462 l 1xdc
 735 462 l 1
 735 40 l 1
 925 40 l 1
 925 0 l 1
 80 0 l 1xbc
622 40 m 1
 622 419 l 1
 451 419 l 1
 451 40 l 1
 622 40 l 1
EndSplineSet
EndChar

StartChar: uni0722.med
Encoding: 1114151 -1 118
Width: 466
Flags: W
HStem: 0 40<-116.5 182.5 291.5 582.5> 422 39<111.5 182.5 291.5 359.5>
VStem: 182.5 109<40 422>
AnchorPoint: "Below" 234 -37 basechar 0
AnchorPoint: "Diacritic" 234 549 basechar 0
AnchorPoint: "curs" -118 0 exit 0
AnchorPoint: "curs" 577 0 entry 0
LayerCount: 2
Fore
SplineSet
-116.5 0 m 1
 -116.5 40 l 1
 182.5 40 l 1
 182.5 422 l 1
 111.5 422 l 1
 111.5 461 l 1
 359.5 461 l 1
 359.5 422 l 1
 291.5 422 l 1
 291.5 40 l 1
 582.5 40 l 5
 582.5 0 l 1
 -116.5 0 l 1
EndSplineSet
EndChar

StartChar: uni0722.fin
Encoding: 1114152 -1 119
Width: 807
Flags: W
HStem: 0 40<431 717>
AnchorPoint: "Below" 96 -37 basechar 0
AnchorPoint: "Diacritic" 393 204 basechar 0
AnchorPoint: "curs" 710 0 entry 0
LayerCount: 2
Fore
SplineSet
228 138 m 0
 267.12537267 138 292.1675013 121.911028265 385 40 c 1
 717 40 l 1
 717 0 l 1
 431 0 l 1
 633 -162 715 -220 989 -370 c 1
 988 -370 987 -375 984 -386 c 1
 618 -251 144 -74 144 65 c 0
 144 106 183 138 228 138 c 0
EndSplineSet
EndChar

StartChar: uni0723.med
Encoding: 1114153 -1 120
Width: 880
Flags: W
HStem: 0 54<252.081 390.283 494.969 634.12> 0 40<-130 152 718 1010> 387 78<216.118 319.754 565.579 669.608>
VStem: 81 90<143.126 332.757> 403 80<67.2186 252.892> 715 88<143.332 333.044>
AnchorPoint: "Below" 442 -37 basechar 0
AnchorPoint: "Diacritic" 437 549 basechar 0
AnchorPoint: "curs" -126 0 exit 0
AnchorPoint: "curs" 1004 0 entry 0
LayerCount: 2
Fore
SplineSet
171 242 m 0xbc
 171 219 177 54 336 54 c 0
 381 54 403 77 403 122 c 0
 403 193 364 387 271 387 c 0
 195 387 171 292 171 242 c 0xbc
550 54 m 0
 670 54 715 154 715 242 c 0
 715 294 690 387 615 387 c 0
 524 387 483 203 483 124 c 0
 483 83 495 54 550 54 c 0
803 215 m 0
 803 211 802 135 718 40 c 1
 1010 40 l 1
 1010 0 l 1
 -130 0 l 1
 -130 40 l 1
 152 40 l 1x7c
 139 53 81 131 81 224 c 0
 81 344 145 421 196 449 c 0
 216 460 259 465 277 465 c 0
 362 465 420 343 443 295 c 1
 494 408 552 465 614 465 c 0
 647 465 672 460 690 449 c 0
 786 391 803 294 803 215 c 0
EndSplineSet
EndChar

StartChar: uni0723.init
Encoding: 1114154 -1 121
Width: 880
Flags: W
HStem: 0 54<251.081 389.283 493.969 633.12> 0 40<-130 151> 387 77<215.118 318.754 564.562 668.626>
VStem: 80 90<143.493 332.176> 402 80<67.2186 252.892> 714 88<143.253 332.544>
AnchorPoint: "Below" 442 -37 basechar 0
AnchorPoint: "Diacritic" 437 549 basechar 0
AnchorPoint: "curs" -126 0 exit 0
LayerCount: 2
Fore
SplineSet
549 54 m 0xbc
 669 54 714 154 714 242 c 0
 714 294 689 387 614 387 c 0
 523 387 482 203 482 124 c 0
 482 83 494 54 549 54 c 0xbc
170 242 m 0
 170 219 176 54 335 54 c 0
 380 54 402 77 402 122 c 0
 402 193 363 387 270 387 c 0
 194 387 170 292 170 242 c 0
802 214 m 0
 802 145 716 0 648 0 c 2
 -130 0 l 1
 -130 40 l 5
 151 40 l 1x7c
 130 61 80 137 80 224 c 0
 80 342 144 420 195 448 c 0
 215 459 258 464 276 464 c 0
 361 464 419 342 442 294 c 1
 493 407 550 464 614 464 c 0
 646 464 671 459 689 448 c 0
 785 390 802 293 802 214 c 0
EndSplineSet
EndChar

StartChar: uni0723.fin
Encoding: 1114155 -1 122
Width: 880
Flags: W
HStem: 0 54<250.081 388.283 492.969 632.12> 0 40<716 1010> 387 78<214.118 317.754 563.579 667.608>
VStem: 79 90<144.438 332.612> 401 80<67.2186 252.892> 713 88<143.332 333.044>
AnchorPoint: "Below" 442 -37 basechar 0
AnchorPoint: "Diacritic" 437 549 basechar 0
AnchorPoint: "curs" 1007 0 entry 0
LayerCount: 2
Fore
SplineSet
169 242 m 0xbc
 169 219 175 54 334 54 c 0
 379 54 401 77 401 122 c 0
 401 193 362 387 269 387 c 0
 193 387 169 292 169 242 c 0xbc
548 54 m 0
 668 54 713 154 713 242 c 0
 713 294 688 387 613 387 c 0
 522 387 481 203 481 124 c 0
 481 83 493 54 548 54 c 0
801 215 m 0
 801 211 800 135 716 40 c 1
 1010 40 l 5
 1010 0 l 1
 211 0 l 1x7c
 137 8 79 155 79 231 c 0
 79 332 135 417 194 449 c 0
 214 460 257 465 275 465 c 0
 360 465 418 343 441 295 c 1
 492 408 550 465 612 465 c 0
 645 465 670 460 688 449 c 0
 784 391 801 294 801 215 c 0
EndSplineSet
EndChar

StartChar: uni0725.init
Encoding: 1114156 -1 123
Width: 676
Flags: W
HStem: 0 40<-130 433> 372 89<221.004 313>
VStem: 80 141<359.5 427.5>
AnchorPoint: "Below" 326 -37 basechar 0
AnchorPoint: "Diacritic" 327 549 basechar 0
AnchorPoint: "curs" -126 0 exit 0
LayerCount: 2
Fore
SplineSet
232 372 m 2
 226 372 221 366 221 362 c 0
 221 357 539 51 552 39 c 2
 596 0 l 1
 -130 0 l 1
 -130 40 l 5
 433 40 l 1
 160 312 l 2
 130 342 80 392 80 411 c 0
 80 444 108 461 163 461 c 2
 313 461 l 1
 313 372 l 1
 232 372 l 2
EndSplineSet
EndChar

StartChar: uni0725.med
Encoding: 1114157 -1 124
Width: 676
Flags: W
HStem: 0 40<-130 433 536.006 806> 372 89<221.004 313>
VStem: 80 141<360 427.5>
AnchorPoint: "Below" 326 -37 basechar 0
AnchorPoint: "Diacritic" 327 549 basechar 0
AnchorPoint: "curs" -127 0 exit 0
AnchorPoint: "curs" 802 0 entry 0
LayerCount: 2
Fore
SplineSet
221 362 m 0
 221 358 381 199 552 40 c 1
 806 40 l 1
 806 0 l 1
 -130 0 l 1
 -130 40 l 5
 433 40 l 1
 80 392 80 392 80 411 c 0
 80 444 108 461 163 461 c 2
 313 461 l 1
 313 372 l 1
 230 372 l 2
 227 372 221 366 221 362 c 0
EndSplineSet
EndChar

StartChar: uni0725.fin
Encoding: 1114158 -1 125
Width: 676
Flags: W
HStem: 0 40<80 433 536.006 806> 372 89<221.004 313>
AnchorPoint: "Below" 326 -37 basechar 0
AnchorPoint: "Diacritic" 327 549 basechar 0
AnchorPoint: "curs" 802 0 entry 0
LayerCount: 2
Fore
SplineSet
221 362 m 0
 221 358 381 199 552 40 c 1
 806 40 l 1
 806 0 l 1
 80 0 l 1
 80 40 l 5
 433 40 l 1
 80 392 80 392 80 411 c 0
 80 444 108 461 163 461 c 2
 313 461 l 1
 313 372 l 1
 230 372 l 2
 227 372 221 366 221 362 c 0
EndSplineSet
EndChar

StartChar: uni0727.init
Encoding: 1114159 -1 126
Width: 680
Flags: W
HStem: 0 40<-130 171> 388 73<203.484 496.774>
VStem: 111 84<198.133 385.902> 509 92<257.292 381.054>
AnchorPoint: "Below" 351 -37 basechar 0
AnchorPoint: "Diacritic" 357 549 basechar 0
AnchorPoint: "curs" -125 0 exit 0
LayerCount: 2
Fore
SplineSet
531 461 m 2
 567 461 601 352 601 313 c 0
 601 268 581 224 540 182 c 0
 522 163 504 145 487 127 c 1
 479 127 l 1
 443 185 l 1
 487 251 509 293 509 312 c 0
 509 354 488 388 479 388 c 2
 224 388 l 2
 203 388 195 343 195 307 c 0
 195 281 246 64 263 34 c 1
 275 0 l 1
 -130 0 l 1
 -130 40 l 1
 171 40 l 1
 131 193 111 284 111 313 c 0
 111 379 118 461 184 461 c 1
 531 461 l 2
EndSplineSet
EndChar

StartChar: uni0727.med
Encoding: 1114160 -1 127
Width: 680
Flags: W
HStem: 0 40<-130 171 254.119 810> 389 73<203.484 496.774>
VStem: 111 84<200.696 386.902> 509 92<258.292 382.054>
AnchorPoint: "Below" 351 -37 basechar 0
AnchorPoint: "Diacritic" 357 549 basechar 0
AnchorPoint: "curs" -127 0 exit 0
AnchorPoint: "curs" 806 0 entry 0
LayerCount: 2
Fore
SplineSet
195 308 m 0
 195 282 243 78 261 40 c 5
 810 40 l 1
 810 0 l 1
 497 0 183 -0 -130 0 c 1
 -130 40 l 1
 171 40 l 1
 131 193 111 285 111 314 c 0
 111 380 118 462 184 462 c 1
 531 462 l 2
 567 462 601 353 601 314 c 0
 601 269 581 225 540 183 c 0
 522 164 504 146 487 128 c 1
 479 128 l 1
 443 186 l 1
 487 252 509 294 509 313 c 0
 509 355 488 389 479 389 c 2
 224 389 l 2
 203 389 195 344 195 308 c 0
EndSplineSet
EndChar

StartChar: uni0727.fin
Encoding: 1114161 -1 128
Width: 680
Flags: W
HStem: 0 40<81 171 254.119 810> 389 73<203.484 496.774>
VStem: 111 84<200.696 386.902> 509 92<258.292 382.054>
AnchorPoint: "Below" 351 -37 basechar 0
AnchorPoint: "Diacritic" 357 549 basechar 0
AnchorPoint: "curs" 806 0 entry 0
LayerCount: 2
Fore
SplineSet
195 308 m 0
 195 282 243 78 261 40 c 1
 810 40 l 1
 810 0 l 1
 81 0 l 1
 81 40 l 1
 171 40 l 1
 131 193 111 285 111 314 c 0
 111 380 118 462 184 462 c 1
 531 462 l 2
 567 462 601 353 601 314 c 0
 601 269 581 225 540 183 c 0
 522 164 504 146 487 128 c 1
 479 128 l 1
 443 186 l 1
 487 252 509 294 509 313 c 0
 509 355 488 389 479 389 c 2
 224 389 l 2
 203 389 195 344 195 308 c 0
EndSplineSet
EndChar

StartChar: uni0726.init
Encoding: 1114162 -1 129
Width: 631
Flags: W
HStem: 0 40<-130 424.981> 389 73<184.832 478.077>
VStem: 80 92<261.89 381.166> 487 84<204.954 312>
AnchorPoint: "Below" 326 -37 basechar 0
AnchorPoint: "Diacritic" 330 549 basechar 0
AnchorPoint: "curs" -126 0 exit 0
LayerCount: 2
Fore
SplineSet
497 462 m 2
 553 462 571 406 571 314 c 0
 571 284 571 284 500 0 c 1
 -130 0 l 1
 -130 40 l 1
 418 40 l 5
 436 74 487 280 487 312 c 0
 487 312 486 389 457 389 c 2
 202 389 l 2
 193 389 172 348 172 318 c 0
 172 299 194 255 238 186 c 0
 238.167385191 185.776819745 238.247603886 185.463359906 238.247603886 185.066741977 c 0
 238.247603886 178.354882868 215.274664172 147.828303663 203 128 c 1
 195 128 l 1
 172 153 148 179 124 205 c 1
 95 242 80 278 80 314 c 0
 80 351 114 462 150 462 c 2
 497 462 l 2
EndSplineSet
EndChar

StartChar: uni0726.med
Encoding: 1114163 -1 130
Width: 631
Flags: W
HStem: 0 40<-130 424.981 510 761> 389 73<185.229 478.077>
VStem: 80 92<258.755 381.128> 487 84<204.575 312>
AnchorPoint: "Below" 326 -37 basechar 0
AnchorPoint: "Diacritic" 330 549 basechar 0
AnchorPoint: "curs" -126 0 exit 0
AnchorPoint: "curs" 755 0 entry 0
LayerCount: 2
Fore
SplineSet
488 462 m 2
 533 462 571 448 571 314 c 0
 571 291 551 199 510 40 c 1
 761 40 l 5
 761 0 l 1
 -130 0 l 1
 -130 40 l 1
 418 40 l 1
 436 74 487 280 487 312 c 0
 487 312 486 389 457 389 c 2
 202 389 l 2
 194 389 172 351 172 314 c 0
 172 295 194 252 238 186 c 0
 238.167385191 185.776819745 238.247603886 185.466472995 238.247603886 185.075560159 c 0
 238.247603886 178.460246817 215.274664172 148.772508599 203 128 c 1
 195 128 l 1
 172 153 148 179 124 205 c 0
 95 242 80 278 80 314 c 0
 80 350 112 462 150 462 c 1
 488 462 l 2
EndSplineSet
EndChar

StartChar: uni0726.fin
Encoding: 1114164 -1 131
Width: 631
Flags: W
HStem: 0 40<93 426.516 510 761> 389 73<185.229 478.077>
VStem: 80 92<258.755 381.128> 487 84<203.34 312>
AnchorPoint: "Below" 326 -37 basechar 0
AnchorPoint: "Diacritic" 330 549 basechar 0
AnchorPoint: "curs" 754 0 entry 0
LayerCount: 2
Fore
SplineSet
488 462 m 2
 533 462 571 448 571 314 c 0
 571 291 551 199 510 40 c 1
 761 40 l 5
 761 0 l 1
 93 0 l 1
 93 40 l 1
 419 40 l 1
 435 70 487 280 487 312 c 0
 487 312 486 389 457 389 c 2
 202 389 l 2
 194 389 172 351 172 314 c 0
 172 295 194 252 238 186 c 0
 238.167385191 185.776819745 238.247603886 185.466472995 238.247603886 185.075560159 c 0
 238.247603886 178.460246817 215.274664172 148.772508599 203 128 c 1
 195 128 l 1
 172 153 148 179 124 205 c 0
 95 242 80 278 80 314 c 0
 80 350 112 462 150 462 c 1
 488 462 l 2
EndSplineSet
EndChar

StartChar: uni0728.init
Encoding: 1114165 -1 132
Width: 710
Flags: W
HStem: -310 50<40 321.767> 0 40<-130 246.773>
VStem: 404 124<-203.125 -93.8781>
AnchorPoint: "Below" 91 -38 basechar 0
AnchorPoint: "Diacritic" 388 549 basechar 0
AnchorPoint: "curs" -125 0 exit 0
LayerCount: 2
Fore
SplineSet
404 -154 m 0
 404 -61 272 0 79 0 c 2
 -130 0 l 1
 -130 40 l 1
 3 40 135 40 269 40 c 5
 336 462 l 1
 435 462 l 1
 652 0 l 1
 304 0 l 1
 437.636363636 -40.0909090909 443.710743802 -41.0020661157 443.986851991 -41.0020661157 c 0
 444 -41.0020661157 444 -41 444 -41 c 1
 500 -68 528 -111 528 -170 c 0
 528 -226 432 -310 238 -310 c 1
 40 -310 l 1
 40 -260 l 1
 219 -260 l 2
 259 -260 404 -236 404 -154 c 0
EndSplineSet
EndChar

StartChar: uni0728.med
Encoding: 1114166 -1 133
Width: 710
Flags: W
HStem: -310 50<42 323.767> 0 40<-130 248.773 624.868 840>
VStem: 406 124<-203.125 -93.8781>
AnchorPoint: "Below" 91 -38 basechar 0
AnchorPoint: "Diacritic" 388 549 basechar 0
AnchorPoint: "curs" -125 0 exit 0
AnchorPoint: "curs" 837 0 entry 0
LayerCount: 2
Fore
SplineSet
406 -154 m 0
 406 -61 274 0 81 0 c 2
 -130 0 l 1
 -130 40 l 1
 271 40 l 1
 338 462 l 1
 437 462 l 1
 566 186 632 45 634 40 c 1
 840 40 l 5
 840 0 l 1
 306 0 l 1
 440 -40 446 -41 446 -41 c 0
 502 -68 530 -111 530 -170 c 0
 530 -226 434 -310 240 -310 c 2
 42 -310 l 1
 42 -260 l 1
 221 -260 l 2
 261 -260 406 -236 406 -154 c 0
EndSplineSet
EndChar

StartChar: uni0728.fin
Encoding: 1114167 -1 134
Width: 710
Flags: W
HStem: -310 50<43 324.767> 0 40<82 255.076 620.621 840>
VStem: 407 124<-203.125 -94.3638>
AnchorPoint: "Below" 91 -38 basechar 0
AnchorPoint: "Diacritic" 388 549 basechar 0
AnchorPoint: "curs" 837 0 entry 0
LayerCount: 2
Fore
SplineSet
407 -154 m 0
 407 -34 204 0 126 0 c 2
 82 0 l 1
 82 40 l 1
 272 40 l 1
 339 462 l 1
 438 462 l 1
 563 181 627 40 630 40 c 2
 840 40 l 5
 840 0 l 1
 307 -0 l 1
 308 -0 317 -2 447 -41 c 1
 503 -68 531 -111 531 -170 c 0
 531 -226 435 -310 241 -310 c 2
 43 -310 l 1
 43 -260 l 1
 222 -260 l 2
 262 -260 407 -236 407 -154 c 0
EndSplineSet
EndChar

StartChar: uni0729.init
Encoding: 1114168 -1 135
Width: 610
Flags: W
HStem: 0 40<-130 79 200 413> 420 41<200 413>
VStem: 79 121<40 420> 413 122<40 420>
AnchorPoint: "Below" 314 -37 basechar 0
AnchorPoint: "Diacritic" 315 549 basechar 0
AnchorPoint: "curs" -126 0 exit 0
LayerCount: 2
Fore
SplineSet
-130 0 m 1
 -130 40 l 1
 79 40 l 1
 79 461 l 1
 535 461 l 1
 535 0 l 1
 -130 0 l 1
413 40 m 1
 413 420 l 1
 200 420 l 1
 200 40 l 1
 413 40 l 1
EndSplineSet
EndChar

StartChar: uni0729.med
Encoding: 1114169 -1 136
Width: 610
Flags: W
HStem: 0 40<-130 79 200 413 535 740> 420 41<200 413>
VStem: 79 121<40 420> 413 122<40 420>
AnchorPoint: "Below" 314 -37 basechar 0
AnchorPoint: "Diacritic" 315 549 basechar 0
AnchorPoint: "curs" -126 0 exit 0
AnchorPoint: "curs" 736 0 entry 0
LayerCount: 2
Fore
SplineSet
740 0 m 1
 -130 0 l 1
 -130 40 l 1
 79 40 l 1
 79 461 l 1
 535 461 l 1
 535 40 l 1
 740 40 l 1
 740 0 l 1
413 40 m 1
 413 420 l 1
 200 420 l 1
 200 40 l 1
 413 40 l 1
EndSplineSet
EndChar

StartChar: uni0729.fin
Encoding: 1114170 -1 137
Width: 610
Flags: W
HStem: 0 40<202 415 537 740> 420 41<202 415>
VStem: 79 123<40 420> 415 122<40 420>
AnchorPoint: "Below" 314 -37 basechar 0
AnchorPoint: "Diacritic" 315 549 basechar 0
AnchorPoint: "curs" 735 0 entry 0
LayerCount: 2
Fore
SplineSet
740 0 m 1
 79 0 l 1
 79 461 l 1
 537 461 l 1
 537 40 l 1
 740 40 l 5
 740 0 l 1
415 40 m 1
 415 420 l 1
 202 420 l 1
 202 40 l 1
 415 40 l 1
EndSplineSet
EndChar

StartChar: uni072A.med
Encoding: 1114171 -1 138
Width: 640
Flags: W
HStem: 0 40<572 770> 308 154<81 240> 425 37<240 464> 550 99<292.965 375.299>
VStem: 81 159<308 425> 284 100<558.5 639.883> 464 108<40 425>
AnchorPoint: "Below" 334 -37 basechar 0
AnchorPoint: "Diacritic" 335 732 basechar 0
AnchorPoint: "curs" 766 0 entry 0
AnchorPoint: "curs" 0 0 exit 0
LayerCount: 2
Fore
SplineSet
284 598 m 0x9e
 284 625 305 649 334 649 c 256
 362 649 384 627 384 599 c 0
 384 570 361 550 334 550 c 0
 308 550 284 570 284 598 c 0x9e
81 462 m 1xde
 572 462 l 1
 572 40 l 1
 770 40 l 5
 770 0 l 1
 464 0 l 1
 464 425 l 1
 240 425 l 1xbe
 240 308 l 1
 81 308 l 1
 81 462 l 1xde
EndSplineSet
EndChar

StartChar: uni072A.fin
Encoding: 1114172 -1 139
Width: 640
Flags: W
HStem: 0 40<572 770> 308 154<81 240> 425 37<240 464> 550 99<292.965 375.299>
VStem: 81 159<308 425> 284 100<558.5 639.883> 464 108<40 425>
AnchorPoint: "Below" 334 -37 basechar 0
AnchorPoint: "Diacritic" 331 732 basechar 0
AnchorPoint: "curs" 767 0 entry 0
LayerCount: 2
Fore
SplineSet
81 462 m 1xde
 572 462 l 1
 572 40 l 1
 770 40 l 1
 770 0 l 1
 464 0 l 1
 464 425 l 1
 240 425 l 1xbe
 240 308 l 1
 81 308 l 1
 81 462 l 1xde
284 598 m 0
 284 625 305 649 334 649 c 0
 362 649 384 627 384 599 c 0
 384 570 361 550 334 550 c 0
 308 550 284 570 284 598 c 0
EndSplineSet
EndChar

StartChar: uni072B.init
Encoding: 1114173 -1 140
Width: 708
Flags: W
HStem: 0 40<-130 252>
VStem: 220 250<59.6442 233.917>
AnchorPoint: "Below" 346 -37 basechar 0
AnchorPoint: "Diacritic" 348 549 basechar 0
AnchorPoint: "curs" -126 0 exit 0
LayerCount: 2
Fore
SplineSet
470 151 m 0
 470 34 402 -5 345 -5 c 0
 334 -5 323 -3 313 -0 c 0
 313 -0 287 0 -130 0 c 1
 -130 40 l 5
 252 40 l 1
 235 64 220 105 220 149 c 0
 220 190 232 234 266 269 c 1
 74 469 l 1
 192 469 l 1
 346 314 l 1
 505 467 l 1
 628 467 l 1
 420 273 l 1
 423 270 470 224 470 151 c 0
EndSplineSet
EndChar

StartChar: uni072B.med
Encoding: 1114174 -1 141
Width: 708
Flags: W
HStem: 0 40<-129 251 438 838>
VStem: 219.852 250.148<56.2422 233.769>
AnchorPoint: "Below" 346 -37 basechar 0
AnchorPoint: "Diacritic" 348 549 basechar 0
AnchorPoint: "curs" -126 0 exit 0
AnchorPoint: "curs" 833 0 entry 0
LayerCount: 2
Fore
SplineSet
420 273 m 1
 460 235 470 175 470 151 c 0
 470 104 459 67 438 40 c 1
 444 41 523 41 550 41 c 0
 615 41 709 40 838 40 c 5
 838 0 l 1
 767.714285714 0 706.408163265 0.0816326530612 652.16909621 0.0816326530612 c 0
 516.571428571 0.0816326530612 425.142857143 -0.428571428571 348 -4 c 0
 345.520259177 -4.17712434447 343.103264422 -4.26012958873 340.754572661 -4.26012958873 c 0
 329.843134833 -4.26012958873 320.4058809 -2.4686269666 313 0 c 1
 -129 0 l 1
 -129 40 l 1
 251 40 l 1
 233.590961855 64.0654350831 219.852377453 104.647912014 219.852377453 148.189014841 c 0
 219.852377453 189.684057248 232.330106824 233.866198425 266 269 c 1
 74 469 l 1
 192 469 l 1
 346 314 l 1
 505 467 l 1
 628 467 l 1
 420 273 l 1
EndSplineSet
EndChar

StartChar: uni072B.fin
Encoding: 1114175 -1 142
Width: 708
Flags: W
HStem: 0.444444 39.5556<438 838>
VStem: 220.246 249.754<57.7979 235.579>
AnchorPoint: "Below" 346 -37 basechar 0
AnchorPoint: "Diacritic" 348 549 basechar 0
AnchorPoint: "curs" 834 0 entry 0
LayerCount: 2
Fore
SplineSet
420 274 m 1
 460 236 470 176 470 152 c 0
 470 105 459 67 438 40 c 1
 441 40 475 40 838 40 c 5
 838 0 l 1
 624 0 489.555555556 0.444444444444 422.814814815 0.444444444444 c 0
 389.444444444 0.444444444444 373 0.333333333333 372 0 c 0
 369.816784043 -0.363869326103 358.365506033 -2.71375194939 342.801064453 -2.71375194939 c 0
 315.590695232 -2.71375194939 275.809096282 4.4682902401 251 42 c 0
 232.681845698 70.7149445815 220.246317144 110.214703034 220.246317144 151.033971304 c 0
 220.246317144 192.663671477 233.180541341 235.665797096 266 270 c 1
 74 470 l 1
 192 470 l 1
 346 315 l 1
 505 468 l 1
 628 468 l 1
 420 274 l 1
EndSplineSet
EndChar

StartChar: uni072C.init
Encoding: 1114176 -1 143
Width: 886
Flags: W
HStem: 0 64<145 484 533 635.827> 0 40<-130 80> 366 76<406.232 630.912>
VStem: 706 100<140.504 301.397>
AnchorPoint: "Below" 426 -37 basechar 0
AnchorPoint: "Diacritic" 517 550 basechar 0
AnchorPoint: "curs" -124 0 exit 0
LayerCount: 2
Fore
SplineSet
484 64 m 1xb0
 411 188 l 2
 362 271 337 315 335 321 c 1
 305 321 145 151 145 64 c 1
 484 64 l 1xb0
568 64 m 0
 669 64 706 168 706 224 c 0
 706 272 688 308 653 332 c 0
 614 359 559 366 516 366 c 0
 477 366 447 360 446 360 c 0
 436 358 419 351 396 341 c 1
 533 64 l 1
 552 64 548 64 568 64 c 0
806 222 m 0
 806 62 718 0 537 0 c 2xb0
 -130 0 l 1
 -130 40 l 1
 80 40 l 1x70
 80 60 l 1
 115 195 189 300 304 377 c 0
 304 377 259 448 168 588 c 1
 275 588 l 1
 370 403 l 1
 399 419 440 442 544 442 c 0
 621 442 684 423 733 384 c 0
 782 345 806 291 806 222 c 0
EndSplineSet
EndChar

StartChar: uni072C.med
Encoding: 1114177 -1 144
Width: 886
Flags: W
HStem: 0 64<145 484 533.147 635.444> 0 40<-130 80 723 1015> 365.567 76.4326<404.179 631.318>
VStem: 706 100<140.623 301.397>
AnchorPoint: "Below" 426 -37 basechar 0
AnchorPoint: "Diacritic" 517 550 basechar 0
AnchorPoint: "curs" -126 0 exit 0
AnchorPoint: "curs" 1012 0 entry 0
LayerCount: 2
Fore
SplineSet
484 64 m 1xb0
 411 188 l 2
 362 271 337 315 335 321 c 1
 305 321 145 151 145 64 c 1
 484 64 l 1xb0
568 65 m 0
 669 65 706 168 706 224 c 0
 706 272 688 308 653 332 c 0
 614.271222254 359.057091302 559.217569844 365.567357594 515.613510016 365.567357594 c 0
 477.028134682 365.567357594 447.408406394 360.469468798 446 360 c 0
 436 358 419 351 396 341 c 1
 533 64 l 1
 536 65 548 65 568 65 c 0
806 222 m 0
 806 94 749 57 723 40 c 1
 1015 40 l 1
 1015 0 l 1
 740 0 386 0 -130 0 c 1
 -130 40 l 1
 80 40 l 1x70
 80 60 l 1
 119 199 194 305 304 377 c 0
 304 377 259 448 168 588 c 1
 275 588 l 1
 370 403 l 1
 388 413 399 419 404 420 c 0
 455 435 502 442 544 442 c 0
 621 442 684 423 733 384 c 0
 782 345 806 291 806 222 c 0
EndSplineSet
EndChar

StartChar: uni072C.fin
Encoding: 1114178 -1 145
Width: 886
Flags: W
HStem: 0 64<145 484 533.147 635.444> 0 40<723 1015> 365.567 77.4326<404.179 630.917>
VStem: 706 100<139.375 300.393>
AnchorPoint: "Below" 426 -37 basechar 0
AnchorPoint: "Diacritic" 517 550 basechar 0
AnchorPoint: "curs" 1011 0 entry 0
LayerCount: 2
Fore
SplineSet
484 64 m 1xb0
 411 188 l 2
 362 271 337 315 335 321 c 1
 305 321 145 151 145 64 c 1
 484 64 l 1xb0
568 65 m 0
 669 65 706 168 706 224 c 0
 706 272 688 308 653 332 c 0
 614.271222254 359.057091302 559.217569844 365.567357594 515.613510016 365.567357594 c 0
 477.028134682 365.567357594 447.408406394 360.469468798 446 360 c 0
 436 358 419 351 396 341 c 1
 533 64 l 1
 536 65 548 65 568 65 c 0
544 443 m 0
 589 443 806 432 806 222 c 0
 806 137 778 75 723 40 c 1
 727 40 760 40 1015 40 c 5
 1015 0 l 1
 894 0 596 0 80 0 c 1x70
 80 61 l 1
 121 198 195 303 304 378 c 0
 304 378 259 449 168 589 c 1
 275 589 l 1
 370 404 l 1
 388 414 399 420 404 421 c 0
 455 436 502 443 544 443 c 0
EndSplineSet
EndChar

StartChar: uni0716
Encoding: 1814 1814 146
Width: 648
Flags: W
HStem: 0 21G<462 570> 309 153<80 238> 426 36<238 462>
VStem: 80 158<309 426> 462 108<0 426>
AnchorPoint: "Below" 355 -37 basechar 0
AnchorPoint: "Diacritic" 360 550 basechar 0
LayerCount: 2
Fore
SplineSet
462 0 m 1xb8
 462 426 l 1
 238 426 l 1xb8
 238 309 l 1
 80 309 l 1
 80 462 l 1xd8
 570 462 l 1
 570 0 l 1
 462 0 l 1xb8
EndSplineSet
EndChar

StartChar: uni0716.med
Encoding: 1114179 -1 147
Width: 648
Flags: W
HStem: 0 40<571 778> 308 153<80 240> 425 36<240 464>
VStem: 80 160<308 425> 464 107<40 425>
AnchorPoint: "Below" 355 -37 basechar 0
AnchorPoint: "Diacritic" 360 550 basechar 0
AnchorPoint: "curs" -1 0 exit 0
AnchorPoint: "curs" 776 0 entry 0
LayerCount: 2
Fore
SplineSet
80 461 m 1xd8
 571 461 l 1
 571 40 l 1
 778 40 l 5
 778 0 l 1
 464 0 l 1
 464 425 l 1
 240 425 l 1xb8
 240 308 l 1
 80 308 l 1
 80 461 l 1xd8
EndSplineSet
EndChar

StartChar: uni0716.fin
Encoding: 1114180 -1 148
Width: 648
Flags: W
HStem: 0 40<571 778> 308 153<80 240> 425 36<240 464>
VStem: 80 160<308 425> 464 107<40 425>
AnchorPoint: "Below" 355 -37 basechar 0
AnchorPoint: "Diacritic" 360 550 basechar 0
AnchorPoint: "curs" 776 0 entry 0
LayerCount: 2
Fore
SplineSet
80 461 m 1xd8
 571 461 l 1
 571 40 l 1
 778 40 l 1
 778 0 l 1
 464 0 l 1
 464 425 l 1
 240 425 l 1xb8
 240 308 l 1
 80 308 l 1
 80 461 l 1xd8
EndSplineSet
EndChar

StartChar: uni25CC
Encoding: 9676 9676 149
Width: 525
Flags: W
HStem: -0.560547 69.1211<231.251 294.749> 52.4395 69.1211<97.2513 160.749 363.251 426.749> 183.439 69.1211<37.2513 100.749 425.251 488.749> 329.439 69.1211<97.2513 160.749 363.251 426.749> 385.439 69.1211<231.251 294.749>
VStem: 34.4395 69.1211<186.251 249.749> 94.4395 69.1211<55.2513 118.749 332.251 395.749> 228.439 69.1211<2.2513 65.7487 388.251 451.749> 360.439 69.1211<55.2513 118.749 332.251 395.749> 422.439 69.1211<186.251 249.749>
AnchorPoint: "Below" 262 -37 basechar 0
AnchorPoint: "Diacritic" 264 550 basechar 0
LayerCount: 2
Fore
SplineSet
129 121.560546875 m 0x63
 147.405273438 121.560546875 163.560546875 105.407226562 163.560546875 87 c 0
 163.560546875 68.5947265625 147.407226562 52.439453125 129 52.439453125 c 0
 110.594726562 52.439453125 94.439453125 68.5927734375 94.439453125 87 c 0
 94.439453125 105.405273438 110.592773438 121.560546875 129 121.560546875 c 0x63
395 121.560546875 m 0
 413.405273438 121.560546875 429.560546875 105.407226562 429.560546875 87 c 0
 429.560546875 68.5947265625 413.407226562 52.439453125 395 52.439453125 c 0
 376.594726562 52.439453125 360.439453125 68.5927734375 360.439453125 87 c 0x6180
 360.439453125 105.405273438 376.592773438 121.560546875 395 121.560546875 c 0
129 398.560546875 m 0x33
 147.405273438 398.560546875 163.560546875 382.407226562 163.560546875 364 c 0
 163.560546875 345.594726562 147.407226562 329.439453125 129 329.439453125 c 0
 110.594726562 329.439453125 94.439453125 345.592773438 94.439453125 364 c 0
 94.439453125 382.405273438 110.592773438 398.560546875 129 398.560546875 c 0x33
395 398.560546875 m 0
 413.405273438 398.560546875 429.560546875 382.407226562 429.560546875 364 c 0
 429.560546875 345.594726562 413.407226562 329.439453125 395 329.439453125 c 0
 376.594726562 329.439453125 360.439453125 345.592773438 360.439453125 364 c 0x3180
 360.439453125 382.405273438 376.592773438 398.560546875 395 398.560546875 c 0
69 252.560546875 m 0
 87.4052734375 252.560546875 103.560546875 236.407226562 103.560546875 218 c 0
 103.560546875 199.594726562 87.4072265625 183.439453125 69 183.439453125 c 0
 50.5947265625 183.439453125 34.439453125 199.592773438 34.439453125 218 c 0x25
 34.439453125 236.405273438 50.5927734375 252.560546875 69 252.560546875 c 0
457 252.560546875 m 0
 475.405273438 252.560546875 491.560546875 236.407226562 491.560546875 218 c 0
 491.560546875 199.594726562 475.407226562 183.439453125 457 183.439453125 c 0
 438.594726562 183.439453125 422.439453125 199.592773438 422.439453125 218 c 0x2140
 422.439453125 236.405273438 438.592773438 252.560546875 457 252.560546875 c 0
263 68.560546875 m 0xa1
 281.405273438 68.560546875 297.560546875 52.4072265625 297.560546875 34 c 0
 297.560546875 15.5947265625 281.407226562 -0.560546875 263 -0.560546875 c 0
 244.594726562 -0.560546875 228.439453125 15.5927734375 228.439453125 34 c 0
 228.439453125 52.4052734375 244.592773438 68.560546875 263 68.560546875 c 0xa1
263 454.560546875 m 0x29
 281.405273438 454.560546875 297.560546875 438.407226562 297.560546875 420 c 0
 297.560546875 401.594726562 281.407226562 385.439453125 263 385.439453125 c 0
 244.594726562 385.439453125 228.439453125 401.592773438 228.439453125 420 c 0
 228.439453125 438.405273438 244.592773438 454.560546875 263 454.560546875 c 0x29
EndSplineSet
EndChar

StartChar: uni0701
Encoding: 1793 1793 150
Width: 300
Flags: W
HStem: 226 102<80.1171 163.764>
VStem: 71 102<234.938 318.764>
LayerCount: 2
Fore
SplineSet
121 328 m 256
 151 328 173 306 173 276 c 256
 173 245 149 226 121 226 c 256
 90 226 71 249 71 276 c 256
 71 306 93 328 121 328 c 256
EndSplineSet
EndChar

StartChar: uni0703
Encoding: 1795 1795 151
Width: 300
Flags: W
HStem: 88 100<64.8978 146.942> 361 100<65.5929 146.541>
VStem: 56 100<96.8382 179.162 370.456 452.5>
LayerCount: 2
Fore
SplineSet
107 88 m 0
 79 88 56 109 56 138 c 256
 56 165 77 188 107 188 c 0
 133 188 156 167 156 138 c 0
 156 111 134 88 107 88 c 0
107 361 m 0
 79 361 56 384 56 412 c 256
 56 440 77 461 107 461 c 0
 133 461 156 441 156 412 c 0
 156 386 135 361 107 361 c 0
EndSplineSet
EndChar

StartChar: uni205D
Encoding: 8285 8285 152
Width: 300
Flags: W
HStem: 88 100<64.8978 146.942> 225 100<65.5929 146.541> 361 100<65.5929 146.541>
VStem: 56 100<96.8382 179.162 234.456 316.5 370.456 452.5>
LayerCount: 2
Fore
SplineSet
107 225 m 0
 79 225 56 248 56 276 c 256
 56 304 77 325 107 325 c 0
 133 325 156 305 156 276 c 0
 156 250 135 225 107 225 c 0
107 88 m 0
 79 88 56 109 56 138 c 256
 56 165 77 188 107 188 c 0
 133 188 156 167 156 138 c 0
 156 111 134 88 107 88 c 0
107 361 m 0
 79 361 56 384 56 412 c 256
 56 440 77 461 107 461 c 0
 133 461 156 441 156 412 c 0
 156 386 135 361 107 361 c 0
EndSplineSet
EndChar

StartChar: uni0700
Encoding: 1792 1792 153
Width: 500
Flags: W
HStem: 90 100<185.438 266.942> 227 100<81.8382 164.162 291.456 373.5> 363 100<186.117 266.541>
VStem: 73 100<236.058 318.102> 177 99<99.1171 181.162 372.281 454.5> 282 100<236.459 317.407>
LayerCount: 2
Fore
SplineSet
73 276 m 4
 73 304 94 327 123 327 c 260
 150 327 173 306 173 276 c 4
 173 250 152 227 123 227 c 4
 96 227 73 249 73 276 c 4
282 276 m 4
 282 304 305 327 333 327 c 260
 361 327 382 306 382 276 c 4
 382 250 362 227 333 227 c 4
 307 227 282 248 282 276 c 4
227 90 m 4
 199 90 177 112 177 140 c 260
 177 168 199 190 227 190 c 4
 253 190 276 169 276 140 c 4
 276 113 254 90 227 90 c 4
227 363 m 4
 198 363 177 386 177 414 c 260
 177 443 199 463 227 463 c 4
 253 463 276 443 276 414 c 4
 276 388 255 363 227 363 c 4
EndSplineSet
EndChar

StartChar: uni070D
Encoding: 1805 1805 154
Width: 700
VWidth: 2048
Flags: W
HStem: 135 68<226.362 290.531 434.362 498.63> 244 60<87 329 389 632> 351 68<228.803 290.39 434.362 498.63> 526 20G<329 389>
VStem: 225 67<136.37 201.63 349.813 413.174> 329 60<0 244 304 546> 433 67<136.37 201.63 352.37 417.63>
LayerCount: 2
Fore
SplineSet
500 385 m 256
 500 362 489 351 466 351 c 0
 444 351 433 362 433 385 c 256
 433 408 444 419 466 419 c 0
 489 419 500 408 500 385 c 256
293 381 m 256
 293 359 282 348 260 348 c 0
 238 348 226 359 226 381 c 256
 226 404 238 415 260 415 c 0
 282 415 293 404 293 381 c 256
500 169 m 256
 500 146 489 135 466 135 c 0
 444 135 433 146 433 169 c 256
 433 192 444 203 466 203 c 0
 489 203 500 192 500 169 c 256
632 244 m 1
 389 244 l 1
 389 0 l 1
 329 0 l 1
 329 244 l 1
 87 244 l 1
 87 304 l 1
 329 304 l 1
 329 546 l 1
 389 546 l 1
 389 304 l 1
 632 304 l 1
 632 244 l 1
292 169 m 256
 292 146 280 135 258 135 c 0
 236 135 225 146 225 169 c 256
 225 192 236 203 258 203 c 0
 280 203 292 192 292 169 c 256
EndSplineSet
EndChar

StartChar: uni200E
Encoding: 8206 8206 157
Width: 30
VWidth: 2048
Flags: W
HStem: -0 21G<0 23> 548 21G<68 103.714> 607 23<23 110>
VStem: -0 23<0 607>
LayerCount: 2
Fore
SplineSet
153 618 m 5
 84 548 l 5
 68 564 l 5
 112 607 l 5
 23 607 l 5
 23 -0 l 5
 -0 -0 l 5
 -0 630 l 5
 110 630 l 5
 68 672 l 5
 84 687 l 5
 153 618 l 5
EndSplineSet
EndChar

StartChar: uni200F
Encoding: 8207 8207 158
Width: 30
VWidth: 2048
Flags: W
HStem: 0 21G<0 23> 548 21G<-81 -46> 607 23<-87 0>
VStem: 0 23<0 607>
LayerCount: 2
Fore
SplineSet
23 0 m 1
 0 0 l 1
 0 607 l 1
 -89 607 l 1
 -46 564 l 1
 -61 548 l 1
 -131 618 l 1
 -61 687 l 1
 -46 672 l 1
 -87 630 l 1
 23 630 l 1
 23 0 l 1
EndSplineSet
EndChar

StartChar: uniEC46
Encoding: 60486 60486 159
Width: 817
VWidth: 2048
Flags: W
HStem: 114 42<324.921 394.769> 431 42<198 305> 435 14G<35.7586 53 784.286 802> 452 27G<5 22.7358 755 772.447> 574 13G<35.4242 53 784.5 802> 590 28G<5 22.551 755 772.143> 628 44<134 239> 753 20G<5 95 147 237 288 378 429 519 571 661 712 802>
VStem: 404 52<161.729 360 431 497.375> 632 58<593.751 672>
LayerCount: 2
Fore
SplineSet
802 767 m 1
 755 712 l 1
 755 724 l 1
 797 773 l 1
 802 773 l 1
 802 767 l 1
787 773 m 1
 748 728 l 1
 738 728 l 1
 777 773 l 1
 787 773 l 1
802 743 m 1
 755 689 l 1
 755 701 l 1
 802 755 l 1
 802 743 l 1
767 773 m 1
 728 728 l 1
 718 728 l 1
 757 773 l 1
 767 773 l 1
802 721 m 1
 773 687 l 1
 763 687 l 1
 802 732 l 1
 802 721 l 1
802 697 m 1
 794 687 l 1
 783 687 l 1
 802 709 l 1
 802 697 l 1
727 773 m 1
 712 755 l 1
 712 768 l 1
 716 773 l 1
 727 773 l 1
747 773 m 1
 712 732 l 1
 712 744 l 1
 737 773 l 1
 747 773 l 1
661 743 m 1
 648 728 l 1
 637 728 l 1
 661 755 l 1
 661 743 l 1
661 766 m 1
 628 728 l 1
 617 728 l 1
 656 773 l 1
 661 773 l 1
 661 766 l 1
661 728 m 1
 657 728 l 1
 661 732 l 1
 661 728 l 1
771 639 m 1
 755 620 l 1
 755 632 l 1
 761 639 l 1
 771 639 l 1
791 639 m 1
 755 597 l 1
 755 608 l 1
 781 639 l 1
 791 639 l 1
802 628 m 1
 755 574 l 1
 755 586 l 1
 801 639 l 1
 802 639 l 1
 802 628 l 1
647 773 m 1
 608 728 l 1
 597 728 l 1
 636 773 l 1
 647 773 l 1
802 605 m 1
 757 554 l 1
 755 554 l 1
 755 562 l 1
 802 617 l 1
 802 605 l 1
627 773 m 1
 588 728 l 1
 577 728 l 1
 616 773 l 1
 627 773 l 1
802 582 m 1
 777 554 l 1
 767 554 l 1
 802 594 l 1
 802 582 l 1
802 559 m 1
 798 554 l 1
 787 554 l 1
 802 571 l 1
 802 559 l 1
586 773 m 1
 571 755 l 1
 571 767 l 1
 576 773 l 1
 586 773 l 1
606 773 m 1
 571 732 l 1
 571 743 l 1
 596 773 l 1
 606 773 l 1
519 743 m 1
 506 728 l 1
 496 728 l 1
 519 755 l 1
 519 743 l 1
519 766 m 1
 486 728 l 1
 476 728 l 1
 515 773 l 1
 519 773 l 1
 519 766 l 1
519 728 m 1
 516 728 l 1
 519 732 l 1
 519 728 l 1
755 505 m 1
 755 504 l 1
 755 505 l 1
775 505 m 1
 755 481 l 1
 755 493 l 1
 765 505 l 1
 775 505 l 1
796 505 m 1
 755 458 l 1
 755 470 l 1
 785 505 l 1
 796 505 l 1
505 773 m 1
 466 728 l 1
 456 728 l 1
 495 773 l 1
 505 773 l 1
802 490 m 1
 755 435 l 1
 755 447 l 1
 802 501 l 1
 802 490 l 1
485 773 m 1
 446 728 l 1
 436 728 l 1
 475 773 l 1
 485 773 l 1
802 466 m 1
 762 420 l 1
 755 420 l 1
 755 424 l 1
 802 479 l 1
 802 466 l 1
802 443 m 1
 782 420 l 1
 771 420 l 1
 802 455 l 1
 802 443 l 1
802 420 m 1
 792 420 l 1
 802 432 l 1
 802 420 l 1
445 773 m 1
 429 755 l 1
 429 767 l 1
 435 773 l 1
 445 773 l 1
465 773 m 1
 429 732 l 1
 429 743 l 1
 455 773 l 1
 465 773 l 1
378 765 m 1
 346 728 l 1
 335 728 l 1
 374 773 l 1
 378 773 l 1
 378 765 l 1
378 742 m 1
 366 728 l 1
 356 728 l 1
 378 754 l 1
 378 742 l 1
378 728 m 1
 376 728 l 1
 378 730 l 1
 378 728 l 1
759 371 m 1
 755 366 l 1
 755 371 l 1
 759 371 l 1
779 371 m 1
 755 343 l 1
 755 355 l 1
 769 371 l 1
 779 371 l 1
800 371 m 1
 755 319 l 1
 755 332 l 1
 789 371 l 1
 800 371 l 1
365 773 m 1
 326 728 l 1
 315 728 l 1
 354 773 l 1
 365 773 l 1
802 351 m 1
 755 297 l 1
 755 308 l 1
 802 363 l 1
 802 351 l 1
345 773 m 1
 306 728 l 1
 295 728 l 1
 334 773 l 1
 345 773 l 1
802 328 m 1
 766 286 l 1
 755 286 l 1
 802 340 l 1
 802 328 l 1
802 305 m 1
 786 286 l 1
 775 286 l 1
 802 317 l 1
 802 305 l 1
802 286 m 1
 796 286 l 1
 802 294 l 1
 802 286 l 1
305 773 m 1
 288 754 l 1
 288 766 l 1
 294 773 l 1
 305 773 l 1
325 773 m 1
 288 730 l 1
 288 743 l 1
 314 773 l 1
 325 773 l 1
438 493 m 1
 441.333333333 513 449 542 461 580 c 128
 473 618 480.666666667 648.666666667 484 672 c 1
 544 672 l 1
 544 662.666666667 547 646.333333333 553 623 c 0
 565.666666667 582.333333333 578 538.333333333 590 491 c 1
 590.666666667 503.666666667 598.333333333 533.666666667 613 581 c 0
 624.333333333 614.333333333 630.666666667 644.666666667 632 672 c 1
 690 672 l 1
 690 656.666666667 681.666666667 627 665 583 c 0
 637 509 620 458.333333333 614 431 c 1
 558 431 l 1
 558 444.333333333 553.666666667 463 545 487 c 0
 523 549 510.666666667 588 508 604 c 1
 504.666666667 582 499 560 491 538 c 2
 470 473 l 2
 466.666666667 462.333333333 464 448.333333333 462 431 c 1
 406 431 l 1
 404.666666667 446.333333333 396.333333333 476 381 520 c 0
 377.666666667 528.666666667 373 540.833333333 367 556.5 c 128
 361 572.166666667 356.333333333 584.5 353 593.5 c 128
 349.666666667 602.5 345.833333333 614.166666667 341.5 628.5 c 128
 337.166666667 642.833333333 333.333333333 657.333333333 330 672 c 1
 395 672 l 1
 396.333333333 656 399.333333333 640.333333333 404 625 c 0
 415.333333333 588.333333333 426.666666667 544.333333333 438 493 c 1
237 764 m 1
 205 728 l 1
 195 728 l 1
 234 773 l 1
 237 773 l 1
 237 764 l 1
237 741 m 1
 225 728 l 1
 215 728 l 1
 237 753 l 1
 237 741 l 1
237 728 m 1
 235 728 l 1
 237 730 l 1
 237 728 l 1
764 238 m 1
 755 227 l 1
 755 238 l 1
 764 238 l 1
784 238 m 1
 755 204 l 1
 755 216 l 1
 773 238 l 1
 784 238 l 1
802 235 m 1
 755 181 l 1
 755 193 l 1
 794 238 l 1
 802 238 l 1
 802 235 l 1
224 773 m 1
 185 728 l 1
 175 728 l 1
 214 773 l 1
 224 773 l 1
802 212 m 1
 755 158 l 1
 755 170 l 1
 802 224 l 1
 802 212 l 1
204 773 m 1
 165 728 l 1
 155 728 l 1
 194 773 l 1
 204 773 l 1
802 189 m 1
 770 153 l 1
 760 153 l 1
 802 201 l 1
 802 189 l 1
802 166 m 1
 790 153 l 1
 780 153 l 1
 802 178 l 1
 802 166 l 1
802 153 m 1
 800 153 l 1
 802 155 l 1
 802 153 l 1
164 773 m 1
 147 753 l 1
 147 765 l 1
 154 773 l 1
 164 773 l 1
184 773 m 1
 147 730 l 1
 147 741 l 1
 174 773 l 1
 184 773 l 1
95 763 m 1
 65 728 l 1
 54 728 l 1
 93 773 l 1
 95 773 l 1
 95 763 l 1
95 740 m 1
 85 728 l 1
 75 728 l 1
 95 752 l 1
 95 740 l 1
95 728 m 1
 95 729 l 1
 95 728 l 1
768 104 m 1
 755 89 l 1
 755 101 l 1
 757 104 l 1
 768 104 l 1
788 104 m 1
 755 66 l 1
 755 77 l 1
 777 104 l 1
 788 104 l 1
802 74 m 1
 754 19 l 1
 744 19 l 1
 802 86 l 1
 802 74 l 1
802 97 m 1
 734 19 l 1
 724 19 l 1
 798 104 l 1
 802 104 l 1
 802 97 l 1
802 51 m 1
 774 19 l 1
 764 19 l 1
 802 63 l 1
 802 51 l 1
802 28 m 1
 794 19 l 1
 784 19 l 1
 802 40 l 1
 802 28 l 1
24 773 m 1
 5 752 l 1
 5 764 l 1
 13 773 l 1
 24 773 l 1
44 773 m 1
 5 729 l 1
 5 741 l 1
 33 773 l 1
 44 773 l 1
84 773 m 1
 10 687 l 1
 5 687 l 1
 5 694 l 1
 73 773 l 1
 84 773 l 1
64 773 m 1
 5 706 l 1
 5 717 l 1
 53 773 l 1
 64 773 l 1
307 477 m 1
 305 431 l 1
 130 431 l 1
 133 472 l 1
 149.666666667 493.333333333 170.666666667 522.333333333 196 559 c 128
 221.333333333 595.666666667 235.666666667 620 239 632 c 1
 203.666666667 632 168.333333333 630.666666667 133 628 c 1
 134 672 l 1
 303 672 l 1
 300 632 l 1
 239 551 205 498 198 473 c 1
 230.666666667 473 267 474.333333333 307 477 c 1
53 714 m 1
 30 687 l 1
 20 687 l 1
 53 726 l 1
 53 714 l 1
53 691 m 1
 50 687 l 1
 40 687 l 1
 53 703 l 1
 53 691 l 1
713 64 m 1
 712 63 l 1
 712 64 l 1
 713 64 l 1
733 64 m 1
 712 40 l 1
 712 52 l 1
 722 64 l 1
 733 64 l 1
753 64 m 1
 714 19 l 1
 712 19 l 1
 712 28 l 1
 743 64 l 1
 753 64 l 1
661 50 m 1
 634 19 l 1
 623 19 l 1
 661 62 l 1
 661 50 l 1
661 27 m 1
 654 19 l 1
 643 19 l 1
 661 39 l 1
 661 27 l 1
7 639 m 1
 5 636 l 1
 5 639 l 1
 7 639 l 1
28 639 m 1
 5 613 l 1
 5 625 l 1
 18 639 l 1
 28 639 l 1
48 639 m 1
 5 590 l 1
 5 602 l 1
 38 639 l 1
 48 639 l 1
653 64 m 1
 614 19 l 1
 603 19 l 1
 642 64 l 1
 653 64 l 1
53 622 m 1
 5 567 l 1
 5 579 l 1
 53 634 l 1
 53 622 l 1
633 64 m 1
 594 19 l 1
 583 19 l 1
 622 64 l 1
 633 64 l 1
53 599 m 1
 14 554 l 1
 5 554 l 1
 5 556 l 1
 53 610 l 1
 53 599 l 1
53 575 m 1
 34 554 l 1
 24 554 l 1
 53 587 l 1
 53 575 l 1
353 156 m 0
 372.333333333 156 385.666666667 161.166666667 393 171.5 c 128
 400.333333333 181.833333333 404 198.333333333 404 221 c 0
 404 277.666666667 403 324 401 360 c 1
 458 360 l 1
 456.666666667 334.666666667 456 289.333333333 456 224 c 0
 456 150.666666667 423.333333333 114 358 114 c 0
 350 114 338 115.333333333 322 118 c 1
 325 162 l 1
 335 158 344.333333333 156 353 156 c 0
53 554 m 1
 44 554 l 1
 53 564 l 1
 53 554 l 1
572 64 m 1
 571 62 l 1
 571 64 l 1
 572 64 l 1
592 64 m 1
 571 39 l 1
 571 51 l 1
 582 64 l 1
 592 64 l 1
612 64 m 1
 574 19 l 1
 571 19 l 1
 571 28 l 1
 602 64 l 1
 612 64 l 1
519 50 m 1
 492 19 l 1
 482 19 l 1
 519 62 l 1
 519 50 l 1
519 27 m 1
 513 19 l 1
 502 19 l 1
 519 39 l 1
 519 27 l 1
12 505 m 1
 5 498 l 1
 5 505 l 1
 12 505 l 1
32 505 m 1
 5 475 l 1
 5 487 l 1
 22 505 l 1
 32 505 l 1
52 505 m 1
 5 452 l 1
 5 464 l 1
 42 505 l 1
 52 505 l 1
511 64 m 1
 472 19 l 1
 462 19 l 1
 501 64 l 1
 511 64 l 1
53 483 m 1
 5 428 l 1
 5 441 l 1
 53 495 l 1
 53 483 l 1
491 64 m 1
 452 19 l 1
 442 19 l 1
 481 64 l 1
 491 64 l 1
53 460 m 1
 18 420 l 1
 8 420 l 1
 53 472 l 1
 53 460 l 1
53 437 m 1
 38 420 l 1
 28 420 l 1
 53 449 l 1
 53 437 l 1
53 420 m 1
 48 420 l 1
 53 426 l 1
 53 420 l 1
431 64 m 1
 429 62 l 1
 429 64 l 1
 431 64 l 1
451 64 m 1
 429 39 l 1
 429 51 l 1
 441 64 l 1
 451 64 l 1
471 64 m 1
 432 19 l 1
 429 19 l 1
 429 28 l 1
 461 64 l 1
 471 64 l 1
378 49 m 1
 352 19 l 1
 341 19 l 1
 378 61 l 1
 378 49 l 1
378 26 m 1
 372 19 l 1
 362 19 l 1
 378 38 l 1
 378 26 l 1
16 371 m 1
 5 359 l 1
 5 371 l 1
 16 371 l 1
36 371 m 1
 5 336 l 1
 5 348 l 1
 26 371 l 1
 36 371 l 1
53 368 m 1
 5 313 l 1
 5 325 l 1
 46 371 l 1
 53 371 l 1
 53 368 l 1
371 64 m 1
 332 19 l 1
 321 19 l 1
 360 64 l 1
 371 64 l 1
53 344 m 1
 5 290 l 1
 5 302 l 1
 53 357 l 1
 53 344 l 1
351 64 m 1
 312 19 l 1
 301 19 l 1
 340 64 l 1
 351 64 l 1
53 321 m 1
 22 286 l 1
 12 286 l 1
 53 333 l 1
 53 321 l 1
53 298 m 1
 42 286 l 1
 32 286 l 1
 53 310 l 1
 53 298 l 1
53 286 m 1
 52 286 l 1
 53 287 l 1
 53 286 l 1
291 64 m 1
 288 61 l 1
 288 64 l 1
 291 64 l 1
311 64 m 1
 288 38 l 1
 288 50 l 1
 300 64 l 1
 311 64 l 1
331 64 m 1
 292 19 l 1
 288 19 l 1
 288 27 l 1
 320 64 l 1
 331 64 l 1
237 48 m 1
 211 19 l 1
 201 19 l 1
 237 60 l 1
 237 48 l 1
237 25 m 1
 231 19 l 1
 221 19 l 1
 237 37 l 1
 237 25 l 1
20 238 m 1
 5 221 l 1
 5 233 l 1
 10 238 l 1
 20 238 l 1
40 238 m 1
 5 198 l 1
 5 210 l 1
 30 238 l 1
 40 238 l 1
230 64 m 1
 191 19 l 1
 181 19 l 1
 220 64 l 1
 230 64 l 1
53 229 m 1
 5 175 l 1
 5 186 l 1
 50 238 l 1
 53 238 l 1
 53 229 l 1
210 64 m 1
 171 19 l 1
 161 19 l 1
 200 64 l 1
 210 64 l 1
53 206 m 1
 6 153 l 1
 5 153 l 1
 5 163 l 1
 53 218 l 1
 53 206 l 1
53 183 m 1
 26 153 l 1
 16 153 l 1
 53 195 l 1
 53 183 l 1
53 160 m 1
 46 153 l 1
 36 153 l 1
 53 172 l 1
 53 160 l 1
150 64 m 1
 147 60 l 1
 147 64 l 1
 150 64 l 1
190 64 m 1
 151 19 l 1
 147 19 l 1
 147 26 l 1
 180 64 l 1
 190 64 l 1
170 64 m 1
 147 37 l 1
 147 49 l 1
 160 64 l 1
 170 64 l 1
95 47 m 1
 71 19 l 1
 60 19 l 1
 95 59 l 1
 95 47 l 1
95 24 m 1
 91 19 l 1
 81 19 l 1
 95 36 l 1
 95 24 l 1
24 104 m 1
 5 82 l 1
 5 94 l 1
 14 104 l 1
 24 104 l 1
44 104 m 1
 5 59 l 1
 5 71 l 1
 34 104 l 1
 44 104 l 1
90 64 m 1
 51 19 l 1
 40 19 l 1
 79 64 l 1
 90 64 l 1
53 90 m 1
 5 36 l 1
 5 48 l 1
 53 102 l 1
 53 90 l 1
70 64 m 1
 31 19 l 1
 20 19 l 1
 59 64 l 1
 70 64 l 1
53 67 m 1
 11 19 l 1
 5 19 l 1
 5 25 l 1
 53 79 l 1
 53 67 l 1
EndSplineSet
EndChar

StartChar: uniEC47
Encoding: 60487 60487 160
Width: 797
VWidth: 2048
Flags: W
HStem: 103 43<471.47 539.182> 431 45<196 303> 438 13G<36.3333 53 774.243 791> 454 28G<6 22.4286 744 760.786> 558 37G<36.4286 53 776 791> 598 4G<6 22.7347 744 760.491> 638 46<132 236> 768 20G<6 94 145 234 284 373 423 512 563 651 702 791> 770 21G<423 439 563 578 702 717>
VStem: 178 61<316.849 359> 178 50<108 292> 334 52<262 359> 341 42<108 135.732 183 357.591> 548 52<152.096 359 431 497.844> 623 58<596.544 684>
LayerCount: 2
Fore
SplineSet
791 782 m 1
 744 725 l 1
 744 737 l 1
 785 788 l 1
 791 788 l 1
 791 782 l 1
776 788 m 1
 738 741 l 1
 727 741 l 1
 766 788 l 1
 776 788 l 1
791 758 m 1
 744 701 l 1
 744 714 l 1
 791 770 l 1
 791 758 l 1
756 788 m 1
 718 741 l 1
 707 741 l 1
 746 788 l 1
 756 788 l 1
791 734 m 1
 762 700 l 1
 752 700 l 1
 791 746 l 1
 791 734 l 1
791 710 m 1
 782 700 l 1
 772 700 l 1
 791 722 l 1
 791 710 l 1
717 788 m 1
 702 770 l 1
 702 783 l 1
 706 788 l 1
 717 788 l 1
736 788 m 1
 702 746 l 1
 702 759 l 1
 726 788 l 1
 736 788 l 1
651 757 m 1
 639 741 l 1
 628 741 l 1
 651 770 l 1
 651 757 l 1
651 781 m 1
 619 741 l 1
 609 741 l 1
 647 788 l 1
 651 788 l 1
 651 781 l 1
651 741 m 1
 648 741 l 1
 651 745 l 1
 651 741 l 1
760 649 m 1
 744 629 l 1
 744 641 l 1
 750 649 l 1
 760 649 l 1
780 647 m 1
 744 605 l 1
 744 617 l 1
 770 647 l 1
 780 647 l 1
791 638 m 1
 744 581 l 1
 744 594 l 1
 790 647 l 1
 791 647 l 1
 791 638 l 1
637 788 m 1
 599 741 l 1
 589 741 l 1
 627 788 l 1
 637 788 l 1
791 614 m 1
 747 560 l 1
 744 560 l 1
 744 569 l 1
 791 626 l 1
 791 614 l 1
618 788 m 1
 579 741 l 1
 569 741 l 1
 607 788 l 1
 618 788 l 1
791 590 m 1
 766 560 l 1
 756 560 l 1
 791 602 l 1
 791 590 l 1
791 565 m 1
 786 560 l 1
 776 560 l 1
 791 578 l 1
 791 565 l 1
578 788 m 1
 563 770 l 1
 563 782 l 1
 568 788 l 1
 578 788 l 1
598 788 m 1
 563 745 l 1
 563 758 l 1
 588 788 l 1
 598 788 l 1
512 757 m 1
 499 741 l 1
 489 741 l 1
 512 770 l 1
 512 757 l 1
512 781 m 1
 480 741 l 1
 469 741 l 1
 508 788 l 1
 512 788 l 1
 512 781 l 1
512 741 m 1
 509 741 l 1
 512 745 l 1
 512 741 l 1
745 510 m 1
 744 509 l 1
 744 510 l 1
 745 510 l 1
764 510 m 1
 744 485 l 1
 744 497 l 1
 754 510 l 1
 764 510 l 1
784 510 m 1
 744 461 l 1
 744 473 l 1
 774 510 l 1
 784 510 l 1
498 788 m 1
 460 741 l 1
 450 741 l 1
 488 788 l 1
 498 788 l 1
791 493 m 1
 744 437 l 1
 744 449 l 1
 791 506 l 1
 791 493 l 1
478 788 m 1
 440 741 l 1
 430 741 l 1
 468 788 l 1
 478 788 l 1
791 469 m 1
 751 421 l 1
 744 421 l 1
 744 425 l 1
 791 482 l 1
 791 469 l 1
791 445 m 1
 771 421 l 1
 760 421 l 1
 791 458 l 1
 791 445 l 1
791 421 m 1
 780 421 l 1
 791 434 l 1
 791 421 l 1
439 788 m 1
 423 770 l 1
 423 782 l 1
 429 788 l 1
 439 788 l 1
459 788 m 1
 423 745 l 1
 423 758 l 1
 448 788 l 1
 459 788 l 1
373 780 m 1
 341 741 l 1
 331 741 l 1
 369 788 l 1
 373 788 l 1
 373 780 l 1
373 756 m 1
 361 741 l 1
 351 741 l 1
 373 768 l 1
 373 756 l 1
373 741 m 1
 371 741 l 1
 373 744 l 1
 373 741 l 1
749 370 m 1
 744 365 l 1
 744 370 l 1
 749 370 l 1
768 370 m 1
 744 340 l 1
 744 353 l 1
 758 370 l 1
 768 370 l 1
788 370 m 1
 744 316 l 1
 744 329 l 1
 778 370 l 1
 788 370 l 1
360 788 m 1
 321 741 l 1
 311 741 l 1
 350 788 l 1
 360 788 l 1
791 349 m 1
 744 293 l 1
 744 305 l 1
 791 362 l 1
 791 349 l 1
340 788 m 1
 302 741 l 1
 291 741 l 1
 330 788 l 1
 340 788 l 1
791 325 m 1
 755 282 l 1
 745 282 l 1
 791 338 l 1
 791 325 l 1
791 301 m 1
 775 282 l 1
 764 282 l 1
 791 314 l 1
 791 301 l 1
791 282 m 1
 784 282 l 1
 791 289 l 1
 791 282 l 1
300 788 m 1
 284 768 l 1
 284 781 l 1
 290 788 l 1
 300 788 l 1
320 788 m 1
 284 744 l 1
 284 757 l 1
 310 788 l 1
 320 788 l 1
681 684 m 1
 681 674.666666667 678.5 660.833333333 673.5 642.5 c 128
 668.5 624.166666667 663.333333333 607.666666667 658 593 c 128
 652.666666667 578.333333333 645.5 559.333333333 636.5 536 c 128
 627.5 512.666666667 622.333333333 499 621 495 c 0
 617.666666667 486.333333333 612.333333333 465 605 431 c 1
 550 431 l 1
 550 445 546 465 538 491 c 0
 516.666666667 554.333333333 504.333333333 595 501 613 c 1
 497.666666667 590.333333333 492 567.333333333 484 544 c 2
 464 476 l 2
 461.333333333 468.666666667 458.333333333 453.666666667 455 431 c 1
 400 431 l 1
 400 446.333333333 392 477.666666667 376 525 c 0
 348 605 331 658 325 684 c 1
 390 684 l 1
 390 669.333333333 393 653 399 635 c 0
 413 581.666666667 424 535.666666667 432 497 c 1
 435.333333333 518.333333333 440.666666667 541.333333333 448 566 c 2
 468 634 l 2
 472.666666667 650 476 666.666666667 478 684 c 1
 536 684 l 1
 536 672 539.333333333 655 546 633 c 0
 566 555 577.666666667 509 581 495 c 1
 583 514.333333333 591 545.666666667 605 589 c 0
 617 629 623 660.666666667 623 684 c 1
 681 684 l 1
234 779 m 1
 203 741 l 1
 193 741 l 1
 231 788 l 1
 234 788 l 1
 234 779 l 1
234 755 m 1
 223 741 l 1
 212 741 l 1
 234 768 l 1
 234 755 l 1
234 741 m 1
 232 741 l 1
 234 743 l 1
 234 741 l 1
753 231 m 1
 744 220 l 1
 744 231 l 1
 753 231 l 1
773 231 m 1
 744 196 l 1
 744 209 l 1
 762 231 l 1
 773 231 l 1
791 229 m 1
 744 172 l 1
 744 185 l 1
 782 231 l 1
 791 231 l 1
 791 229 l 1
221 788 m 1
 183 741 l 1
 173 741 l 1
 211 788 l 1
 221 788 l 1
791 205 m 1
 744 148 l 1
 744 160 l 1
 791 217 l 1
 791 205 l 1
202 788 m 1
 163 741 l 1
 153 741 l 1
 191 788 l 1
 202 788 l 1
791 181 m 1
 759 143 l 1
 749 143 l 1
 791 193 l 1
 791 181 l 1
791 157 m 1
 779 143 l 1
 769 143 l 1
 791 169 l 1
 791 157 l 1
791 143 m 1
 789 143 l 1
 791 145 l 1
 791 143 l 1
162 788 m 1
 145 768 l 1
 145 780 l 1
 152 788 l 1
 162 788 l 1
182 788 m 1
 145 743 l 1
 145 756 l 1
 172 788 l 1
 182 788 l 1
94 778 m 1
 64 741 l 1
 54 741 l 1
 92 788 l 1
 94 788 l 1
 94 778 l 1
94 754 m 1
 84 741 l 1
 74 741 l 1
 94 766 l 1
 94 754 l 1
94 741 m 1
 94 742 l 1
 94 741 l 1
757 92 m 1
 744 76 l 1
 744 88 l 1
 747 92 l 1
 757 92 l 1
777 92 m 1
 744 52 l 1
 744 64 l 1
 766 92 l 1
 777 92 l 1
791 61 m 1
 743 3 l 1
 733 3 l 1
 791 73 l 1
 791 61 l 1
791 85 m 1
 724 3 l 1
 713 3 l 1
 786 92 l 1
 791 92 l 1
 791 85 l 1
791 37 m 1
 763 3 l 1
 753 3 l 1
 791 49 l 1
 791 37 l 1
791 13 m 1
 783 3 l 1
 773 3 l 1
 791 25 l 1
 791 13 l 1
24 788 m 1
 6 766 l 1
 6 779 l 1
 13 788 l 1
 24 788 l 1
43 788 m 1
 6 743 l 1
 6 755 l 1
 33 788 l 1
 43 788 l 1
83 788 m 1
 10 698 l 1
 6 698 l 1
 6 707 l 1
 73 788 l 1
 83 788 l 1
63 788 m 1
 6 719 l 1
 6 731 l 1
 53 788 l 1
 63 788 l 1
303 480 m 1
 303 431 l 1
 131 431 l 1
 131 475 l 1
 146.333333333 495.666666667 166.833333333 525.5 192.5 564.5 c 128
 218.166666667 603.5 232.666666667 629.333333333 236 642 c 1
 226.666666667 642 210.5 641.333333333 187.5 640 c 128
 164.5 638.666666667 146 638 132 638 c 1
 132 684 l 1
 299 684 l 1
 299 641 l 1
 235.666666667 553 201.333333333 498 196 476 c 1
 203.333333333 476 218.833333333 476.666666667 242.5 478 c 128
 266.166666667 479.333333333 286.333333333 480 303 480 c 1
499 146 m 0
 517.666666667 146 530.5 151.333333333 537.5 162 c 128
 544.5 172.666666667 548 189.666666667 548 213 c 0
 548 235 547.666666667 262.166666667 547 294.5 c 128
 546.333333333 326.833333333 546 348.333333333 546 359 c 1
 602 359 l 1
 602 347 601.666666667 325.166666667 601 293.5 c 128
 600.333333333 261.833333333 600 236.333333333 600 217 c 0
 600 141 567.666666667 103 503 103 c 0
 492.333333333 103 481.666666667 104.333333333 471 107 c 1
 471 153 l 1
 480.333333333 148.333333333 489.666666667 146 499 146 c 0
53 727 m 1
 30 698 l 1
 20 698 l 1
 53 739 l 1
 53 727 l 1
53 703 m 1
 50 698 l 1
 39 698 l 1
 53 715 l 1
 53 703 l 1
703 50 m 1
 702 49 l 1
 702 50 l 1
 703 50 l 1
723 50 m 1
 702 25 l 1
 702 37 l 1
 712 50 l 1
 723 50 l 1
742 50 m 1
 704 3 l 1
 702 3 l 1
 702 13 l 1
 732 50 l 1
 742 50 l 1
651 36 m 1
 625 3 l 1
 615 3 l 1
 651 48 l 1
 651 36 l 1
651 12 m 1
 645 3 l 1
 634 3 l 1
 651 24 l 1
 651 12 l 1
8 647 m 1
 6 647 l 1
 8 647 l 1
28 647 m 1
 6 622 l 1
 6 635 l 1
 18 647 l 1
 28 647 l 1
47 647 m 1
 6 598 l 1
 6 611 l 1
 37 647 l 1
 47 647 l 1
643 50 m 1
 605 3 l 1
 595 3 l 1
 633 50 l 1
 643 50 l 1
53 631 m 1
 6 574 l 1
 6 587 l 1
 53 643 l 1
 53 631 l 1
624 50 m 1
 585 3 l 1
 575 3 l 1
 613 50 l 1
 624 50 l 1
53 607 m 1
 14 560 l 1
 6 560 l 1
 6 563 l 1
 53 619 l 1
 53 607 l 1
53 583 m 1
 34 560 l 1
 24 560 l 1
 53 595 l 1
 53 583 l 1
53 560 m 1
 43 560 l 1
 53 571 l 1
 53 560 l 1
564 50 m 1
 563 48 l 1
 563 50 l 1
 564 50 l 1
584 50 m 1
 563 24 l 1
 563 37 l 1
 574 50 l 1
 584 50 l 1
604 50 m 1
 565 3 l 1
 563 3 l 1
 563 13 l 1
 594 50 l 1
 604 50 l 1
512 36 m 1
 486 3 l 1
 475 3 l 1
 512 48 l 1
 512 36 l 1
512 12 m 1
 505 3 l 1
 495 3 l 1
 512 24 l 1
 512 12 l 1
386 108 m 1
 335 108 l 1
 333 116.666666667 315.666666667 144.666666667 283 192 c 0
 268.333333333 212 257.333333333 228 250 240 c 0
 238 259.333333333 229 276.666666667 223 292 c 1
 223 285.333333333 223.833333333 271.666666667 225.5 251 c 128
 227.166666667 230.333333333 228 213.333333333 228 200 c 0
 228 176 228 176 228 154.5 c 128
 228 140.166666667 228.166666667 129 228.5 121 c 128
 228.833333333 113 229 108.666666667 229 108 c 1
 178 108 l 1
 178 122.666666667 178.5 144.5 179.5 173.5 c 128
 180.5 202.5 181 224.333333333 181 239 c 0
 181 254.333333333 180.5 275.166666667 179.5 301.5 c 128
 178.5 327.833333333 178 347 178 359 c 1
 239 359 l 1
 240.333333333 349.666666667 255.666666667 322.333333333 285 277 c 0
 318.333333333 225 337 193.666666667 341 183 c 1
 341 193 339.833333333 217.333333333 337.5 256 c 128
 335.166666667 294.666666667 334 329 334 359 c 1
 386 359 l 1
 386 347.666666667 385.5 331.333333333 384.5 310 c 128
 383.5 288.666666667 383 272.666666667 383 262 c 2
 383 215 l 2
 383 205.666666667 383.5 189 384.5 165 c 128
 385.5 141 386 122 386 108 c 1
12 510 m 1
 6 502 l 1
 6 510 l 1
 12 510 l 1
32 510 m 1
 6 478 l 1
 6 490 l 1
 22 510 l 1
 32 510 l 1
52 510 m 1
 6 454 l 1
 6 467 l 1
 41 510 l 1
 52 510 l 1
504 50 m 1
 466 3 l 1
 456 3 l 1
 494 50 l 1
 504 50 l 1
53 487 m 1
 6 431 l 1
 6 442 l 1
 53 499 l 1
 53 487 l 1
484 50 m 1
 446 3 l 1
 436 3 l 1
 474 50 l 1
 484 50 l 1
53 463 m 1
 18 421 l 1
 8 421 l 1
 53 475 l 1
 53 463 l 1
53 438 m 1
 38 421 l 1
 28 421 l 1
 53 451 l 1
 53 438 l 1
53 421 m 1
 48 421 l 1
 53 427 l 1
 53 421 l 1
425 50 m 1
 423 48 l 1
 423 50 l 1
 425 50 l 1
445 50 m 1
 423 24 l 1
 423 37 l 1
 435 50 l 1
 445 50 l 1
465 50 m 1
 426 3 l 1
 423 3 l 1
 423 13 l 1
 454 50 l 1
 465 50 l 1
373 35 m 1
 347 3 l 1
 337 3 l 1
 373 47 l 1
 373 35 l 1
373 11 m 1
 367 3 l 1
 357 3 l 1
 373 23 l 1
 373 11 l 1
16 370 m 1
 6 358 l 1
 6 370 l 1
 16 370 l 1
36 370 m 1
 6 334 l 1
 6 346 l 1
 26 370 l 1
 36 370 l 1
53 367 m 1
 6 310 l 1
 6 322 l 1
 45 370 l 1
 53 370 l 1
 53 367 l 1
366 50 m 1
 327 3 l 1
 317 3 l 1
 355 50 l 1
 366 50 l 1
53 342 m 1
 6 286 l 1
 6 298 l 1
 53 355 l 1
 53 342 l 1
346 50 m 1
 308 3 l 1
 297 3 l 1
 336 50 l 1
 346 50 l 1
53 318 m 1
 22 282 l 1
 12 282 l 1
 53 331 l 1
 53 318 l 1
53 295 m 1
 42 282 l 1
 32 282 l 1
 53 307 l 1
 53 295 l 1
53 282 m 1
 52 282 l 1
 53 283 l 1
 53 282 l 1
287 50 m 1
 284 47 l 1
 284 50 l 1
 287 50 l 1
306 50 m 1
 284 23 l 1
 284 35 l 1
 296 50 l 1
 306 50 l 1
326 50 m 1
 288 3 l 1
 284 3 l 1
 284 12 l 1
 316 50 l 1
 326 50 l 1
234 34 m 1
 209 3 l 1
 198 3 l 1
 234 46 l 1
 234 34 l 1
234 10 m 1
 229 3 l 1
 218 3 l 1
 234 22 l 1
 234 10 l 1
20 231 m 1
 6 213 l 1
 6 226 l 1
 10 231 l 1
 20 231 l 1
40 231 m 1
 6 190 l 1
 6 202 l 1
 30 231 l 1
 40 231 l 1
227 50 m 1
 189 3 l 1
 179 3 l 1
 217 50 l 1
 227 50 l 1
53 222 m 1
 6 166 l 1
 6 178 l 1
 50 231 l 1
 53 231 l 1
 53 222 l 1
208 50 m 1
 169 3 l 1
 159 3 l 1
 197 50 l 1
 208 50 l 1
53 198 m 1
 7 143 l 1
 6 143 l 1
 6 154 l 1
 53 211 l 1
 53 198 l 1
53 174 m 1
 26 143 l 1
 17 143 l 1
 53 187 l 1
 53 174 l 1
53 150 m 1
 46 143 l 1
 36 143 l 1
 53 162 l 1
 53 150 l 1
148 50 m 1
 145 46 l 1
 145 50 l 1
 148 50 l 1
188 50 m 1
 149 3 l 1
 145 3 l 1
 145 11 l 1
 177 50 l 1
 188 50 l 1
168 50 m 1
 145 22 l 1
 145 35 l 1
 158 50 l 1
 168 50 l 1
94 33 m 1
 70 3 l 1
 60 3 l 1
 94 45 l 1
 94 33 l 1
94 9 m 1
 90 3 l 1
 80 3 l 1
 94 21 l 1
 94 9 l 1
24 92 m 1
 6 69 l 1
 6 82 l 1
 14 92 l 1
 24 92 l 1
44 92 m 1
 6 45 l 1
 6 58 l 1
 34 92 l 1
 44 92 l 1
89 50 m 1
 51 3 l 1
 40 3 l 1
 79 50 l 1
 89 50 l 1
53 78 m 1
 6 21 l 1
 6 34 l 1
 53 90 l 1
 53 78 l 1
69 50 m 1
 31 3 l 1
 20 3 l 1
 59 50 l 1
 69 50 l 1
53 54 m 1
 11 3 l 1
 6 3 l 1
 6 10 l 1
 53 66 l 1
 53 54 l 1
EndSplineSet
EndChar

StartChar: at
Encoding: 64 64 164
Width: 640
VWidth: 832
Flags: W
HStem: 0 30<256.983 422.266> 118 33<259.823 333.281> 119 24<428.748 489.363> 359 33<329.167 393.875> 361 20G<417 474> 494 24<263.576 407.679>
VStem: 60 63<153.496 358.317> 214 53<158.813 294.952> 550 30<216.105 364.664>
LayerCount: 2
Fore
SplineSet
280 118 m 0xc780
 240 118 214 161 214 203 c 0
 214 248 229 291 257 331 c 0
 285 371 320 392 361 392 c 0xd780
 374 392 384 388 392 384 c 0
 399 378 407 369 415 353 c 1
 422 381 l 1
 474 381 l 1
 425 191 l 2
 424 185 424 180 424 177 c 0
 424 154 433 143 453 143 c 0
 478 143 500 157 520 188 c 0
 540 219 550 252 550 290 c 0
 550 346 529 394 486 434 c 0
 444 474 394 494 335 494 c 0
 272 494 221 471 182 425 c 0
 143 378 123 321 123 253 c 0
 123 188 144 134 185 92 c 0
 226 50 278 30 342 30 c 0
 386 30 436 42 489 66 c 1
 498 43 l 1
 461 27 432 17 410 11 c 0
 387 5 361 0 335 0 c 0
 258 0 193 25 140 74 c 0
 87 123 60 183 60 255 c 0
 60 328 88 390 140 441 c 0
 194 492 258 518 334 518 c 0
 404 518 463 497 509 455 c 0
 557 412 580 360 580 298 c 0
 580 249 567 207 539 171 c 0
 511 136 479 119 442 119 c 0xaf80
 406 119 378 141 374 173 c 1
 347 137 315 118 280 118 c 0xc780
267 215 m 0
 267 181 280 151 312 151 c 0
 336 151 357 169 375 207 c 0
 393 245 402 281 402 315 c 0
 402 341 391 359 369 359 c 0
 349 359 326 345 303 317 c 0
 279 290 267 255 267 215 c 0
EndSplineSet
EndChar

StartChar: B
Encoding: 66 66 165
Width: 491
VWidth: 830
Flags: W
HStem: 1 23<31.0359 86.5 179.826 303.124> 250 25<163 281.266> 461 25<31.0066 87.4185 168.85 277.275>
VStem: 100 63<31.8039 250 275 454.396> 325 61<313.544 428.974> 361 69<67.0415 197.301>
LayerCount: 2
Fore
SplineSet
163 413 m 2xf8
 163 275 l 1
 219 275 l 2
 281 275 325 298 325 362 c 0
 325 438 271 461 229 461 c 0
 164 461 163 453 163 413 c 2xf8
163 250 m 1
 163 89 l 2
 163 43 174 24 226 24 c 0
 340 24 361 70 361 125 c 0xf4
 361 193 318 250 215 250 c 2
 163 250 l 1
128 485 m 0
 155 485 199 486 225 486 c 0
 365 486 386 421 386 371 c 0xf8
 386 331 353 291 315 272 c 1
 315 271 l 1
 380 252 430 211 430 139 c 0
 430 75 390 1 241 1 c 2
 132 1 l 2
 113 1 89 1 67 1 c 0
 56 1 44 1 34 1 c 1
 32 3 31 7 31 11 c 0
 31 16 32 22 34 24 c 1
 86 26 100 30 100 92 c 2
 100 393 l 2
 100 455 86 459 34 461 c 1
 32 463 31 469 31 473 c 0
 31 478 32 484 34 486 c 1
 63 485 101 485 128 485 c 0
EndSplineSet
EndChar

StartChar: A
Encoding: 65 65 166
Width: 565
VWidth: 832
Flags: W
HStem: 0 24<24.053 73.2795 143.52 194.982 351.018 407.112 491.61 540.982> 181 31<205.609 354>
LayerCount: 2
Fore
SplineSet
221 212 m 2
 354 212 l 1
 283 416 l 1
 279 416 l 1
 202 222 l 2
 201 221 202 220 202 219 c 0
 202 214 207 212 221 212 c 2
153 90 m 2
 151 86 138 52 138 48 c 0
 138 28 167 26 192 24 c 1
 194 22 195 16 195 11 c 0
 195 7 194 2 192 0 c 1
 183 0 172 0 161 0 c 0
 140 0 116 0 96 0 c 0
 81 0 65 0 50 0 c 0
 42 0 36 0 29 0 c 1
 27 2 24 7 24 11 c 0
 24 16 27 22 29 24 c 1
 61 26 84 31 104 77 c 2
 274 479 l 1
 284 479 305 487 316 494 c 1
 470 65 l 2
 483 29 509 26 538 24 c 1
 540 22 541 16 541 11 c 0
 541 7 540 2 538 0 c 1
 529 0 519 0 510 0 c 0
 491 0 472 0 452 0 c 0
 432 0 407 0 385 0 c 0
 374 0 363 0 354 0 c 1
 352 2 351 7 351 11 c 0
 351 16 352 22 354 24 c 1
 386 26 411 28 411 46 c 0
 411 48 410 51 409 54 c 2
 366 181 l 1
 208 181 l 2
 190 181 185 178 181 168 c 2
 153 90 l 2
EndSplineSet
EndChar

StartChar: C
Encoding: 67 67 167
Width: 558
VWidth: 831
Flags: W
HStem: 0 31<226.256 367.888> 474 28<226.579 354.987>
VStem: 49 68<151.322 349.195> 446 24<346.59 377.625>
LayerCount: 2
Fore
SplineSet
49 240 m 4
 49 382 148 502 290 502 c 4
 382 502 416 468 454 468 c 5
 462 427 466 391 470 352 c 5
 464 349 459 346 454 346 c 4
 451 346 449 347 446 348 c 5
 426 412 385 474 281 474 c 4
 242 474 199 453 161 407 c 4
 134 373 117 319 117 255 c 4
 117 145 187 31 288 31 c 4
 358 31 409 55 462 113 c 5
 470 113 475 109 479 102 c 5
 428 35 362 0 289 0 c 4
 128 0 49 110 49 240 c 4
EndSplineSet
EndChar

StartChar: D
Encoding: 68 68 168
Width: 591
VWidth: 830
Flags: W
HStem: 1 24<54.1131 111.419 198.247 354.064> 460 26<54.0015 112.3 198.008 325.097>
VStem: 124 63<32.0245 453.196> 466 72<124.558 331.744>
LayerCount: 2
Fore
SplineSet
187 64 m 2
 187 40 195 25 269 25 c 0
 375 25 466 62 466 214 c 0
 466 330 412 460 250 460 c 0
 213 460 187 450 187 424 c 2
 187 64 l 2
155 484 m 0
 184 484 226 486 279 486 c 0
 423 486 538 372 538 232 c 0
 538 48 398 1 292 1 c 0
 215 1 184 1 156 1 c 0
 128 1 87 0 58 -1 c 1
 56 1 54 7 54 11 c 0
 54 16 56 22 58 24 c 1
 110 26 124 30 124 92 c 2
 124 393 l 2
 124 455 110 459 58 461 c 1
 56 463 54 469 54 473 c 0
 54 478 56 484 58 486 c 1
 88 485 128 484 155 484 c 0
EndSplineSet
EndChar

StartChar: E
Encoding: 69 69 169
Width: 474
VWidth: 831
Flags: W
HStem: 0 29<38.1875 99.1445 176.747 347.878> 242 29<170 297.349> 371 21G<367 371.5> 454 30<177.417 326.044> 461 24<38.0007 93>
VStem: 106 64<31.8696 242 271 449.845> 307 25<188.007 230.034 279.814 325.987> 361 25<372 406.75> 398 26<91.9779 127.74>
LayerCount: 2
Fore
SplineSet
262 271 m 6xf780
 302 271 305 293 305 306 c 4
 305 308 304 310 304 311 c 4
 304 313 304 314 305 314 c 4
 306 314 307 316 307 322 c 5
 309 324 315 326 319 326 c 4
 324 326 330 324 332 322 c 5
 331 304 330 278 330 257 c 4
 330 231 331 211 332 191 c 5
 330 189 324 188 319 188 c 4
 315 188 309 189 307 191 c 5
 305 225 302 242 238 242 c 6
 170 242 l 5
 170 77 l 6
 170 42 180 29 212 29 c 6
 299 29 l 6
 356 29 383 74 398 128 c 5
 401 129 403 128 406 128 c 4
 412 128 419 127 424 124 c 5
 418 86 406 38 396 0 c 5
 41 0 l 5
 39 2 38 7 38 11 c 4
 38 16 39 21 41 23 c 5
 93 25 106 30 106 92 c 6
 106 392 l 6
 106 454 93 459 41 461 c 5
 39 463 38 469 38 473 c 4
 38 478 39 483 41 485 c 5xef80
 71 484 115 484 138 484 c 6
 329 484 l 6xf780
 347 484 353 485 366 487 c 4
 368 487 369 487 369 485 c 4xef80
 371 479 382 407 386 376 c 5
 381 373 375 371 368 371 c 4
 366 371 363 372 361 372 c 5
 345 424 332 454 276 454 c 6
 220 454 l 6
 180 454 170 439 170 406 c 6
 170 271 l 5
 262 271 l 6xf780
EndSplineSet
EndChar

StartChar: F
Encoding: 70 70 170
Width: 427
VWidth: 830
Flags: W
HStem: 1 23<36.0359 91 181 236.931> 243 29<168 294.635> 373 21G<350 362.5> 455 30<36.1648 97.1445 173.014 314.187>
VStem: 104 64<30.0469 243 272 453.125> 306 24<188.001 229.153 282.125 325.999> 358 23<375.019 401.897>
LayerCount: 2
Fore
SplineSet
254 243 m 6
 168 243 l 5
 168 92 l 6
 168 30 181 26 233 24 c 5
 235 22 237 16 237 11 c 4
 237 7 235 3 233 1 c 5
 224 1 214 1 204 1 c 4
 183 1 158 1 136 1 c 4
 102 1 65 0 39 -1 c 5
 37 1 36 7 36 11 c 4
 36 16 37 22 39 24 c 5
 91 26 104 30 104 92 c 6
 104 393 l 6
 104 455 91 459 39 461 c 5
 37 463 36 469 36 473 c 4
 36 478 37 484 39 486 c 5
 69 485 111 485 135 485 c 6
 327 485 l 6
 346 485 349 486 362 488 c 4
 364 488 365 487 365 485 c 4
 367 479 377 408 381 377 c 5
 375 375 367 373 358 373 c 5
 342 425 323 455 243 455 c 6
 210 455 l 6
 177 455 168 447 168 407 c 6
 168 272 l 5
 237 272 l 6
 301 272 304 282 306 323 c 5
 308 325 314 326 318 326 c 4
 323 326 328 325 330 323 c 5
 329 303 329 283 329 258 c 4
 329 232 329 211 330 192 c 5
 328 190 323 188 318 188 c 4
 314 188 308 190 306 192 c 5
 306 194 306 196 305 196 c 4
 303 196 313 243 254 243 c 6
EndSplineSet
EndChar

StartChar: G
Encoding: 71 71 171
Width: 605
VWidth: 831
Flags: W
HStem: -0 26<270.807 417.602> 206 27<381.007 437.205 514.713 546.993> 474 26<265.225 391.847>
VStem: 76 72<149.692 344.272> 445 64<62.3274 200.533> 479 25<347.658 379.597>
LayerCount: 2
Fore
SplineSet
331 500 m 4xf8
 414 500 442 475 487 467 c 5
 499 413 504 383 504 351 c 5
 496 348 490 347 482 347 c 4
 481 347 480 347 479 347 c 5xf4
 459 411 429 474 320 474 c 4
 232 474 148 383 148 252 c 4
 148 153 211 26 329 26 c 4
 369 26 419 31 445 55 c 5
 445 170 l 6
 445 200 425 203 384 206 c 5
 382 208 381 214 381 219 c 4
 381 224 382 231 384 233 c 5
 417 232 451 231 477 231 c 4
 507 231 526 232 544 233 c 5
 546 231 547 224 547 219 c 4
 547 214 546 208 544 206 c 5
 522 204 509 196 509 170 c 6
 509 83 l 6
 509 75 513 69 521 62 c 5
 470 18 400 0 312 -0 c 4
 169 0 76 102 76 237 c 4
 76 402 206 500 331 500 c 4xf8
EndSplineSet
EndChar

StartChar: H
Encoding: 72 72 172
Width: 636
VWidth: 830
Flags: W
HStem: -1 25<57.013 113.895 202.105 257.993 378.007 433.895 522.105 578.987> 241 32<190 446> 461 25<57.013 113.895 202.105 257.993 378.007 433.895 522.105 578.987>
VStem: 126 64<30.0469 241 273 454.953> 446 64<30.0469 241 273 454.953>
LayerCount: 2
Fore
SplineSet
510 92 m 6
 510 30 523 26 575 24 c 5
 577 22 579 16 579 11 c 4
 579 7 577 1 575 -1 c 5
 542 0 506 1 478 1 c 4
 450 1 415 0 381 -1 c 5
 379 1 378 7 378 11 c 4
 378 16 379 22 381 24 c 5
 433 26 446 30 446 92 c 6
 446 241 l 5
 190 241 l 5
 190 92 l 6
 190 30 203 26 255 24 c 5
 257 22 258 16 258 11 c 4
 258 7 257 1 255 -1 c 5
 222 0 185 1 158 1 c 4
 130 1 94 0 61 -1 c 5
 59 1 57 7 57 11 c 4
 57 16 59 22 61 24 c 5
 113 26 126 30 126 92 c 6
 126 393 l 6
 126 455 113 459 61 461 c 5
 59 463 57 469 57 473 c 4
 57 478 59 484 61 486 c 5
 89 485 120 484 158 484 c 4
 196 484 227 485 255 486 c 5
 257 484 258 478 258 473 c 4
 258 469 257 463 255 461 c 5
 203 459 190 455 190 393 c 6
 190 273 l 5
 446 273 l 5
 446 393 l 6
 446 455 433 459 381 461 c 5
 379 463 378 469 378 473 c 4
 378 478 379 484 381 486 c 5
 414 485 450 484 478 484 c 4
 506 484 544 485 575 486 c 5
 577 484 579 478 579 473 c 4
 579 469 577 463 575 461 c 5
 523 459 510 455 510 393 c 6
 510 92 l 6
EndSplineSet
EndChar

StartChar: I
Encoding: 73 73 173
Width: 259
VWidth: 830
Flags: W
HStem: -1 25<29.013 85.8951 174.105 229.993> 461 25<29.013 85.8951 174.105 229.993>
VStem: 98 64<30.0469 454.953>
LayerCount: 2
Fore
SplineSet
162 92 m 6
 162 30 175 26 227 24 c 5
 229 22 230 16 230 11 c 4
 230 7 229 1 227 -1 c 5
 193 0 157 1 130 1 c 4
 103 1 67 0 33 -1 c 5
 31 1 29 7 29 11 c 4
 29 16 31 22 33 24 c 5
 85 26 98 30 98 92 c 6
 98 393 l 6
 98 455 85 459 33 461 c 5
 31 463 29 469 29 473 c 4
 29 478 31 484 33 486 c 5
 68 485 104 484 130 484 c 4
 158 484 194 485 227 486 c 5
 229 484 230 478 230 473 c 4
 230 469 229 463 227 461 c 5
 175 459 162 455 162 393 c 6
 162 92 l 6
EndSplineSet
EndChar

StartChar: J
Encoding: 74 74 174
Width: 279
VWidth: 809
Flags: W
HStem: -130 34<-4 69.7722> 460 25<29.0066 91.986 179.309 229.987>
VStem: 105 63<-31.8705 452.818>
LayerCount: 2
Fore
SplineSet
168 392 m 2
 168 77 l 2
 168 -30 125 -69 92 -97 c 0
 61 -123 38 -130 4 -130 c 0
 -12 -130 -52 -116 -52 -89 c 0
 -52 -73 -29 -57 -19 -57 c 0
 0 -57 7 -67 11 -76 c 0
 16 -87 27 -96 41 -96 c 0
 66 -96 105 -75 105 60 c 2
 105 392 l 2
 105 454 92 458 32 460 c 1
 30 462 29 468 29 472 c 0
 29 477 30 483 32 485 c 1
 70 484 109 483 136 483 c 0
 165 483 198 484 226 485 c 1
 228 483 230 477 230 472 c 0
 230 468 228 462 226 460 c 1
 181 458 168 454 168 392 c 2
EndSplineSet
EndChar

StartChar: K
Encoding: 75 75 175
Width: 565
VWidth: 830
Flags: W
HStem: 1 23<51.0359 106.5 197 251.964 467.132 513.931> 461 25<51.0066 107.419 196.105 251.993 342.013 380.565 445.59 504.993>
VStem: 120 64<30.5971 232 261 454.403>
LayerCount: 2
Fore
SplineSet
184 92 m 6
 184 30 197 26 249 24 c 5
 251 22 252 16 252 11 c 4
 252 7 251 3 249 1 c 5
 238 1 226 1 215 1 c 4
 193 1 171 1 152 1 c 4
 123 1 88 0 54 -1 c 5
 52 1 51 7 51 11 c 4
 51 16 52 22 54 24 c 5
 106 26 120 30 120 92 c 6
 120 393 l 6
 120 455 106 459 54 461 c 5
 52 463 51 469 51 473 c 4
 51 478 52 484 54 486 c 5
 88 485 123 484 151 484 c 4
 178 484 215 485 249 486 c 5
 251 484 252 478 252 473 c 4
 252 469 251 463 249 461 c 5
 197 459 184 455 184 393 c 6
 184 261 l 5
 210 263 227 273 243 290 c 6
 366 422 l 6
 376 433 381 441 381 446 c 4
 381 457 364 459 346 461 c 5
 344 463 342 469 342 473 c 4
 342 478 344 484 346 486 c 5
 374 485 402 484 430 484 c 4
 454 484 479 485 502 486 c 5
 504 484 505 478 505 473 c 4
 505 469 504 463 502 461 c 5
 472 459 441 456 407 419 c 5
 297 306 l 6
 271 280 270 274 270 269 c 4
 270 263 274 257 280 250 c 6
 444 55 l 6
 467 28 488 26 510 24 c 5
 512 22 514 16 514 11 c 4
 514 7 512 1 510 -1 c 5
 485 0 461 1 435 1 c 4
 419 1 409 0 394 -1 c 4
 391 -1 390 2 390 4 c 4
 388 16 379 35 364 55 c 6
 246 204 l 6
 231 224 210 231 184 232 c 5
 184 92 l 6
EndSplineSet
EndChar

StartChar: L
Encoding: 76 76 176
Width: 455
VWidth: 830
Flags: W
HStem: 1 29<43.2644 104.828 183.717 330.651> 461 25<43.0066 99.4185 187.581 243.993>
VStem: 112 63<33.9633 454.403> 388 24<96.6165 128>
LayerCount: 2
Fore
SplineSet
144 1 m 6
 118 1 75 0 46 -1 c 5
 44 1 43 7 43 11 c 4
 43 16 44 22 46 24 c 5
 98 26 112 30 112 92 c 6
 112 393 l 6
 112 455 98 459 46 461 c 5
 44 463 43 469 43 473 c 4
 43 478 44 484 46 486 c 5
 80 485 116 484 143 484 c 4
 171 484 207 485 241 486 c 5
 243 484 244 478 244 473 c 4
 244 469 243 463 241 461 c 5
 189 459 175 455 175 393 c 6
 175 82 l 6
 175 44 189 30 218 30 c 6
 265 30 l 6
 345 30 373 74 388 128 c 5
 390 128 392 129 394 129 c 4
 401 129 407 127 412 124 c 5
 408 85 401 37 393 -1 c 5
 393 -1 324 1 304 1 c 6
 144 1 l 6
EndSplineSet
EndChar

StartChar: M
Encoding: 77 77 177
Width: 731
VWidth: 829
Flags: W
HStem: -2 25<64.0066 103.555 178 204.993 498.007 545.916 616.201 666.987> 460 25<98.013 150.288 589.066 637.993>
LayerCount: 2
Fore
SplineSet
547 148 m 6
 530 400 l 5
 528 400 l 5
 360 3 l 6
 357 -3 353 -8 349 -8 c 4
 345 -8 340 -2 338 3 c 6
 182 393 l 5
 181 393 l 5
 152 92 l 6
 151 84 151 78 151 71 c 4
 151 43 162 26 202 23 c 5
 204 21 205 15 205 10 c 4
 205 6 204 2 202 -0 c 5
 194 0 186 0 178 -0 c 4
 161 0 144 0 132 -0 c 4
 114 0 89 -1 67 -2 c 5
 65 0 64 6 64 10 c 4
 64 15 65 21 67 23 c 5
 110 27 119 45 123 90 c 6
 153 399 l 6
 154 410 155 419 155 426 c 4
 155 456 144 458 102 460 c 5
 100 462 98 468 98 472 c 4
 98 477 100 483 102 485 c 5
 211 483 l 5
 365 102 l 6
 367 96 369 93 371 93 c 4
 373 93 375 95 378 103 c 6
 536 483 l 5
 635 485 l 5
 637 483 638 477 638 472 c 4
 638 468 637 462 635 460 c 5
 592 458 582 449 582 423 c 4
 582 418 583 413 583 406 c 6
 606 90 l 6
 610 28 612 25 663 23 c 5
 665 21 667 15 667 10 c 4
 667 6 665 0 663 -2 c 5
 638 -1 604 0 582 -0 c 4
 560 0 529 -1 501 -2 c 5
 499 0 498 6 498 10 c 4
 498 15 499 21 501 23 c 5
 541 25 550 26 550 59 c 4
 550 67 547 138 547 148 c 6
EndSplineSet
EndChar

StartChar: N
Encoding: 78 78 178
Width: 619
VWidth: 829
Flags: W
HStem: -0 23<52.0692 104.033 174.967 225.964> 460 25<58.013 95.8735 393.007 445.642 514.486 566.993>
VStem: 121 37<34.0247 365.992> 462 36<116.006 448.19>
LayerCount: 2
Fore
SplineSet
460 385 m 6
 460 454 448 455 396 460 c 5
 394 462 393 468 393 472 c 4
 393 477 394 483 396 485 c 5
 429 484 464 483 480 483 c 4
 498 483 533 484 564 485 c 5
 566 483 567 477 567 472 c 4
 567 468 566 462 564 460 c 5
 512 455 498 451 498 384 c 6
 498 15 l 6
 498 1 491 -8 481 -8 c 4
 469 -8 459 -1 451 10 c 6
 190 341 l 6
 177 357 168 366 164 366 c 4
 158 366 158 355 158 329 c 6
 158 99 l 6
 158 31 171 28 223 23 c 5
 225 21 226 15 226 10 c 4
 226 6 225 2 223 -0 c 5
 213 0 202 0 192 -0 c 4
 171 0 151 0 140 -0 c 4
 128 0 109 0 88 -0 c 4
 78 0 66 0 56 -0 c 5
 54 2 52 6 52 10 c 4
 52 15 54 21 56 23 c 5
 108 28 121 32 121 99 c 6
 121 412 l 5
 117 432 94 458 62 460 c 5
 60 462 58 468 58 472 c 4
 58 477 60 483 62 485 c 5
 163 483 l 5
 420 157 l 6
 442 129 453 116 456 116 c 4
 461 116 462 124 462 138 c 6
 460 385 l 6
EndSplineSet
EndChar

StartChar: O
Encoding: 79 79 179
Width: 608
VWidth: 831
Flags: W
HStem: 0 28<255.742 373.233> 474 28<232.716 353.727>
VStem: 68 72<140.97 359.623> 468 72<141.019 360.305>
LayerCount: 2
Fore
SplineSet
289 474 m 4
 215 474 140 411 140 253 c 4
 140 109 226 28 318 28 c 4
 404 28 468 106 468 240 c 4
 468 392 388 474 289 474 c 4
540 255 m 4
 540 107 446 0 303 0 c 4
 175 0 68 92 68 240 c 4
 68 386 152 502 298 502 c 4
 432 502 540 410 540 255 c 4
EndSplineSet
EndChar

StartChar: P
Encoding: 80 80 180
Width: 460
VWidth: 831
Flags: W
HStem: 1.25 23.25<44.4021 100.438 194.566 257.348> 212.75 25.5<177.714 296.03> 220.25 21.75<177.125 233.238> 464.75 25.5<44.6445 97.5195 193.41 299.887>
VStem: 113.375 63.75<33.3991 220.25 239.473 455.297> 345.875 69.75<288.407 432.017>
LayerCount: 2
Fore
SplineSet
177.125 416.75 m 6xdc
 177.125 242 l 5xbc
 185.375 239.75 215.375 238.25 234.125 238.25 c 4
 306.875 238.25 345.875 271.25 345.875 352.25 c 4
 345.875 447.5 294.125 464.75 242.375 464.75 c 4
 188.375 464.75 177.125 438.5 177.125 416.75 c 6xdc
113.375 393.5 m 6
 113.375 455.75 100.625 459.5 48.125 461.75 c 5
 45.875 464 44.375 469.25 44.375 473.75 c 4
 44.375 479 45.875 484.25 48.125 486.5 c 5
 78.125 485.75 117.125 485 144.875 485 c 4
 174.875 485 219.125 490.25 247.625 490.25 c 4
 386.375 490.25 415.625 410 415.625 365.75 c 4
 415.625 302 374.375 212.75 237.875 212.75 c 4xdc
 211.625 212.75 193.625 215 177.125 220.25 c 5
 177.125 92.75 l 6
 177.125 30.5 195.125 27.5 253.625 24.5 c 5
 255.875 22.25 257.375 17 257.375 11.75 c 4
 257.375 7.25 255.875 3.5 253.625 1.25 c 5
 240.875 1.25 228.125 1.25 214.625 1.25 c 4
 188.375 1.25 162.875 1.25 145.625 1.25 c 4
 118.625 1.25 81.875 0.5 48.125 -0.25 c 5
 45.875 2 44.375 7.25 44.375 11.75 c 4
 44.375 17 45.875 22.25 48.125 24.5 c 5
 100.625 26.75 113.375 30.5 113.375 92.75 c 6
 113.375 393.5 l 6
EndSplineSet
EndChar

StartChar: Q
Encoding: 81 81 181
Width: 617
VWidth: 806
Flags: W
HStem: -151 43<394.296 511.436> -79 33<214.735 287.445> 473 27<233.344 352.727>
VStem: 67 72<140.488 358.104> 467 72<139.036 358.805>
LayerCount: 2
Fore
SplineSet
288 473 m 4
 214 473 139 409 139 251 c 4
 139 107 225 26 317 26 c 4
 403 26 467 105 467 239 c 4
 467 391 387 473 288 473 c 4
539 253 m 4
 539 117 462 22 346 2 c 5
 322 -5 286 -20 248 -48 c 5
 253 -46 259 -46 263 -46 c 4
 307 -46 344 -63 378 -79 c 4
 410 -94 440 -108 472 -108 c 4
 494 -108 521 -100 537 -80 c 5
 550 -89 l 5
 521 -131 489 -151 442 -151 c 4
 389 -151 351 -130 316 -110 c 4
 287 -94 260 -79 228 -79 c 4
 222 -79 211 -81 201 -89 c 5
 191 -99 182 -111 173 -124 c 5
 144 -109 l 5
 148 -103 152 -96 157 -91 c 4
 183 -59 225 -24 271 0 c 5
 158 14 67 103 67 239 c 4
 67 385 151 500 297 500 c 4
 431 500 539 408 539 253 c 4
EndSplineSet
EndChar

StartChar: R
Encoding: 82 82 182
Width: 530
VWidth: 830
Flags: W
HStem: -7.25 23.25<444.363 481.366> -1.25 24.75<48.6294 104.688 194.312 249.623> 218.5 25.5<181.375 252.987> 463.75 25.5<48.8945 101.769 196.192 299.294>
VStem: 117.625 63.75<29.6699 218.5 244 454.297> 343.375 69<290.035 432.3>
LayerCount: 2
Fore
SplineSet
243.625 463.75 m 4x3c
 190.375 463.75 181.375 437.5 181.375 415.75 c 6
 181.375 244 l 5
 217.375 244 l 6
 290.125 244 343.375 265 343.375 358.75 c 4
 343.375 447.25 289.375 463.75 243.625 463.75 c 4x3c
181.375 91.75 m 6
 181.375 29.5 194.125 25.75 246.625 23.5 c 5
 248.875 21.25 249.625 16 249.625 10.75 c 4
 249.625 6.25 248.875 1 246.625 -1.25 c 5
 213.625 -0.5 178.375 0.25 149.875 0.25 c 4
 120.625 0.25 86.125 -0.5 52.375 -1.25 c 5
 50.125 1 48.625 6.25 48.625 10.75 c 4
 48.625 16 50.125 21.25 52.375 23.5 c 5x7c
 104.875 25.75 117.625 29.5 117.625 91.75 c 6
 117.625 392.5 l 6
 117.625 454.75 104.875 458.5 52.375 460.75 c 5
 50.125 463 48.625 468.25 48.625 472.75 c 4
 48.625 478 50.125 483.25 52.375 485.5 c 5
 87.625 484.75 122.875 484 149.125 484 c 4
 176.125 484 207.625 489.25 242.875 489.25 c 4
 290.125 489.25 336.625 487 372.625 453.25 c 4
 399.625 427.75 412.375 397 412.375 359.5 c 4
 412.375 280.75 344.875 241.75 312.625 231.25 c 5
 407.125 73.75 l 6
 426.625 41.5 445.375 16 479.125 16 c 5
 480.625 13 481.375 9.25 481.375 5.5 c 4
 481.375 3.25 481.375 0.25 479.875 -2 c 5
 472.375 -5.75 459.625 -7.25 448.375 -7.25 c 4xbc
 403.375 -7.25 371.125 24.25 349.375 59.5 c 6
 269.125 190 l 6
 258.625 207.25 244.375 218.5 181.375 218.5 c 5
 181.375 91.75 l 6
EndSplineSet
EndChar

StartChar: S
Encoding: 83 83 183
Width: 412
VWidth: 831
Flags: W
HStem: 0.5 27<140.112 261.557> 476 25.5<162.602 258.377>
VStem: 49.625 24.75<96.7334 135.426> 67.625 53.25<340.653 442.258> 299.375 63<73.6581 183.995> 314.375 24<379.582 411.598>
LayerCount: 2
Fore
SplineSet
323.375 482.75 m 5xd8
 330.875 443 336.125 420.5 338.375 384.5 c 5
 333.875 380.75 327.875 379.25 321.875 379.25 c 4
 318.875 379.25 316.625 379.25 314.375 380 c 5
 299.375 429.5 276.125 476 203.375 476 c 4
 159.125 476 120.875 434 120.875 392 c 4xd4
 120.875 329 195.875 300.5 240.875 284 c 4
 302.375 260.75 362.375 225.5 362.375 146 c 4
 362.375 98 335.375 52.25 291.875 25.25 c 4
 265.625 8.75 233.375 0.5 199.625 0.5 c 4
 132.875 0.5 111.875 17.75 64.625 17.75 c 5
 55.625 54.5 52.625 74 49.625 131.75 c 5
 54.125 134 58.625 135.5 63.875 135.5 c 4
 67.625 135.5 70.625 134.75 74.375 134 c 5xe8
 90.875 59 135.875 27.5 205.625 27.5 c 4
 265.625 27.5 299.375 59 299.375 119.75 c 4
 299.375 193.25 243.875 214.25 198.875 231.5 c 4
 132.875 257 67.625 293 67.625 371.75 c 4
 67.625 451.25 134.375 501.5 210.125 501.5 c 4
 283.625 501.5 279.875 488.75 323.375 482.75 c 5xd8
EndSplineSet
EndChar

StartChar: T
Encoding: 84 84 184
Width: 520
VWidth: 831
Flags: W
HStem: 1 24<160.018 222 314 375.964> 380 111<55.9104 73.4114 448.213 471.773> 456 29<106.166 226.276 310.124 414.097>
VStem: 40 25<377.921 407.779> 236 65<32.2494 453.007> 455 25<380.043 411.652>
LayerCount: 2
Fore
SplineSet
301 94 m 6xbc
 301 31 312 27 372 25 c 5
 374 23 376 17 376 12 c 4
 376 8 374 3 372 1 c 5
 359 1 348 1 335 1 c 4
 310 1 287 1 268 1 c 4
 238 1 200 1 163 -0 c 5
 161 2 160 8 160 12 c 4
 160 17 161 23 163 25 c 5
 223 27 236 31 236 93 c 6
 236 382 l 6
 236 428 229 456 201 456 c 6
 164 456 l 6xbc
 114 456 80 436 65 376 c 5
 56 376 48 377 40 380 c 5
 48 416 55 455 58 489 c 4
 58 490 59 491 61 491 c 4xdc
 89 489 178 485 236 485 c 6
 300 485 l 6xbc
 359 485 442 489 468 491 c 4xdc
 469 491 471 490 471 489 c 4
 472 455 475 416 480 382 c 5
 473 379 463 379 455 379 c 5
 442 437 407 456 351 456 c 6
 334 456 l 6
 307 456 300 427 300 379 c 6
 301 94 l 6xbc
EndSplineSet
EndChar

StartChar: U
Encoding: 85 85 185
Width: 579
VWidth: 829
Flags: W
HStem: 0 31<236.24 368.257> 468 25<46.0066 95.1672 181.834 241.993 364.007 421.518 485.856 532.993>
VStem: 106 64<89.0156 461.953> 436 36<102.241 457.645>
LayerCount: 2
Fore
SplineSet
170 400 m 6
 170 207 l 6
 170 158 171 101 208 66 c 4
 230 44 262 31 298 31 c 4
 425 31 436 131 436 215 c 6
 436 400 l 6
 436 461 423 463 367 468 c 5
 365 470 364 476 364 480 c 4
 364 485 365 491 367 493 c 5
 378 493 390 493 401 493 c 4
 423 493 443 493 454 493 c 4
 465 493 483 493 502 493 c 4
 511 493 520 493 530 493 c 5
 532 491 533 485 533 480 c 4
 533 476 532 470 530 468 c 5
 485 463 472 460 472 400 c 6
 472 229 l 6
 472 95 436 0 282 0 c 4
 205 0 106 29 106 182 c 6
 106 400 l 6
 106 462 94 466 49 468 c 5
 47 470 46 476 46 480 c 4
 46 485 47 491 49 493 c 5
 78 492 109 491 138 491 c 4
 167 491 204 492 239 493 c 5
 241 491 242 485 242 480 c 4
 242 476 241 470 239 468 c 5
 181 466 170 462 170 400 c 6
EndSplineSet
EndChar

StartChar: V
Encoding: 86 86 186
Width: 571
VWidth: 829
Flags: W
HStem: 0 21G<275 283> 470 25<42.013 83.2658 172.408 216.993 375.007 419.792 489.48 528.993>
LayerCount: 2
Fore
SplineSet
378 470 m 5
 376 472 375 478 375 482 c 4
 375 487 376 493 378 495 c 5
 409 494 443 493 460 493 c 4
 477 493 504 494 526 495 c 5
 528 493 529 487 529 482 c 4
 529 478 528 472 526 470 c 5
 479 465 466 435 452 400 c 6
 297 18 l 6
 293 8 287 0 279 0 c 4
 271 0 266 6 262 18 c 6
 114 402 l 6
 94 454 87 466 46 470 c 5
 44 472 42 478 42 483 c 4
 42 487 44 493 46 495 c 5
 71 494 97 493 124 493 c 4
 151 493 184 494 214 495 c 5
 216 493 217 487 217 482 c 4
 217 478 216 472 214 470 c 5
 180 466 167 460 167 444 c 4
 167 436 171 425 176 410 c 6
 295 105 l 5
 299 105 l 5
 418 405 l 6
 423 419 426 431 426 441 c 4
 426 458 414 468 378 470 c 5
EndSplineSet
EndChar

StartChar: W
Encoding: 87 87 187
Width: 835
VWidth: 829
Flags: W
HStem: 0 21G<274 283 531.5 540> 470 25<63.013 105.449 185.806 227.987 315.007 356.937 448.051 489.987 618.007 667.688 727.187 771.987>
LayerCount: 2
Fore
SplineSet
670 433 m 6
 672 437 672 442 672 446 c 4
 672 466 647 468 621 470 c 5
 619 472 618 478 618 482 c 4
 618 487 619 493 621 495 c 5
 651 494 683 493 703 493 c 4
 723 493 746 494 768 495 c 5
 770 493 772 487 772 482 c 4
 772 478 770 472 768 470 c 5
 727 468 714 450 704 424 c 6
 553 20 l 6
 549 9 544 0 536 0 c 4
 527 0 523 8 519 21 c 6
 432 270 l 6
 428 283 425 291 422 291 c 4
 418 291 416 287 409 272 c 6
 298 21 l 6
 293 8 288 0 278 0 c 4
 270 0 266 9 262 21 c 6
 120 426 l 6
 106 466 101 468 67 470 c 5
 65 472 63 478 63 482 c 4
 63 487 65 493 67 495 c 5
 89 494 111 493 137 493 c 4
 166 493 199 494 224 495 c 5
 226 493 228 487 228 482 c 4
 228 478 226 472 224 470 c 5
 202 468 184 466 184 450 c 4
 184 447 184 442 186 438 c 6
 296 107 l 5
 300 106 l 5
 396 326 l 6
 401 339 403 344 403 352 c 4
 403 359 401 366 398 375 c 6
 381 425 l 6
 374 445 358 468 318 470 c 5
 316 472 315 478 315 482 c 4
 315 487 316 493 318 495 c 5
 342 494 368 493 393 493 c 4
 423 493 455 494 486 495 c 5
 488 493 490 487 490 482 c 4
 490 478 488 472 486 470 c 5
 465 468 444 466 444 444 c 4
 444 439 446 433 448 425 c 6
 550 108 l 5
 553 108 l 5
 670 433 l 6
EndSplineSet
EndChar

StartChar: X
Encoding: 88 88 188
Width: 564
VWidth: 830
Flags: W
HStem: -1 25<41.013 90.7393 154.163 193.993 355.007 390.993 478.936 522.931> 461 25<50.0359 95.728 182.007 217.987 361.007 399.848 464.261 513.987>
VStem: 247 69<222.656 273.25>
LayerCount: 2
Fore
SplineSet
443 77 m 6
 475 33 487 26 519 24 c 5
 521 22 523 15 523 10 c 4
 523 6 522 1 520 -1 c 5
 498 0 472 1 443 1 c 4
 413 1 386 0 358 -1 c 5
 356 1 355 7 355 11 c 4
 355 16 356 22 358 24 c 5
 381 26 391 28 391 36 c 4
 391 42 385 50 376 64 c 6
 283 196 l 6
 279 202 275 205 272 205 c 4
 270 205 265 200 261 194 c 6
 162 55 l 6
 157 47 154 42 154 38 c 4
 154 28 168 26 191 24 c 5
 193 22 194 16 194 11 c 4
 194 7 193 1 191 -1 c 5
 161 0 129 1 112 1 c 4
 95 1 67 0 45 -1 c 5
 43 1 41 7 41 11 c 4
 41 16 43 22 45 24 c 5
 79 27 102 36 128 70 c 6
 239 219 l 6
 243 225 247 232 247 236 c 4
 247 244 242 250 236 259 c 6
 130 411 l 6
 98 455 85 459 53 461 c 5
 51 463 50 470 50 475 c 4
 50 479 50 484 52 486 c 5
 74 485 100 484 129 484 c 4
 159 484 186 485 214 486 c 5
 216 484 218 478 218 473 c 4
 218 469 216 463 214 461 c 5
 191 459 182 457 182 449 c 4
 182 443 187 434 197 421 c 5
 280 298 l 6
 284 293 287 289 289 289 c 4
 292 289 297 291 301 298 c 6
 393 430 l 6
 398 438 400 443 400 447 c 4
 400 457 387 459 364 461 c 5
 362 463 361 469 361 473 c 4
 361 478 362 484 364 486 c 5
 394 485 425 484 442 484 c 4
 459 484 488 485 510 486 c 5
 512 484 514 478 514 473 c 4
 514 469 512 463 510 461 c 5
 476 458 453 449 427 415 c 6
 324 282 l 6
 317 273 316 266 316 259 c 4
 316 251 320 245 328 235 c 6
 443 77 l 6
EndSplineSet
EndChar

StartChar: Y
Encoding: 89 89 189
Width: 504
VWidth: 830
Flags: W
HStem: -1 25<149.013 212.986 302.537 364.993> 461 25<37.0692 82.6602 165.293 205.987 329.013 367.863 421.057 466.993>
VStem: 226 64<31.1824 252.781>
LayerCount: 2
Fore
SplineSet
290 92 m 6
 290 30 302 26 362 24 c 5
 364 22 365 16 365 11 c 4
 365 7 364 1 362 -1 c 5
 324 0 287 1 258 1 c 4
 229 1 190 0 153 -1 c 5
 151 1 149 7 149 11 c 4
 149 16 151 22 153 24 c 5
 213 26 226 30 226 92 c 6
 226 187 l 6
 226 215 223 223 210 245 c 6
 112 411 l 6
 86 455 73 459 41 461 c 5
 39 463 37 470 37 475 c 4
 37 479 38 484 40 486 c 5
 62 485 88 484 117 484 c 4
 147 484 175 485 202 486 c 5
 204 484 206 478 206 473 c 4
 206 469 204 463 202 461 c 5
 176 459 165 456 165 446 c 4
 165 440 169 432 176 420 c 6
 262 266 l 6
 266 260 270 256 272 256 c 4
 274 256 276 260 279 265 c 6
 362 421 l 6
 366 430 369 437 369 443 c 4
 369 456 356 459 333 461 c 5
 331 463 329 469 329 473 c 4
 329 478 331 484 333 486 c 5
 357 485 384 484 401 484 c 4
 418 484 443 485 464 486 c 5
 466 484 467 478 467 473 c 4
 467 469 466 463 464 461 c 5
 430 458 413 451 392 413 c 6
 302 251 l 6
 290 229 290 216 290 194 c 6
 290 92 l 6
EndSplineSet
EndChar

StartChar: Z
Encoding: 90 90 190
Width: 519
VWidth: 831
Flags: W
HStem: 1 28<150.004 369.728> 373 21G<92 104> 455 29<145.731 361.997> 470 20G<88.5 104>
VStem: 58 92<8 46.4034> 73 23<374.483 401.266> 362 94<441.505 480.5>
LayerCount: 2
Fore
SplineSet
441 1 m 5xea
 441 1 365 1 345 1 c 6
 72 1 l 6
 62 1 58 4 58 12 c 4
 58 17 60 23 64 29 c 4
 140 143 283 343 356 435 c 4
 360 440 362 444 362 448 c 4
 362 452 358 455 354 455 c 6xea
 196 452 l 6
 140 451 112 425 96 373 c 5
 88 373 81 374 73 376 c 5
 79 407 87 450 90 490 c 5xd6
 118 488 190 484 225 484 c 6
 391 484 l 6
 413 484 437 486 446 486 c 4
 452 486 456 483 456 478 c 4
 456 470 454 464 438 444 c 4
 350 330 211 135 156 55 c 4
 152 48 150 44 150 40 c 4
 150 33 156 29 168 29 c 4
 169 29 168 29 169 29 c 6
 314 32 l 6
 396 34 415 75 438 128 c 5
 448 128 456 126 461 124 c 5
 452 85 445 43 441 1 c 5xea
EndSplineSet
EndChar

StartChar: asciicircum
Encoding: 94 94 191
Width: 393
VWidth: 873
Flags: W
HStem: 334 228
VStem: 86 221
LayerCount: 2
Fore
SplineSet
196 519 m 1
 119 334 l 1
 86 334 l 1
 181 562 l 1
 212 562 l 1
 307 334 l 1
 274 334 l 1
 196 519 l 1
EndSplineSet
EndChar

StartChar: grave
Encoding: 96 96 192
Width: 170
VWidth: 903
Flags: W
HStem: 483 158
VStem: 17 136
LayerCount: 2
Fore
SplineSet
126 483 m 1
 17 639 l 2
 16 640 17 640 17 641 c 0
 17 642 17 642 19 642 c 2
 70 642 l 1
 153 489 l 2
 154 488 154 487 154 486 c 0
 154 484 153 483 151 483 c 2
 126 483 l 1
EndSplineSet
EndChar

StartChar: a
Encoding: 97 97 193
Width: 406
VWidth: 806
Flags: W
HStem: 0 31<123.338 197.541 269 343.07> 312 25<127.098 213.178>
VStem: 46 62<41.5469 134.725> 60 56<227.834 297.48> 239 59<56.3639 182 206.048 294.318>
LayerCount: 2
Fore
SplineSet
239 182 m 5xe8
 179 167 l 6
 123 153 108 118 108 84 c 4
 108 61 124 31 162 31 c 4
 183 31 208 48 228 64 c 4
 234 68 239 73 239 83 c 6
 239 182 l 5xe8
116 281 m 4xd8
 116 265 122 266 122 252 c 4
 122 242 108 227 86 227 c 4
 70 227 60 236 60 254 c 4xd8
 60 297 122 337 184 337 c 4
 240 337 298 316 298 210 c 6
 298 100 l 6
 298 66 298 36 320 36 c 4
 329 36 342 44 347 48 c 5
 356 43 358 37 360 28 c 5
 344 13 317 0 288 0 c 4
 250 0 243 21 239 44 c 5
 238 44 l 5
 222 32 l 6
 189 6 166 0 140 0 c 4
 88 0 46 19 46 81 c 4xe8
 46 132 98 172 170 190 c 6
 234 206 l 6
 236 207 239 210 239 215 c 4
 239 300 204 312 178 312 c 4
 150 312 116 305 116 281 c 4xd8
EndSplineSet
EndChar

StartChar: b
Encoding: 98 98 194
Width: 411
VWidth: 838
Flags: W
HStem: -1 26<171.007 252.172> 303 33<181.374 266.381> 488 22<37.3937 81.303>
VStem: 90 60<37.8501 286.248 306 485.919> 309 65<95.6691 260.938>
LayerCount: 2
Fore
SplineSet
162 279 m 4
 152 271 150 264 150 248 c 6
 150 60 l 5
 165 41 181 25 204 25 c 4
 275 25 309 89 309 175 c 4
 309 248 272 303 226 303 c 4
 204 303 182 296 162 279 c 4
157 302 m 4
 180 323 209 336 241 336 c 4
 306 336 374 280 374 188 c 4
 374 69 284 -1 208 -1 c 4
 181 -1 159 3 142 18 c 4
 138 21 134 22 132 22 c 4
 128 22 125 20 121 16 c 4
 116 9 108 2 104 -2 c 5
 95 -2 91 1 87 7 c 5
 89 17 90 31 90 60 c 6
 90 426 l 6
 90 489 81 486 42 488 c 5
 38 491 37 499 37 505 c 4
 37 507 37 508 38 510 c 5
 68 512 124 522 143 530 c 5
 150 530 153 528 153 523 c 6
 153 523 150 493 150 444 c 6
 150 306 l 6
 150 299 152 298 157 302 c 4
EndSplineSet
EndChar

StartChar: c
Encoding: 99 99 195
Width: 358
VWidth: 806
Flags: W
HStem: 0 37<158.69 261.544> 312 25<155.331 232.582>
VStem: 43 65<88.9976 251.791> 247 65<235.725 305.059>
LayerCount: 2
Fore
SplineSet
315 76 m 5
 277 14 237 0 192 0 c 4
 98 0 43 67 43 164 c 4
 43 270 123 337 198 337 c 4
 270 337 312 307 312 266 c 4
 312 243 291 233 276 233 c 4
 260 233 247 240 247 260 c 4
 247 286 238 312 193 312 c 4
 143 312 108 262 108 180 c 4
 108 92 154 37 208 37 c 4
 241 37 272 53 298 86 c 5
 306 86 312 83 315 76 c 5
EndSplineSet
EndChar

StartChar: d
Encoding: 100 100 196
Width: 445
VWidth: 838
Flags: W
HStem: 0 36<153.999 229.574> 30 20<351.246 395.999> 311 26<159.765 249.744> 488 23<226 271.212>
VStem: 49 64<78.7887 251.171> 278 60<64.5557 283.442 324.001 486.906>
LayerCount: 2
Fore
SplineSet
278 101 m 6xbc
 278 243 l 6
 278 266 276 272 266 284 c 4
 251 301 232 311 205 311 c 4
 190 311 158 308 135 273 c 4
 124 257 113 228 113 174 c 4
 113 80 156 36 196 36 c 4
 215 36 238 48 266 72 c 4
 276 81 278 87 278 101 c 6xbc
271 47 m 4
 234 17 205 0 176 0 c 4xbc
 95 0 49 68 49 160 c 4
 49 216 69 260 101 292 c 5
 131 320 163 337 213 337 c 4
 238 337 269 324 272 324 c 4
 277 324 278 326 278 331 c 6
 278 427 l 6
 278 487 270 488 236 488 c 4
 230 488 l 5
 227 491 225 499 225 505 c 4
 225 507 226 509 226 511 c 5
 256 511 312 523 331 531 c 5
 338 531 341 529 341 524 c 6
 341 524 338 494 338 445 c 6
 338 105 l 6
 338 68 344 50 392 50 c 5
 394 48 396 44 396 40 c 4
 396 36 394 32 392 30 c 5x7c
 346 25 320 14 304 0 c 5
 302 -2 299 -1 297 -1 c 4
 295 -1 293 -2 290 0 c 5
 290 0 283 25 281 44 c 4
 281 49 275 50 271 47 c 4
EndSplineSet
EndChar

StartChar: e
Encoding: 101 101 197
Width: 383
VWidth: 805
Flags: W
HStem: -0 37<172.026 276.614> 193 26<118 264.998> 310 25<162.017 239.677>
VStem: 53 63<94.5687 193 219 250.335> 265 65<201 289.403>
LayerCount: 2
Fore
SplineSet
118 219 m 5
 254 221 l 6
 262 221 265 225 265 232 c 4
 265 295 231 310 203 310 c 4
 185 310 132 304 118 219 c 5
203 -0 m 4
 105 0 53 65 53 159 c 4
 53 273 138 335 203 335 c 4
 307 335 330 268 330 205 c 4
 330 197 324 192 315 192 c 6
 116 193 l 5
 116 149 125 116 140 91 c 4
 163 53 195 37 222 37 c 4
 266 37 286 49 314 77 c 5
 323 76 328 73 330 65 c 5
 300 26 260 0 203 -0 c 4
EndSplineSet
EndChar

StartChar: f
Encoding: 102 102 198
Width: 341
VWidth: 837
Flags: W
HStem: -0.5 24.75<30.6272 75.0625 154.938 212.121> 293.5 29.25<30.6362 86.125 145.375 231.911> 499 25.5<174.726 236.543>
VStem: 86.125 59.25<29.2963 293.5 322.75 450.512>
LayerCount: 2
Fore
SplineSet
145.375 92.5 m 6
 145.375 30.25 149.875 27.25 208.375 24.25 c 5
 210.625 22 212.125 16.75 212.125 11.5 c 4
 212.125 6.25 210.625 1.75 208.375 -0.5 c 5
 182.125 0.25 146.125 1 116.125 1 c 4
 86.125 1 59.875 0.25 33.625 -0.5 c 5
 31.375 1.75 30.625 6.25 30.625 11.5 c 4
 30.625 16.75 31.375 22 33.625 24.25 c 5
 74.125 27.25 86.125 30.25 86.125 92.5 c 6
 86.125 293.5 l 5
 34.375 293.5 l 6
 31.375 293.5 30.625 294.25 30.625 298 c 6
 30.625 307.75 l 6
 30.625 313.75 34.375 322.75 47.875 322.75 c 6
 86.125 322.75 l 5
 86.125 352.75 l 6
 86.125 469.75 155.875 524.5 218.875 524.5 c 4
 247.375 524.5 266.875 522.25 286.375 508.75 c 5
 302.125 496.75 310.375 483.25 310.375 470.5 c 4
 310.375 455.5 292.375 439.75 279.625 439.75 c 4
 263.875 439.75 255.625 450.25 249.625 463.75 c 4
 239.125 490 227.125 499 204.625 499 c 4
 179.875 499 145.375 481 145.375 365.5 c 6
 145.375 322.75 l 5
 226.375 322.75 l 6
 230.125 322.75 232.375 321.25 232.375 318.25 c 6
 232.375 303.25 l 6
 232.375 296.5 221.875 293.5 215.125 293.5 c 6
 145.375 293.5 l 5
 145.375 92.5 l 6
EndSplineSet
EndChar

StartChar: g
Encoding: 103 103 199
Width: 441
VWidth: 781
Flags: W
HStem: -168 27<146.829 262.468> 1 46<127.424 316.72> 112 23<163.817 239.918> 316 23<158.785 234.343> 323 33<304.492 370.75>
VStem: 52 52<-113.082 -25.759> 73 61<160.38 289.625> 79 40<50.0888 126.293> 268 60<160.238 292.453> 341 41<-93.5391 -23.5255>
LayerCount: 2
Fore
SplineSet
268 219 m 4xf2c0
 268 281 242 316 194 316 c 4
 154 316 134 288 134 236 c 4
 134 188 142 135 205 135 c 4
 232 135 268 149 268 219 c 4xf2c0
127 2 m 5
 106 -24 104 -42 104 -68 c 4xe4c0
 104 -119 167 -141 194 -141 c 4
 262 -141 341 -112 341 -58 c 4
 341 -38 332 -28 302 -12 c 4
 281 0 250 1 212 1 c 4
 202 1 181 -1 157 -1 c 4
 148 -1 136 0 127 2 c 5
169 43 m 4
 187 43 223 47 239 47 c 4
 267 47 321 46 349 22 c 4
 371 4 382 -15 382 -39 c 4
 382 -120 272 -168 172 -168 c 4
 114 -168 52 -148 52 -83 c 4xecc0
 52 -51 73 -16 113 8 c 5
 93 18 79 39 79 66 c 4xe9c0
 79 92 91 123 112 141 c 5
 91 161 73 185 73 225 c 4
 73 294 134 339 202 339 c 4xf2c0
 246 339 271 324 280 318 c 5
 300 344 335 356 355 356 c 4
 375 356 389 345 389 329 c 4
 389 314 376 300 361 300 c 4
 353 300 343 308 340 314 c 5
 336 321 331 323 325 323 c 4
 316 323 301 313 295 305 c 5
 317 283 328 262 328 227 c 4
 328 153 266 112 200 112 c 4
 172 112 151 118 133 128 c 5
 124 115 119 99 119 84 c 4xe9c0
 119 52 147 43 169 43 c 4
EndSplineSet
EndChar

StartChar: h
Encoding: 104 104 200
Width: 466
VWidth: 837
Flags: W
HStem: -0 24<41.0007 86.5 163.25 203.999 263.001 303.466 381.945 424.999> 290 40<210.883 299.884> 482 22<44 87.303>
VStem: 96 59<28.2156 254.531 270 479.919> 313 59<28.6559 263.292>
LayerCount: 2
Fore
SplineSet
155 216 m 6
 155 92 l 6
 155 30 162 27 200 24 c 5
 202 22 204 17 204 12 c 4
 204 7 202 2 200 -0 c 5
 179 1 154 1 126 1 c 4
 96 1 69 1 44 -0 c 5
 42 2 41 7 41 12 c 4
 41 17 42 22 44 24 c 5
 88 27 96 30 96 92 c 6
 96 420 l 6
 96 483 87 480 48 482 c 5
 45 485 43 492 43 498 c 4
 43 500 44 502 44 504 c 5
 74 506 130 516 149 524 c 5
 156 524 158 522 158 517 c 6
 158 517 155 487 155 438 c 6
 155 270 l 6
 155 260 160 267 162 270 c 4
 208 321 253 330 290 330 c 4
 316 330 339 321 352 305 c 4
 370 282 372 245 372 204 c 6
 372 92 l 6
 372 30 380 28 422 24 c 5
 424 22 425 17 425 12 c 4
 425 7 424 2 422 -0 c 5
 397 1 373 1 343 1 c 4
 313 1 287 1 266 -0 c 5
 264 2 263 7 263 12 c 4
 263 17 264 22 266 24 c 5
 305 28 313 30 313 92 c 6
 313 206 l 6
 313 228 312 249 304 264 c 4
 296 281 280 290 264 290 c 4
 235 290 196 275 168 247 c 4
 162 240 155 232 155 216 c 6
EndSplineSet
EndChar

StartChar: i
Encoding: 105 105 201
Width: 247
VWidth: 830
Flags: W
HStem: -1 25<36.013 84.25 163.75 210> 290 20<44.0294 82.3148> 411 75<88.6423 155.421>
VStem: 84 76<416.127 480.58> 94 60<29.0562 285.565>
LayerCount: 2
Fore
SplineSet
84 450 m 4xf0
 84 468 106 486 124 486 c 4
 145 486 160 465 160 447 c 4
 160 431 141 411 120 411 c 4
 102 411 84 430 84 450 c 4xf0
154 92 m 6xe8
 154 30 162 27 208 24 c 5
 210 22 210 16 210 11 c 4
 210 6 210 1 208 -1 c 5
 182 0 154 1 124 1 c 4
 94 1 66 0 40 -1 c 5
 38 1 36 6 36 11 c 4
 36 16 38 22 40 24 c 5
 86 28 94 30 94 92 c 6
 94 238 l 6
 94 281 86 286 46 290 c 5
 44 294 42 306 44 310 c 5
 95 317 125 324 146 332 c 5
 152 332 156 330 156 327 c 6
 156 327 154 279 154 241 c 6
 154 92 l 6xe8
EndSplineSet
EndChar

StartChar: j
Encoding: 106 106 202
Width: 202
VWidth: 809
Flags: W
HStem: -166 33<10 77.9531> 290 21<46.0294 84.9435> 411 75<90.4495 156.633>
VStem: 86 75<415.66 481.075> 97 59<-90.2601 285.205>
LayerCount: 2
Fore
SplineSet
86 450 m 0xf0
 86 468 107 486 125 486 c 0
 145 486 161 465 161 447 c 0
 161 431 143 411 122 411 c 0
 104 411 86 430 86 450 c 0xf0
97 238 m 2xe8
 97 281 88 286 48 290 c 1
 46 294 44 307 46 311 c 1
 98 318 128 324 149 332 c 1
 155 332 159 330 159 327 c 2
 159 327 156 280 156 242 c 2
 156 84 l 2
 156 -58 135 -113 100 -141 c 0
 72 -164 33 -166 17 -166 c 0
 3 -166 -24 -156 -24 -134 c 0
 -24 -120 -8 -106 -0 -106 c 0
 16 -106 25 -117 33 -125 c 0
 38 -130 48 -133 56 -133 c 0
 94 -133 97 -41 97 58 c 2
 97 238 l 2xe8
EndSplineSet
EndChar

StartChar: k
Encoding: 107 107 203
Width: 460
VWidth: 837
Flags: W
HStem: -0 24<45.0007 89.25 165.875 200.999 368.546 414.999> 300 24<249.001 277.734 340.793 393.999> 482 22<46.4524 91.2116>
VStem: 99 59<28.2156 158 176 480.75>
LayerCount: 2
Fore
SplineSet
99 92 m 2
 99 420 l 2
 99 480 90 482 56 482 c 2
 51 482 l 1
 48 485 46 492 46 498 c 0
 46 500 46 502 46 504 c 1
 76 504 132 516 151 524 c 1
 158 524 161 522 161 517 c 2
 161 517 158 487 158 438 c 2
 158 176 l 1
 172 178 193 187 209 200 c 0
 229 214 252 239 269 261 c 0
 273 265 279 274 279 282 c 0
 279 290 273 300 252 300 c 1
 250 302 249 307 249 312 c 0
 249 317 250 322 252 324 c 1
 269 324 297 323 325 323 c 0
 352 323 373 324 390 324 c 1
 392 322 394 317 394 312 c 0
 394 307 392 302 390 300 c 1
 360 300 334 290 312 266 c 2
 246 198 l 2
 243 195 243 194 243 191 c 0
 243 187 245 183 248 180 c 2
 347 56 l 2
 367 30 386 27 412 24 c 1
 414 22 415 17 415 12 c 0
 415 7 414 2 412 -0 c 1
 397 0 373 1 350 1 c 0
 335 1 319 0 304 -0 c 0
 302 0 300 1 300 3 c 0
 300 11 291 26 269 56 c 2
 214 129 l 2
 205 141 198 148 190 153 c 1
 182 156 172 158 158 158 c 1
 158 92 l 2
 158 30 166 27 197 24 c 1
 199 22 201 17 201 12 c 0
 201 7 199 2 197 -0 c 1
 180 1 155 1 129 1 c 0
 99 1 73 1 48 -0 c 1
 46 2 45 7 45 12 c 0
 45 17 46 22 48 24 c 1
 90 27 99 30 99 92 c 2
EndSplineSet
EndChar

StartChar: l
Encoding: 108 108 204
Width: 232
VWidth: 837
Flags: W
HStem: -0 24<46.0007 93.875 172.125 219.999> 482 22<50.4746 95.8744> 504 20G<146 159>
VStem: 104 58<28.1699 478.922>
LayerCount: 2
Fore
SplineSet
104 92 m 6xb0
 104 420 l 6
 104 476 100 479 56 482 c 5
 52 485 50 492 50 498 c 4
 50 500 50 502 51 504 c 5xd0
 81 506 136 516 156 524 c 5
 162 524 165 522 165 517 c 6
 165 517 162 487 162 438 c 6
 162 92 l 6
 162 30 171 26 216 24 c 5
 219 22 220 17 220 12 c 4
 220 7 219 2 216 -0 c 5
 192 1 164 1 134 1 c 4
 104 1 76 1 50 -0 c 5
 47 2 46 7 46 12 c 4
 46 17 47 22 50 24 c 5
 95 26 104 30 104 92 c 6xb0
EndSplineSet
EndChar

StartChar: m
Encoding: 109 109 205
Width: 693
VWidth: 805
Flags: W
HStem: -2 25<62.013 106.875 185.397 224.993 270.007 311 385.654 425 472.007 513.755 588.995 631> 289 40<231.654 307.893 425.758 513.148> 289 21<66.0294 106.382>
VStem: 117 59<27.868 253.531 281.873 284.123> 319 59<26.5156 261.615> 522 59<25.729 281.749>
LayerCount: 2
Fore
SplineSet
174 268 m 4xbc
 174 259 179 264 183 268 c 4
 214 302 253 329 297 329 c 4
 336 329 364 305 372 274 c 4
 374 268 378 272 380 274 c 4
 419 315 465 329 504 329 c 4
 570 329 581 277 581 210 c 6
 581 92 l 6
 581 30 588 23 629 23 c 5
 631 21 631 15 631 10 c 4
 631 5 631 0 629 -2 c 5
 608 -2 582 0 552 0 c 4
 522 0 494 -2 475 -2 c 5
 473 0 472 5 472 10 c 4
 472 15 473 21 475 23 c 5
 514 23 522 30 522 92 c 6
 522 224 l 6
 522 274 505 289 477 289 c 4
 448 289 414 281 378 241 c 5
 378 232 378 221 378 211 c 6
 378 92 l 6
 378 30 385 23 423 23 c 5
 425 21 425 15 425 10 c 4
 425 5 425 0 423 -2 c 5
 404 -2 379 0 349 0 c 4
 319 0 292 -1 273 -2 c 5
 271 0 270 5 270 10 c 4
 270 15 271 21 273 23 c 5
 313 26 319 30 319 92 c 6
 319 222 l 6
 319 272 298 289 270 289 c 4xdc
 247 289 218 274 189 246 c 4
 183 239 176 230 176 214 c 6
 176 92 l 6
 176 30 184 27 222 23 c 5
 224 21 225 15 225 10 c 4
 225 5 224 0 222 -2 c 5
 200 -1 177 0 147 0 c 4
 117 0 88 -1 66 -2 c 5
 64 0 62 5 62 10 c 4
 62 15 64 21 66 23 c 5
 107 26 117 30 117 92 c 6
 117 238 l 6
 117 282 108 285 68 289 c 5
 66 293 64 306 66 310 c 5
 118 317 138 324 159 332 c 5
 165 332 166 329 168 326 c 4
 171 318 172 290 174 268 c 4xbc
EndSplineSet
EndChar

StartChar: n
Encoding: 110 110 206
Width: 495
VWidth: 805
Flags: W
HStem: -2 25<57.0066 102.644 181.397 220.993 276.007 315.99 394.469 437.993> 289 40<227.348 311.703> 289 21<62.324 103.15>
VStem: 113 59<27.868 253.531 283.304 284.375> 325 59<27.868 262.293>
LayerCount: 2
Fore
SplineSet
179 268 m 4xb8
 223 319 265 329 302 329 c 4
 328 329 351 320 364 304 c 4
 381 281 384 244 384 203 c 6
 384 92 l 6
 384 30 393 27 435 23 c 5
 437 21 438 15 438 10 c 4
 438 5 437 0 435 -2 c 5
 413 -1 385 0 355 0 c 4
 325 0 301 -1 279 -2 c 5
 277 0 276 5 276 10 c 4
 276 15 277 21 279 23 c 5
 318 27 325 30 325 92 c 6
 325 206 l 6
 325 228 324 248 316 263 c 4
 307 280 291 289 276 289 c 4xd8
 247 289 213 274 185 246 c 4
 179 239 172 230 172 214 c 6
 172 92 l 6
 172 30 180 27 218 23 c 5
 220 21 221 15 221 10 c 4
 221 5 220 0 218 -2 c 5
 196 -1 173 0 143 0 c 4
 113 0 82 -1 60 -2 c 5
 58 0 57 5 57 10 c 4
 57 15 58 21 60 23 c 5
 105 27 113 30 113 92 c 6
 113 238 l 6
 113 282 104 285 64 289 c 5
 62 293 61 306 63 310 c 5
 115 317 134 324 155 332 c 5
 161 332 162 329 164 326 c 4
 168 318 169 288 170 268 c 4
 170 260 175 263 179 268 c 4xb8
EndSplineSet
EndChar

StartChar: o
Encoding: 111 111 207
Width: 429
VWidth: 806
Flags: W
HStem: 0 26<180.641 265.883> 311 26<162.127 249.904>
VStem: 56 65<83.4649 253.6> 308 65<80.7547 256.263>
LayerCount: 2
Fore
SplineSet
373 168 m 4
 373 76 314 0 214 0 c 4
 108 0 56 85 56 161 c 4
 56 259 117 337 215 337 c 4
 330 337 373 246 373 168 c 4
204 311 m 4
 136 311 121 244 121 179 c 4
 121 121 146 26 224 26 c 4
 259 26 308 50 308 144 c 4
 308 252 268 311 204 311 c 4
EndSplineSet
EndChar

StartChar: p
Encoding: 112 112 208
Width: 435
VWidth: 778
Flags: W
HStem: -168 24<39.0007 86.25 166.125 219.999> -0 25<178 275.445> 296 21<45.324 86.1501> 302 34<209.375 285.803>
VStem: 96 59<-138.47 7.30796 41.6491 265.004 291.094 291.603> 332 64<86.3095 255.623>
LayerCount: 2
Fore
SplineSet
167 255 m 0xdc
 159 244 155 238 155 222 c 2
 155 86 l 2
 155 59 158 55 173 41 c 0
 187 29 212 25 226 25 c 0
 310 25 332 101 332 163 c 0
 332 248 291 302 243 302 c 0
 221 302 187 279 167 255 c 0xdc
396 182 m 0
 396 78 332 0 231 -0 c 0
 208 0 185 3 166 11 c 0
 158 14 155 16 155 6 c 2
 155 -76 l 2
 155 -138 164 -141 217 -144 c 1
 219 -146 220 -151 220 -156 c 0
 220 -161 219 -166 217 -168 c 1
 192 -167 156 -167 126 -167 c 0
 96 -167 68 -167 42 -168 c 1
 40 -166 39 -161 39 -156 c 0
 39 -151 40 -146 42 -144 c 1
 88 -142 96 -138 96 -76 c 2
 96 245 l 2
 96 289 87 292 47 296 c 1
 45 300 44 313 46 317 c 1xec
 98 324 117 330 138 338 c 1
 144 338 145 335 147 332 c 0
 151 324 152 305 153 283 c 0
 154 275 157 275 161 280 c 0
 191 313 230 336 264 336 c 0
 340 336 396 262 396 182 c 0
EndSplineSet
EndChar

StartChar: q
Encoding: 113 113 209
Width: 466
VWidth: 778
Flags: W
HStem: -168 25<234.007 283.007 359.04 407.987> 0 34<176.254 279.628> 312 25<172.09 255.334>
VStem: 58 64<86.4734 251.446> 291 59<-138.83 18.9978 43.2337 288.27>
LayerCount: 2
Fore
SplineSet
273 284 m 4
 257 303 237 312 214 312 c 4
 154 312 122 256 122 178 c 4
 122 65 187 34 231 34 c 4
 243 34 264 34 281 43 c 4
 291 48 291 52 291 66 c 6
 291 238 l 6
 291 256 288 268 273 284 c 4
293 -76 m 6
 291 8 l 6
 291 16 290 19 287 19 c 4
 284 19 279 17 271 12 c 4
 258 4 233 0 213 0 c 4
 105 0 58 93 58 163 c 4
 58 262 125 337 217 337 c 4
 249 337 279 331 302 316 c 4
 305 314 307 312 309 312 c 4
 313 312 317 316 323 325 c 4
 329 333 334 340 339 340 c 4
 347 340 350 331 350 321 c 6
 350 -75 l 6
 350 -137 358 -141 404 -143 c 5
 406 -145 408 -151 408 -156 c 4
 408 -161 406 -166 404 -168 c 5
 379 -167 351 -166 321 -166 c 4
 291 -166 263 -167 237 -168 c 5
 235 -166 234 -161 234 -156 c 4
 234 -151 235 -145 237 -143 c 5
 283 -141 293 -138 293 -76 c 6
EndSplineSet
EndChar

StartChar: r
Encoding: 114 114 210
Width: 328
VWidth: 805
Flags: W
HStem: -2 25<38.0066 87.0067 166.675 220.993> 283 46<195.135 265.504> 289 21<46.324 88.765>
VStem: 97 59<27.4312 251.728 286.218 286.231>
LayerCount: 2
Fore
SplineSet
154 268 m 4xb0
 154 264 158 259 162 267 c 4
 179 296 210 329 245 329 c 4
 277 329 290 307 290 293 c 4
 290 274 273 256 255 256 c 4
 241 256 233 265 228 273 c 4
 222 281 216 283 209 283 c 4xd0
 200 283 182 258 174 246 c 4
 165 232 156 216 156 196 c 6
 156 92 l 6
 156 30 166 23 218 23 c 5
 220 21 221 15 221 10 c 4
 221 5 220 0 218 -2 c 5
 192 -2 157 0 127 0 c 4
 97 0 67 -2 41 -2 c 5
 39 0 38 5 38 10 c 4
 38 15 39 21 41 23 c 5
 87 23 97 30 97 92 c 6
 97 238 l 6
 97 282 88 289 48 289 c 5
 46 293 45 306 47 310 c 5
 99 317 118 324 139 332 c 5
 145 332 146 329 148 326 c 4
 151 318 154 298 154 268 c 4xb0
EndSplineSet
EndChar

StartChar: s
Encoding: 115 115 211
Width: 323
VWidth: 806
Flags: W
HStem: 0 25<108.651 195.639> 312 25<128.472 202.803>
VStem: 48 24<71.383 114.964> 59 53<218.919 302.737> 218 57<37.6348 121.464> 234 24<239.019 278.111>
LayerCount: 2
Fore
SplineSet
48 111 m 1xe8
 50 113 56 115 61 115 c 0
 65 115 70 114 72 112 c 1
 82 70 91 25 154 25 c 0
 182 25 218 40 218 77 c 0xe8
 218 109 203 125 141 151 c 0
 83 175 59 198 59 253 c 0
 59 301 108 337 164 337 c 0
 203 337 240 327 263 323 c 1
 263 298 258 270 258 243 c 1
 256 240 250 239 245 239 c 0
 241 239 236 240 234 242 c 1
 224 306 180 312 164 312 c 0
 138 312 112 295 112 264 c 0xd4
 112 223 142 210 187 194 c 0
 238 175 275 146 275 95 c 0
 275 21 198 0 156 0 c 0
 128 0 107 3 87 8 c 0
 82 10 77 10 72 10 c 0
 68 10 62 10 54 8 c 1
 54 40 48 74 48 111 c 1xe8
EndSplineSet
EndChar

StartChar: t
Encoding: 116 116 212
Width: 279
VWidth: 823
Flags: W
HStem: -0 41<125 208.84> 300 29<36.012 84 143 238.313>
VStem: 84 59<41.8662 300 329 428.428>
LayerCount: 2
Fore
SplineSet
50 329 m 6
 84 329 l 5
 84 412 82 407 82 416 c 4
 82 421 89 424 98 426 c 4
 108 429 116 432 124 437 c 4
 131 441 137 443 140 443 c 4
 144 443 146 441 146 437 c 6
 146 437 143 407 143 358 c 6
 143 329 l 5
 233 329 l 6
 237 329 239 328 239 325 c 6
 239 310 l 6
 239 303 229 300 221 300 c 6
 143 300 l 5
 143 110 l 6
 143 64 148 41 168 41 c 4
 188 41 210 47 230 62 c 5
 238 62 241 57 243 49 c 5
 214 16 176 0 142 -0 c 4
 108 0 84 21 84 74 c 6
 84 300 l 5
 40 300 l 6
 37 300 36 300 36 304 c 6
 36 314 l 6
 36 320 40 329 50 329 c 6
EndSplineSet
EndChar

StartChar: u
Encoding: 117 117 213
Width: 474
VWidth: 804
Flags: W
HStem: -0 35<179.38 256.694> 30 20<379.973 423.999> 306 25<50.0066 90.6666 256.007 297>
VStem: 100 60<48.9402 302.385> 307 58<63.625 302.359>
LayerCount: 2
Fore
SplineSet
197 -0 m 4xb8
 122 0 100 50 100 102 c 6
 100 246 l 6
 100 295 89 306 53 306 c 5
 51 308 50 313 50 318 c 4
 50 323 51 329 53 331 c 5
 79 331 106 329 130 329 c 4
 142 329 153 330 157 331 c 4
 160 331 163 328 163 326 c 6
 163 326 160 271 160 249 c 6
 160 112 l 6
 160 45 198 35 220 35 c 4xb8
 238 35 267 47 295 71 c 4
 305 80 307 86 307 100 c 6
 307 245 l 6
 307 295 296 306 260 306 c 5
 257 308 256 313 256 318 c 4
 256 323 257 329 260 331 c 5
 286 331 313 329 337 329 c 4
 347 329 359 330 362 331 c 4
 366 331 368 328 368 326 c 6
 368 326 365 271 365 249 c 6
 365 105 l 6
 365 68 373 50 421 50 c 5
 423 48 424 44 424 40 c 4
 424 36 423 32 421 30 c 5x78
 375 25 348 14 332 -0 c 5
 329 -2 327 -2 325 -2 c 4
 323 -2 320 -2 317 -0 c 5
 317 0 310 24 310 44 c 4
 310 49 302 48 298 45 c 4
 262 15 225 0 197 -0 c 4xb8
EndSplineSet
EndChar

StartChar: v
Encoding: 118 118 214
Width: 454
VWidth: 805
Flags: W
HStem: 0 21G<218 227> 295 36<280.386 321.999> 308 25<45.0066 84.1707 163.625 197.987 366.642 408.993>
LayerCount: 2
Fore
SplineSet
284 289 m 5xc0
 282 291 280 315 280 320 c 4
 280 325 282 331 284 333 c 5xa0
 303 333 328 331 353 331 c 4xc0
 373 331 391 333 406 333 c 5
 408 331 409 325 409 320 c 4
 409 315 408 310 406 308 c 5
 364 308 355 285 341 252 c 6
 241 18 l 6
 236 5 231 0 223 0 c 4
 213 0 208 5 204 16 c 6
 108 253 l 6
 93 291 88 303 48 308 c 5
 46 310 45 315 45 320 c 4
 45 325 46 331 48 333 c 5xa0
 70 333 93 331 118 331 c 4xc0
 143 331 169 333 194 333 c 5
 196 331 198 325 198 320 c 4
 198 315 196 310 194 308 c 5xa0
 170 304 162 299 162 289 c 4
 162 281 166 272 171 258 c 6
 225 113 l 6
 231 97 235 89 239 89 c 4
 243 89 246 96 252 111 c 6
 313 258 l 6
 318 271 322 281 322 289 c 4
 322 293 320 295 318 295 c 4
 313 295 301 289 284 289 c 5xc0
EndSplineSet
EndChar

StartChar: w
Encoding: 119 119 215
Width: 663
VWidth: 805
Flags: W
HStem: 0 85<232 255.6 420 443.958> 308 25<57.0066 96.625 173.674 206.993 249.013 282.725 358.917 397.987 470 513.573 566.453 605.993>
LayerCount: 2
Fore
SplineSet
204 308 m 5
 182 306 172 301 172 288 c 4
 172 280 177 272 182 258 c 6
 242 103 l 6
 246 91 249 85 252 85 c 4
 254 85 257 92 262 105 c 6
 315 237 l 5
 310 249 l 6
 296 282 288 304 253 308 c 5
 251 310 249 315 249 320 c 4
 249 325 251 331 253 333 c 5
 275 332 300 331 319 331 c 4
 341 331 372 332 394 333 c 5
 396 331 398 325 398 320 c 4
 398 315 396 310 394 308 c 5
 368 306 358 302 358 290 c 4
 358 284 362 274 366 262 c 6
 431 98 l 6
 434 90 437 86 439 86 c 4
 441 86 444 91 448 101 c 6
 511 257 l 6
 515 267 518 275 518 283 c 4
 518 297 507 306 472 308 c 5
 470 310 470 315 470 320 c 4
 470 325 470 331 472 333 c 5
 494 332 527 331 549 331 c 4
 571 331 588 332 603 333 c 5
 605 331 606 325 606 320 c 4
 606 315 605 310 603 308 c 5
 565 306 552 285 540 254 c 6
 442 16 l 6
 438 5 431 0 424 0 c 4
 416 0 410 5 406 15 c 6
 329 201 l 5
 254 17 l 6
 249 5 243 0 236 0 c 4
 228 0 222 5 218 15 c 6
 119 258 l 6
 103 297 95 304 60 308 c 5
 58 310 57 315 57 320 c 4
 57 325 58 331 60 333 c 5
 80 332 100 331 128 331 c 4
 155 331 182 332 204 333 c 5
 206 331 207 325 207 320 c 4
 207 315 206 310 204 308 c 5
EndSplineSet
EndChar

StartChar: x
Encoding: 120 120 216
Width: 436
VWidth: 803
Flags: W
HStem: -1 25<47.0066 92.4834 142.006 169.993 242.007 269.992 339.962 388.993> 299 25<48.013 87.875 161.007 195.987 258.013 288.993 335.088 382.987>
LayerCount: 2
Fore
SplineSet
182 253 m 6
 216 202 l 6
 222 193 226 192 231 200 c 6
 280 268 l 6
 287 277 289 285 289 289 c 4
 289 297 280 297 262 299 c 5
 260 301 258 306 258 311 c 4
 258 316 260 322 262 324 c 5
 282 324 302 322 324 322 c 4
 346 322 364 324 379 324 c 5
 381 322 383 316 383 311 c 4
 383 306 381 301 379 299 c 5
 351 299 334 293 306 258 c 6
 244 178 l 6
 240 174 241 170 244 166 c 6
 311 71 l 6
 341 28 352 24 386 24 c 5
 388 22 389 16 389 11 c 4
 389 6 388 1 386 -1 c 5
 368 -1 347 1 319 1 c 4
 292 1 267 -1 245 -1 c 5
 243 1 242 6 242 11 c 4
 242 16 243 22 245 24 c 5
 259 26 270 26 270 35 c 4
 270 40 265 50 255 64 c 6
 211 124 l 6
 207 130 204 131 198 122 c 6
 150 54 l 6
 144 45 142 38 142 34 c 4
 142 26 150 24 167 24 c 5
 169 22 170 16 170 11 c 4
 170 6 169 1 167 -1 c 5
 147 -1 126 1 104 1 c 4
 82 1 65 0 50 -1 c 5
 48 1 47 6 47 11 c 4
 47 16 48 22 50 24 c 5
 76 26 93 28 123 66 c 6
 186 147 l 6
 189 150 189 152 185 158 c 6
 120 253 l 6
 99 284 78 297 52 299 c 5
 50 301 48 306 48 311 c 4
 48 316 50 322 52 324 c 5
 72 323 95 322 117 322 c 4
 139 322 172 323 192 324 c 5
 194 322 196 316 196 311 c 4
 196 306 194 301 192 299 c 5
 171 297 161 297 161 289 c 4
 161 285 176 262 182 253 c 6
EndSplineSet
EndChar

StartChar: y
Encoding: 121 121 217
Width: 463
VWidth: 777
Flags: W
HStem: -174 60<84.6562 165.605> 298 25<46.0003 81.875 161.002 197.993 289.007 329.338 378.218 417.993>
LayerCount: 2
Fore
SplineSet
190 -120 m 4
 163 -168 133 -174 117 -174 c 4
 97 -174 82 -162 82 -146 c 4
 82 -136 93 -114 115 -114 c 4
 123 -114 126 -116 136 -116 c 4
 156 -116 166 -110 174 -95 c 5
 186 -72 195 -51 204 -26 c 4
 206 -22 206 -15 206 -9 c 4
 206 11 197 34 193 45 c 6
 108 242 l 6
 88 288 78 294 49 298 c 5
 46 300 46 306 46 311 c 4
 46 315 46 321 49 323 c 5
 64 323 83 322 109 322 c 4
 136 322 167 323 195 323 c 5
 197 321 198 315 198 311 c 4
 198 306 197 300 195 298 c 5
 169 298 160 291 160 280 c 4
 160 272 164 263 170 250 c 6
 236 94 l 6
 240 86 243 83 246 83 c 4
 249 83 252 87 254 93 c 6
 328 265 l 6
 330 270 332 273 332 277 c 4
 332 293 312 298 292 298 c 5
 290 300 289 306 289 311 c 4
 289 315 290 321 292 323 c 5
 314 323 339 322 361 322 c 4
 382 322 399 323 414 323 c 5
 417 321 418 315 418 311 c 4
 418 306 417 300 414 298 c 5
 380 294 368 282 354 250 c 4
 314 166 280 89 220 -56 c 4
 211 -78 201 -99 190 -120 c 4
EndSplineSet
EndChar

StartChar: z
Encoding: 122 122 218
Width: 368
VWidth: 805
Flags: W
HStem: 0 28<115 259.625> 299 25<111.507 238> 312 20G<71 77.5>
VStem: 56 24<227.165 258.624>
LayerCount: 2
Fore
SplineSet
72 332 m 4xb0
 83 328 91 324 116 324 c 6
 253 324 l 6
 275 324 297 326 300 326 c 4
 306 326 308 323 308 320 c 4
 308 317 307 312 295 293 c 4
 249 217 171 98 115 28 c 5
 216 28 l 5
 255 29 269 45 289 85 c 6
 300 107 l 5
 309 107 317 104 322 102 c 5
 316 64 307 26 298 0 c 5
 64 0 l 6
 52 0 46 7 46 12 c 4
 46 16 47 17 54 26 c 4
 112 105 187 213 238 299 c 5
 142 299 l 6xd0
 120 298 95 283 80 228 c 5
 78 227 75 227 72 227 c 4
 66 227 60 228 56 230 c 5
 62 267 67 293 67 327 c 4
 67 329 70 332 72 332 c 4xb0
EndSplineSet
EndChar

StartChar: asciitilde
Encoding: 126 126 219
Width: 506
VWidth: 810
Flags: W
HStem: 164 40<276.282 379.834> 222 38<131.268 229.619>
VStem: 402 28<236.015 250.25>
LayerCount: 2
Fore
SplineSet
402 263 m 5
 430 246 l 5
 412 191 380 164 333 164 c 4
 307 164 276 176 239 198 c 4
 213 214 190 222 172 222 c 4
 144 222 121 201 104 159 c 5
 76 180 l 5
 98 234 131 260 175 260 c 4
 199 260 228 251 261 232 c 4
 294 213 320 204 338 204 c 4
 353 204 365 208 375 218 c 4
 385 228 394 243 402 263 c 5
EndSplineSet
EndChar

StartChar: uni007F
Encoding: 127 127 220
Width: 746
Flags: W
HStem: 0 36<148 598> 560 36<148 598>
VStem: 111 37<36 560> 598 37<36 560>
LayerCount: 2
Fore
SplineSet
111 0 m 5
 111 596 l 5
 635 596 l 5
 635 0 l 5
 111 0 l 5
598 36 m 5
 598 560 l 5
 148 560 l 5
 148 36 l 5
 598 36 l 5
EndSplineSet
EndChar
